<?xml version="1.0" encoding="UTF-8" standalone="no"?>
<!DOCTYPE svg PUBLIC "-//W3C//DTD SVG 1.1//EN" "http://www.w3.org/Graphics/SVG/1.1/DTD/svg11.dtd">
<svg width="100%" height="100%" viewBox="0 0 512 513" version="1.1" xmlns="http://www.w3.org/2000/svg" xmlns:xlink="http://www.w3.org/1999/xlink" xml:space="preserve" style="fill-rule:evenodd;clip-rule:evenodd;stroke-linejoin:round;stroke-miterlimit:1.41421;">
    <g transform="matrix(1,0,0,1,0,-555)">
        <g id="Outline-B.26.W-Simple" transform="matrix(1.44661,0,0,1.44661,562.043,1385.72)">
            <rect x="-388.525" y="-573.976" width="353.919" height="353.919" style="fill:none;"/>
            <g transform="matrix(0.691274,0,0,0.691274,-388.525,-957.909)">
                <path d="M364.444,597.602C365.917,597.609 367.389,597.641 368.861,597.707C371.656,597.831 374.446,598.065 377.223,598.41C384.387,599.298 391.457,600.925 398.287,603.262C405.575,605.756 412.584,609.055 419.154,613.076C425.927,617.221 432.229,622.13 437.91,627.677C443.892,633.518 449.183,640.065 453.633,647.143C457.901,653.932 461.393,661.207 464.013,668.787C466.406,675.712 468.069,682.886 468.971,690.157C469.315,692.934 469.549,695.724 469.673,698.519C469.739,699.991 469.771,701.464 469.778,702.937C469.893,775.353 470.121,847.769 469.777,920.185C469.765,921.657 469.728,923.128 469.658,924.599C469.525,927.392 469.282,930.179 468.929,932.953C468.005,940.218 466.32,947.384 463.907,954.299C461.299,961.768 457.844,968.939 453.633,975.637C449.239,982.625 444.026,989.096 438.137,994.881C432.473,1000.45 426.185,1005.37 419.426,1009.54C412.87,1013.58 405.872,1016.9 398.593,1019.41C391.774,1021.77 384.711,1023.42 377.554,1024.33C374.78,1024.68 371.992,1024.92 369.199,1025.06C367.728,1025.13 366.257,1025.16 364.785,1025.18C292.256,1025.52 219.725,1025.52 147.196,1025.18C145.724,1025.16 144.252,1025.13 142.782,1025.06C139.989,1024.92 137.201,1024.68 134.427,1024.33C127.269,1023.42 120.207,1021.77 113.387,1019.41C106.109,1016.9 99.111,1013.58 92.555,1009.54C85.796,1005.37 79.508,1000.45 73.844,994.881C67.955,989.096 62.742,982.625 58.348,975.637C54.137,968.939 50.681,961.768 48.074,954.299C45.661,947.384 43.976,940.218 43.052,932.953C42.698,930.179 42.456,927.392 42.323,924.599C42.253,923.128 42.216,921.657 42.204,920.185C41.859,847.656 41.859,775.124 42.204,702.595C42.216,701.123 42.253,699.652 42.323,698.181C42.456,695.388 42.698,692.601 43.052,689.827C43.976,682.562 45.661,675.396 48.074,668.481C50.681,661.012 54.137,653.841 58.348,647.143C62.742,640.154 67.955,633.684 73.844,627.899C79.508,622.335 85.796,617.407 92.555,613.242C99.111,609.203 106.109,605.883 113.387,603.367C120.207,601.011 127.269,599.362 134.427,598.451C137.201,598.098 139.989,597.855 142.782,597.722C144.252,597.652 145.724,597.615 147.196,597.604C219.611,597.259 292.028,597.487 364.444,597.602ZM147.892,614.268C146.834,614.27 145.775,614.286 144.717,614.323C142.167,614.412 139.621,614.609 137.088,614.915C130.876,615.666 124.745,617.076 118.831,619.12C111.691,621.588 104.873,624.977 98.589,629.169C92.578,633.179 87.058,637.92 82.181,643.252C78.024,647.798 74.336,652.774 71.2,658.077C68.22,663.115 65.739,668.447 63.81,673.974C61.81,679.702 60.406,685.637 59.621,691.653C59.304,694.083 59.087,696.526 58.971,698.973C58.912,700.215 58.88,701.458 58.87,702.701C58.525,775.159 58.525,847.62 58.87,920.079C58.88,921.322 58.912,922.565 58.971,923.806C59.087,926.254 59.304,928.697 59.621,931.127C60.406,937.143 61.81,943.077 63.81,948.806C65.739,954.333 68.22,959.665 71.2,964.703C74.336,970.006 78.024,974.981 82.181,979.528C87.178,984.992 92.851,989.834 99.036,993.907C105.12,997.913 111.696,1001.17 118.574,1003.57C124.479,1005.63 130.602,1007.06 136.809,1007.83C139.245,1008.13 141.693,1008.33 144.146,1008.44C145.294,1008.48 146.442,1008.51 147.591,1008.51C219.953,1008.62 292.316,1008.87 364.678,1008.51C366.016,1008.5 367.354,1008.46 368.691,1008.4C371.044,1008.28 373.393,1008.06 375.729,1007.76C381.745,1006.98 387.679,1005.57 393.407,1003.57C400.201,1001.2 406.699,997.993 412.721,994.053C418.993,989.951 424.742,985.057 429.799,979.528C434.078,974.849 437.859,969.716 441.054,964.239C443.913,959.338 446.301,954.163 448.171,948.806C450.202,942.989 451.618,936.96 452.396,930.849C452.718,928.322 452.93,925.781 453.035,923.235C453.083,922.087 453.106,920.939 453.112,919.79C453.222,847.427 453.46,775.063 453.11,702.701C453.101,701.458 453.069,700.215 453.01,698.973C452.898,696.619 452.693,694.269 452.396,691.931C451.618,685.82 450.202,679.791 448.171,673.974C446.301,668.617 443.913,663.442 441.054,658.541C437.859,653.064 434.078,647.931 429.799,643.252C424.923,637.92 419.403,633.18 413.392,629.169C407.183,625.027 400.454,621.669 393.407,619.209C387.501,617.148 381.377,615.72 375.17,614.949C372.83,614.659 370.478,614.462 368.122,614.357C366.878,614.302 365.634,614.275 364.39,614.269C292.224,614.152 220.058,614.268 147.892,614.268ZM204.897,860.274L178.633,924.099C178.461,924.485 178.426,924.586 178.222,924.957C177.761,925.79 177.157,926.543 176.443,927.174C175.61,927.909 174.631,928.475 173.577,928.828C172.674,929.131 171.72,929.278 170.768,929.259C169.974,929.244 169.184,929.115 168.427,928.877C167.67,928.639 166.948,928.292 166.288,927.851C165.365,927.232 164.569,926.428 163.959,925.499C163.437,924.703 163.053,923.817 162.828,922.892C162.529,921.657 162.517,920.357 162.793,919.117C162.862,918.807 162.948,918.501 163.052,918.202C163.104,918.052 163.164,917.905 163.221,917.756L186.875,860.274L140.233,860.274C139.739,860.257 139.614,860.266 139.123,860.2C138.202,860.076 137.304,859.797 136.475,859.378C135.48,858.876 134.589,858.172 133.87,857.321C133.15,856.47 132.604,855.474 132.274,854.41C131.944,853.345 131.83,852.216 131.942,851.107C132.016,850.367 132.19,849.639 132.457,848.946C132.724,848.252 133.084,847.595 133.524,846.997C134.075,846.25 134.751,845.596 135.517,845.07C136.436,844.439 137.481,843.996 138.573,843.774C138.937,843.7 139.306,843.651 139.677,843.626C139.862,843.614 140.048,843.614 140.233,843.607L236.408,843.607C236.593,843.614 236.779,843.62 236.964,843.626C237.149,843.644 237.334,843.657 237.518,843.682C237.887,843.731 238.251,843.805 238.609,843.903C239.684,844.198 240.697,844.71 241.572,845.401C242.301,845.976 242.932,846.674 243.432,847.457C244.032,848.396 244.44,849.455 244.625,850.555C244.749,851.287 244.774,852.036 244.699,852.775C244.625,853.514 244.451,854.243 244.184,854.936C243.85,855.802 243.371,856.612 242.771,857.321C242.052,858.172 241.161,858.876 240.166,859.378C239.337,859.797 238.439,860.076 237.518,860.2C237.028,860.266 236.902,860.257 236.408,860.274L204.897,860.274ZM254.01,820.734L157.836,820.734C157.65,820.728 157.464,820.728 157.279,820.716C156.908,820.691 156.54,820.641 156.176,820.567C155.083,820.345 154.038,819.902 153.119,819.271C152.354,818.746 151.677,818.092 151.127,817.344C150.686,816.746 150.326,816.089 150.059,815.396C149.658,814.356 149.47,813.236 149.507,812.122C149.544,811.008 149.807,809.904 150.276,808.893C150.589,808.219 150.992,807.588 151.472,807.021C152.191,806.169 153.082,805.466 154.077,804.963C154.906,804.544 155.804,804.266 156.725,804.142C157.216,804.076 157.341,804.084 157.836,804.067L211.368,804.067L260.247,684.231C260.368,683.972 260.476,683.707 260.61,683.455C260.879,682.951 261.2,682.475 261.566,682.036C262.299,681.159 263.213,680.436 264.235,679.924C265.002,679.541 265.828,679.277 266.674,679.145C267.428,679.027 267.623,679.056 268.383,679.055C268.667,679.084 268.951,679.113 269.235,679.142C269.979,679.297 270.176,679.308 270.89,679.576C272.499,680.179 273.901,681.284 274.865,682.708C275.292,683.34 275.349,683.528 275.673,684.216L371.457,917.765C371.713,918.496 371.807,918.673 371.946,919.438C372.259,921.16 372.015,922.964 371.256,924.541C370.878,925.328 370.375,926.054 369.772,926.685C369.169,927.316 368.467,927.851 367.698,928.265C366.673,928.817 365.533,929.15 364.372,929.237C363.211,929.325 362.035,929.166 360.938,928.773C360.116,928.479 359.342,928.055 358.651,927.521C357.73,926.809 356.962,925.904 356.41,924.878C356.272,924.622 356.162,924.353 356.037,924.09L267.984,709.391L229.367,804.067L254.01,804.067L254.567,804.086C254.751,804.105 254.937,804.117 255.121,804.142C255.489,804.191 255.853,804.265 256.212,804.364C257.287,804.658 258.3,805.17 259.175,805.861C259.903,806.436 260.534,807.134 261.034,807.917C261.534,808.7 261.901,809.566 262.116,810.469C262.375,811.553 262.413,812.688 262.227,813.787C262.104,814.519 261.882,815.235 261.569,815.909C261.256,816.582 260.853,817.214 260.374,817.781C259.654,818.632 258.763,819.336 257.768,819.838C256.939,820.257 256.041,820.536 255.121,820.66C254.63,820.726 254.504,820.718 254.01,820.734Z"/>
            </g>
        </g>
    </g>
</svg>
