<?xml version="1.0" encoding="UTF-8" standalone="no"?>
<!DOCTYPE svg PUBLIC "-//W3C//DTD SVG 1.1//EN" "http://www.w3.org/Graphics/SVG/1.1/DTD/svg11.dtd">
<svg width="100%" height="100%" viewBox="0 0 512 512" version="1.1" xmlns="http://www.w3.org/2000/svg" xmlns:xlink="http://www.w3.org/1999/xlink" xml:space="preserve" style="fill-rule:evenodd;clip-rule:evenodd;stroke-linecap:round;stroke-linejoin:round;stroke-miterlimit:1.5;">
    <g id="Outline-Color" transform="matrix(1.44661,0,0,1.44661,562.043,830.317)">
        <rect x="-388.525" y="-573.976" width="353.919" height="353.919" style="fill:none;"/>
        <g transform="matrix(1.52099,0,0,1.52099,-628.398,-2609.45)">
            <g transform="matrix(1.02793,0,0,1.02793,-588.865,-121.9)">
                <path d="M887.419,1439.13L887.57,1439.14L887.721,1439.14L887.872,1439.14L888.022,1439.14L888.173,1439.14L888.323,1439.15L888.473,1439.15L888.623,1439.15L888.773,1439.16L888.923,1439.16L889.073,1439.17L889.223,1439.17L889.372,1439.18L889.522,1439.19L889.671,1439.2L889.82,1439.2L889.969,1439.21L890.118,1439.22L890.267,1439.23L890.416,1439.24L890.564,1439.25L890.712,1439.26L890.861,1439.27L891.009,1439.28L891.157,1439.3L891.305,1439.31L891.453,1439.32L891.6,1439.33L891.748,1439.35L891.895,1439.36L892.042,1439.38L892.19,1439.39L892.336,1439.41L892.483,1439.42L892.63,1439.44L892.777,1439.46L892.923,1439.47L893.069,1439.49L893.215,1439.51L893.361,1439.53L893.507,1439.55L893.653,1439.57L893.799,1439.59L893.944,1439.61L894.089,1439.63L894.235,1439.65L894.38,1439.67L894.524,1439.7L894.669,1439.72L894.814,1439.74L894.958,1439.77L895.102,1439.79L895.247,1439.81L895.391,1439.84L895.534,1439.87L895.678,1439.89L895.822,1439.92L895.965,1439.94L896.108,1439.97L896.251,1440L896.394,1440.03L896.537,1440.06L896.68,1440.09L896.822,1440.11L896.964,1440.14L897.106,1440.17L897.248,1440.2L897.39,1440.24L897.532,1440.27L897.673,1440.3L897.815,1440.33L897.956,1440.37L898.097,1440.4L898.238,1440.43L898.378,1440.47L898.519,1440.5L898.659,1440.54L898.799,1440.57L898.939,1440.61L899.079,1440.64L899.219,1440.68L899.358,1440.72L899.498,1440.75L899.637,1440.79L899.776,1440.83L899.914,1440.87L900.053,1440.91L900.192,1440.95L900.33,1440.99L900.468,1441.03L900.606,1441.07L900.744,1441.11L900.881,1441.15L901.019,1441.19L901.156,1441.24L901.293,1441.28L901.43,1441.32L901.566,1441.37L901.703,1441.41L901.839,1441.45L901.975,1441.5L902.111,1441.55L902.247,1441.59L902.383,1441.64L902.518,1441.68L902.653,1441.73L902.788,1441.78L902.923,1441.83L903.058,1441.87L903.192,1441.92L903.326,1441.97L903.46,1442.02L903.594,1442.07L903.728,1442.12L903.861,1442.17L903.995,1442.22L904.128,1442.27L904.261,1442.33L904.393,1442.38L904.526,1442.43L904.658,1442.48L904.79,1442.54L904.922,1442.59L905.054,1442.64L905.185,1442.7L905.317,1442.75L905.448,1442.81L905.579,1442.87L905.709,1442.92L905.84,1442.98L905.97,1443.03L906.1,1443.09L906.23,1443.15L906.36,1443.21L906.489,1443.27L906.618,1443.32L906.747,1443.38L906.876,1443.44L907.005,1443.5L907.133,1443.56L907.261,1443.62L907.389,1443.68L907.517,1443.75L907.645,1443.81L907.772,1443.87L907.899,1443.93L908.026,1443.99L908.153,1444.06L908.279,1444.12L908.405,1444.18L908.531,1444.25L908.657,1444.31L908.783,1444.38L908.908,1444.44L909.033,1444.51L909.158,1444.58L909.283,1444.64L909.407,1444.71L909.532,1444.78L909.656,1444.85L909.779,1444.91L909.903,1444.98L910.026,1445.05L910.149,1445.12L910.272,1445.19L910.395,1445.26L910.517,1445.33L910.64,1445.4L910.762,1445.47L910.883,1445.54L911.005,1445.61L911.126,1445.68L911.247,1445.76L911.368,1445.83L911.488,1445.9L911.609,1445.98L911.729,1446.05L911.849,1446.12L911.968,1446.2L912.087,1446.27L912.207,1446.35L912.325,1446.42L912.444,1446.5L912.562,1446.58L912.681,1446.65L912.798,1446.73L912.916,1446.81L913.033,1446.88L913.151,1446.96L913.267,1447.04L913.384,1447.12L913.501,1447.2L913.617,1447.28L913.733,1447.36L913.848,1447.44L913.964,1447.52L914.079,1447.6L914.194,1447.68L914.308,1447.76L914.423,1447.84L914.537,1447.92L914.651,1448.01L914.764,1448.09L914.878,1448.17L914.991,1448.26L915.104,1448.34L915.216,1448.42L915.328,1448.51L915.441,1448.59L915.552,1448.68L915.664,1448.76L915.775,1448.85L915.886,1448.93L915.997,1449.02L916.107,1449.11L916.218,1449.19L916.328,1449.28L916.437,1449.37L916.547,1449.45L916.656,1449.54L916.765,1449.63L916.873,1449.72L916.981,1449.81L917.09,1449.9L917.197,1449.99L917.305,1450.08L917.412,1450.17L917.519,1450.26L917.626,1450.35L917.732,1450.44L917.838,1450.53L917.944,1450.63L918.05,1450.72L918.155,1450.81L918.26,1450.9L918.365,1451L918.469,1451.09L918.573,1451.18L918.677,1451.28L918.781,1451.37L918.884,1451.47L918.987,1451.56L919.09,1451.66L919.192,1451.75L919.294,1451.85L919.396,1451.95L919.498,1452.04L919.599,1452.14L919.7,1452.24L919.801,1452.33L919.901,1452.43L920.002,1452.53L920.101,1452.63L920.201,1452.73L920.3,1452.83L920.399,1452.93L920.498,1453.03L920.596,1453.12L920.694,1453.23L920.792,1453.33L920.89,1453.43L920.987,1453.53L921.084,1453.63L921.18,1453.73L921.276,1453.83L921.372,1453.93L921.468,1454.04L921.563,1454.14L921.659,1454.24L921.753,1454.35L921.848,1454.45L921.942,1454.55L922.036,1454.66L922.129,1454.76L922.222,1454.87L922.315,1454.97L922.408,1455.08L922.5,1455.18L922.592,1455.29L922.684,1455.39L922.775,1455.5L922.866,1455.61L922.957,1455.71L923.047,1455.82L923.138,1455.93L923.227,1456.04L923.317,1456.14L923.406,1456.25L923.495,1456.36L923.583,1456.47L923.671,1456.58L923.759,1456.69L923.847,1456.8L923.934,1456.91L924.021,1457.02L924.107,1457.13L924.194,1457.24L924.28,1457.35L924.365,1457.46L924.451,1457.57L924.535,1457.69L924.62,1457.8L924.704,1457.91L924.788,1458.02L924.872,1458.14L924.955,1458.25L925.038,1458.36L925.121,1458.48L925.203,1458.59L925.285,1458.7L925.367,1458.82L925.448,1458.93L925.529,1459.05L925.61,1459.16L925.69,1459.28L925.77,1459.39L925.849,1459.51L925.929,1459.63L926.008,1459.74L926.086,1459.86L926.164,1459.98L926.242,1460.09L926.32,1460.21L926.397,1460.33L926.474,1460.45L926.55,1460.56L926.627,1460.68L926.702,1460.8L926.778,1460.92L926.853,1461.04L926.928,1461.16L927.002,1461.28L927.076,1461.4L927.15,1461.52L927.223,1461.64L927.296,1461.76L927.369,1461.88L927.441,1462L927.513,1462.12L927.585,1462.24L927.656,1462.37L927.727,1462.49L927.798,1462.61L927.868,1462.73L927.938,1462.85L928.007,1462.98L928.076,1463.1L928.145,1463.22L928.213,1463.35L928.281,1463.47L928.349,1463.6L928.416,1463.72L928.483,1463.84L928.55,1463.97L928.616,1464.09L928.682,1464.22L928.747,1464.34L928.812,1464.47L928.877,1464.6L928.941,1464.72L929.005,1464.85L929.069,1464.97L929.132,1465.1L929.195,1465.23L929.258,1465.35L929.32,1465.48L929.381,1465.61L929.443,1465.74L929.504,1465.87L929.564,1465.99L929.625,1466.12L929.684,1466.25L929.744,1466.38L929.803,1466.51L929.862,1466.64L929.92,1466.77L929.978,1466.9L930.036,1467.03L930.093,1467.16L930.149,1467.29L930.206,1467.42L930.262,1467.55L930.318,1467.68L930.373,1467.81L930.428,1467.94L930.482,1468.07L930.536,1468.2L930.59,1468.34L930.643,1468.47L930.696,1468.6L930.749,1468.73L930.801,1468.87L930.853,1469L930.904,1469.13L930.955,1469.27L931.005,1469.4L931.056,1469.53L931.105,1469.67L931.155,1469.8L931.204,1469.93L931.252,1470.07L931.3,1470.2L931.348,1470.34L931.395,1470.47L931.442,1470.61L931.489,1470.74L931.535,1470.88L931.581,1471.02L931.626,1471.15L931.671,1471.29L931.716,1471.42L931.76,1471.56L931.803,1471.7L931.847,1471.83L931.89,1471.97L931.932,1472.11L931.974,1472.25L932.016,1472.38L932.057,1472.52L932.098,1472.66L932.138,1472.8L932.178,1472.93L932.218,1473.07L932.257,1473.21L932.296,1473.35L932.334,1473.49L932.372,1473.63L932.41,1473.77L932.447,1473.91L932.483,1474.05L932.52,1474.19L932.556,1474.33L932.591,1474.47L932.626,1474.61L932.66,1474.75L932.695,1474.89L932.728,1475.03L932.762,1475.17L932.794,1475.31L932.827,1475.45L932.859,1475.6L932.89,1475.74L932.922,1475.88L932.952,1476.02L932.983,1476.16L933.012,1476.31L933.042,1476.45L933.071,1476.59L933.099,1476.73L933.127,1476.88L933.155,1477.02L933.182,1477.16L933.209,1477.31L933.236,1477.45L933.261,1477.59L933.287,1477.74L933.312,1477.88L933.337,1478.02L933.361,1478.17L933.384,1478.31L933.408,1478.46L933.431,1478.6L933.453,1478.75L933.475,1478.89L933.496,1479.04L933.518,1479.18L933.538,1479.33L933.558,1479.47L933.578,1479.62L933.597,1479.77L933.616,1479.91L933.634,1480.06L933.652,1480.2L933.67,1480.35L933.687,1480.5L933.703,1480.64L933.72,1480.79L933.735,1480.94L933.75,1481.08L933.765,1481.23L933.779,1481.38L933.793,1481.53L933.807,1481.67L933.819,1481.82L933.832,1481.97L933.844,1482.12L933.855,1482.27L933.866,1482.41L933.877,1482.56L933.887,1482.71L933.897,1482.86L933.906,1483.01L933.915,1483.16L933.923,1483.31L933.931,1483.46L933.938,1483.61L933.945,1483.75L933.952,1483.9L933.957,1484.05L933.963,1484.2L933.968,1484.35L933.972,1484.5L933.977,1484.65L933.98,1484.8L933.983,1484.95L933.986,1485.1L933.988,1485.26L933.99,1485.41L933.991,1485.56L933.992,1485.71L933.992,1485.86L933.992,1581.46L933.992,1581.61L933.991,1581.76L933.99,1581.91L933.988,1582.06L933.986,1582.21L933.983,1582.36L933.98,1582.51L933.977,1582.66L933.972,1582.81L933.968,1582.96L933.963,1583.11L933.957,1583.26L933.952,1583.41L933.945,1583.56L933.938,1583.71L933.931,1583.86L933.923,1584.01L933.915,1584.16L933.906,1584.31L933.897,1584.46L933.887,1584.61L933.877,1584.76L933.866,1584.9L933.855,1585.05L933.844,1585.2L933.832,1585.35L933.819,1585.5L933.807,1585.64L933.793,1585.79L933.779,1585.94L933.765,1586.09L933.75,1586.23L933.735,1586.38L933.72,1586.53L933.703,1586.67L933.687,1586.82L933.67,1586.97L933.652,1587.11L933.634,1587.26L933.616,1587.41L933.597,1587.55L933.578,1587.7L933.558,1587.84L933.538,1587.99L933.518,1588.13L933.496,1588.28L933.475,1588.42L933.453,1588.57L933.431,1588.72L933.408,1588.86L933.384,1589.01L933.361,1589.15L933.337,1589.29L933.312,1589.44L933.287,1589.58L933.261,1589.73L933.236,1589.87L933.209,1590.01L933.182,1590.16L933.155,1590.3L933.127,1590.44L933.099,1590.59L933.071,1590.73L933.042,1590.87L933.012,1591.01L932.983,1591.15L932.952,1591.3L932.922,1591.44L932.89,1591.58L932.859,1591.72L932.827,1591.86L932.794,1592.01L932.762,1592.15L932.728,1592.29L932.695,1592.43L932.66,1592.57L932.626,1592.71L932.591,1592.85L932.556,1592.99L932.52,1593.13L932.483,1593.27L932.447,1593.41L932.41,1593.55L932.372,1593.69L932.334,1593.83L932.296,1593.97L932.257,1594.11L932.218,1594.24L932.178,1594.38L932.138,1594.52L932.098,1594.66L932.057,1594.8L932.016,1594.93L931.974,1595.07L931.932,1595.21L931.89,1595.35L931.847,1595.48L931.803,1595.62L931.76,1595.76L931.716,1595.89L931.671,1596.03L931.626,1596.17L931.581,1596.3L931.535,1596.44L931.489,1596.57L931.442,1596.71L931.395,1596.84L931.348,1596.98L931.3,1597.11L931.252,1597.25L931.204,1597.38L931.155,1597.52L931.105,1597.65L931.056,1597.79L931.005,1597.92L930.955,1598.05L930.904,1598.19L930.853,1598.32L930.801,1598.45L930.749,1598.58L930.696,1598.72L930.643,1598.85L930.59,1598.98L930.536,1599.11L930.482,1599.25L930.428,1599.38L930.373,1599.51L930.318,1599.64L930.262,1599.77L930.206,1599.9L930.149,1600.03L930.093,1600.16L930.036,1600.29L929.978,1600.42L929.92,1600.55L929.862,1600.68L929.803,1600.81L929.744,1600.94L929.684,1601.07L929.625,1601.2L929.564,1601.32L929.504,1601.45L929.443,1601.58L929.381,1601.71L929.32,1601.84L929.258,1601.96L929.195,1602.09L929.132,1602.22L929.069,1602.34L929.005,1602.47L928.941,1602.6L928.877,1602.72L928.812,1602.85L928.747,1602.97L928.682,1603.1L928.616,1603.22L928.55,1603.35L928.483,1603.47L928.416,1603.6L928.349,1603.72L928.281,1603.85L928.213,1603.97L928.145,1604.09L928.076,1604.22L928.007,1604.34L927.938,1604.46L927.868,1604.59L927.798,1604.71L927.727,1604.83L927.656,1604.95L927.585,1605.07L927.513,1605.2L927.441,1605.32L927.369,1605.44L927.296,1605.56L927.223,1605.68L927.15,1605.8L927.076,1605.92L927.002,1606.04L926.928,1606.16L926.853,1606.28L926.778,1606.4L926.702,1606.52L926.627,1606.63L926.55,1606.75L926.474,1606.87L926.397,1606.99L926.32,1607.11L926.242,1607.22L926.164,1607.34L926.086,1607.46L926.008,1607.58L925.929,1607.69L925.849,1607.81L925.77,1607.92L925.69,1608.04L925.61,1608.15L925.529,1608.27L925.448,1608.38L925.367,1608.5L925.285,1608.61L925.203,1608.73L925.121,1608.84L925.038,1608.95L924.955,1609.07L924.872,1609.18L924.788,1609.29L924.704,1609.41L924.62,1609.52L924.535,1609.63L924.451,1609.74L924.365,1609.86L924.28,1609.97L924.194,1610.08L924.107,1610.19L924.021,1610.3L923.934,1610.41L923.847,1610.52L923.759,1610.63L923.671,1610.74L923.583,1610.85L923.495,1610.95L923.406,1611.06L923.317,1611.17L923.227,1611.28L923.138,1611.39L923.047,1611.5L922.957,1611.6L922.866,1611.71L922.775,1611.82L922.684,1611.92L922.592,1612.03L922.5,1612.13L922.408,1612.24L922.315,1612.35L922.222,1612.45L922.129,1612.56L922.036,1612.66L921.942,1612.76L921.848,1612.87L921.753,1612.97L921.659,1613.08L921.563,1613.18L921.468,1613.28L921.372,1613.38L921.276,1613.49L921.18,1613.59L921.084,1613.69L920.987,1613.79L920.89,1613.89L920.792,1613.99L920.694,1614.09L920.596,1614.19L920.498,1614.29L920.399,1614.39L920.3,1614.49L920.201,1614.59L920.101,1614.69L920.002,1614.79L919.901,1614.88L919.801,1614.98L919.7,1615.08L919.599,1615.18L919.498,1615.27L919.396,1615.37L919.294,1615.47L919.192,1615.56L919.09,1615.66L918.987,1615.75L918.884,1615.85L918.781,1615.94L918.677,1616.04L918.573,1616.13L918.469,1616.23L918.365,1616.32L918.26,1616.41L918.155,1616.51L918.05,1616.6L917.944,1616.69L917.838,1616.78L917.732,1616.88L917.626,1616.97L917.519,1617.06L917.412,1617.15L917.305,1617.24L917.197,1617.33L917.09,1617.42L916.981,1617.51L916.873,1617.6L916.765,1617.69L916.656,1617.77L916.547,1617.86L916.437,1617.95L916.328,1618.04L916.218,1618.12L916.107,1618.21L915.997,1618.3L915.886,1618.38L915.775,1618.47L915.664,1618.56L915.552,1618.64L915.441,1618.73L915.328,1618.81L915.216,1618.89L915.104,1618.98L914.991,1619.06L914.878,1619.15L914.764,1619.23L914.651,1619.31L914.537,1619.39L914.423,1619.48L914.308,1619.56L914.194,1619.64L914.079,1619.72L913.964,1619.8L913.848,1619.88L913.733,1619.96L913.617,1620.04L913.501,1620.12L913.384,1620.2L913.267,1620.28L913.151,1620.36L913.033,1620.43L912.916,1620.51L912.798,1620.59L912.681,1620.66L912.562,1620.74L912.444,1620.82L912.325,1620.89L912.207,1620.97L912.087,1621.04L911.968,1621.12L911.849,1621.19L911.729,1621.27L911.609,1621.34L911.488,1621.41L911.368,1621.49L911.247,1621.56L911.126,1621.63L911.005,1621.7L910.883,1621.78L910.762,1621.85L910.64,1621.92L910.517,1621.99L910.395,1622.06L910.272,1622.13L910.149,1622.2L910.026,1622.27L909.903,1622.34L909.779,1622.4L909.656,1622.47L909.532,1622.54L909.407,1622.61L909.283,1622.67L909.158,1622.74L909.033,1622.81L908.908,1622.87L908.783,1622.94L908.657,1623L908.531,1623.07L908.405,1623.13L908.279,1623.2L908.153,1623.26L908.026,1623.32L907.899,1623.39L907.772,1623.45L907.645,1623.51L907.517,1623.57L907.389,1623.63L907.261,1623.69L907.133,1623.76L907.005,1623.82L906.876,1623.88L906.747,1623.93L906.618,1623.99L906.489,1624.05L906.36,1624.11L906.23,1624.17L906.1,1624.23L905.97,1624.28L905.84,1624.34L905.709,1624.4L905.579,1624.45L905.448,1624.51L905.317,1624.56L905.185,1624.62L905.054,1624.67L904.922,1624.73L904.79,1624.78L904.658,1624.83L904.526,1624.89L904.393,1624.94L904.261,1624.99L904.128,1625.04L903.995,1625.1L903.861,1625.15L903.728,1625.2L903.594,1625.25L903.46,1625.3L903.326,1625.35L903.192,1625.39L903.058,1625.44L902.923,1625.49L902.788,1625.54L902.653,1625.59L902.518,1625.63L902.383,1625.68L902.247,1625.73L902.111,1625.77L901.975,1625.82L901.839,1625.86L901.703,1625.91L901.566,1625.95L901.43,1625.99L901.293,1626.04L901.156,1626.08L901.019,1626.12L900.881,1626.16L900.744,1626.21L900.606,1626.25L900.468,1626.29L900.33,1626.33L900.192,1626.37L900.053,1626.41L899.914,1626.45L899.776,1626.49L899.637,1626.53L899.498,1626.56L899.358,1626.6L899.219,1626.64L899.079,1626.67L898.939,1626.71L898.799,1626.75L898.659,1626.78L898.519,1626.82L898.378,1626.85L898.238,1626.88L898.097,1626.92L897.956,1626.95L897.815,1626.99L897.673,1627.02L897.532,1627.05L897.39,1627.08L897.248,1627.11L897.106,1627.14L896.964,1627.17L896.822,1627.2L896.68,1627.23L896.537,1627.26L896.394,1627.29L896.251,1627.32L896.108,1627.35L895.965,1627.37L895.822,1627.4L895.678,1627.43L895.534,1627.45L895.391,1627.48L895.247,1627.5L895.102,1627.53L894.958,1627.55L894.814,1627.58L894.669,1627.6L894.524,1627.62L894.38,1627.64L894.235,1627.67L894.089,1627.69L893.944,1627.71L893.799,1627.73L893.653,1627.75L893.507,1627.77L893.361,1627.79L893.215,1627.81L893.069,1627.83L892.923,1627.84L892.777,1627.86L892.63,1627.88L892.483,1627.89L892.336,1627.91L892.19,1627.93L892.042,1627.94L891.895,1627.96L891.748,1627.97L891.6,1627.98L891.453,1628L891.305,1628.01L891.157,1628.02L891.009,1628.04L890.861,1628.05L890.712,1628.06L890.564,1628.07L890.416,1628.08L890.267,1628.09L890.118,1628.1L889.969,1628.11L889.82,1628.11L889.671,1628.12L889.522,1628.13L889.372,1628.14L889.223,1628.14L889.073,1628.15L888.923,1628.15L888.773,1628.16L888.623,1628.16L888.473,1628.17L888.323,1628.17L888.173,1628.17L888.022,1628.18L887.872,1628.18L887.721,1628.18L887.57,1628.18L887.419,1628.18L887.268,1628.18L791.668,1628.18L791.517,1628.18L791.366,1628.18L791.215,1628.18L791.064,1628.18L790.913,1628.18L790.763,1628.17L790.613,1628.17L790.462,1628.17L790.312,1628.16L790.162,1628.16L790.012,1628.15L789.863,1628.15L789.713,1628.14L789.563,1628.14L789.414,1628.13L789.265,1628.12L789.116,1628.11L788.966,1628.11L788.818,1628.1L788.669,1628.09L788.52,1628.08L788.372,1628.07L788.223,1628.06L788.075,1628.05L787.927,1628.04L787.779,1628.02L787.631,1628.01L787.483,1628L787.335,1627.98L787.188,1627.97L787.04,1627.96L786.893,1627.94L786.746,1627.93L786.599,1627.91L786.452,1627.89L786.306,1627.88L786.159,1627.86L786.013,1627.84L785.866,1627.83L785.72,1627.81L785.574,1627.79L785.428,1627.77L785.283,1627.75L785.137,1627.73L784.991,1627.71L784.846,1627.69L784.701,1627.67L784.556,1627.64L784.411,1627.62L784.266,1627.6L784.122,1627.58L783.977,1627.55L783.833,1627.53L783.689,1627.5L783.545,1627.48L783.401,1627.45L783.258,1627.43L783.114,1627.4L782.971,1627.37L782.827,1627.35L782.684,1627.32L782.541,1627.29L782.399,1627.26L782.256,1627.23L782.114,1627.2L781.971,1627.17L781.829,1627.14L781.687,1627.11L781.545,1627.08L781.404,1627.05L781.262,1627.02L781.121,1626.99L780.98,1626.95L780.839,1626.92L780.698,1626.88L780.557,1626.85L780.417,1626.82L780.277,1626.78L780.136,1626.75L779.996,1626.71L779.857,1626.67L779.717,1626.64L779.577,1626.6L779.438,1626.56L779.299,1626.53L779.16,1626.49L779.021,1626.45L778.882,1626.41L778.744,1626.37L778.606,1626.33L778.468,1626.29L778.33,1626.25L778.192,1626.21L778.054,1626.16L777.917,1626.12L777.78,1626.08L777.643,1626.04L777.506,1625.99L777.369,1625.95L777.233,1625.91L777.096,1625.86L776.96,1625.82L776.824,1625.77L776.689,1625.73L776.553,1625.68L776.418,1625.63L776.282,1625.59L776.147,1625.54L776.013,1625.49L775.878,1625.44L775.744,1625.39L775.609,1625.35L775.475,1625.3L775.341,1625.25L775.208,1625.2L775.074,1625.15L774.941,1625.1L774.808,1625.04L774.675,1624.99L774.542,1624.94L774.41,1624.89L774.277,1624.83L774.145,1624.78L774.013,1624.73L773.882,1624.67L773.75,1624.62L773.619,1624.56L773.488,1624.51L773.357,1624.45L773.226,1624.4L773.096,1624.34L772.966,1624.28L772.835,1624.23L772.706,1624.17L772.576,1624.11L772.446,1624.05L772.317,1623.99L772.188,1623.93L772.059,1623.88L771.931,1623.82L771.802,1623.76L771.674,1623.69L771.546,1623.63L771.418,1623.57L771.291,1623.51L771.164,1623.45L771.036,1623.39L770.91,1623.32L770.783,1623.26L770.656,1623.2L770.53,1623.13L770.404,1623.07L770.278,1623L770.153,1622.94L770.027,1622.87L769.902,1622.81L769.777,1622.74L769.653,1622.67L769.528,1622.61L769.404,1622.54L769.28,1622.47L769.156,1622.4L769.033,1622.34L768.909,1622.27L768.786,1622.2L768.663,1622.13L768.541,1622.06L768.418,1621.99L768.296,1621.92L768.174,1621.85L768.052,1621.78L767.931,1621.7L767.81,1621.63L767.689,1621.56L767.568,1621.49L767.447,1621.41L767.327,1621.34L767.207,1621.27L767.087,1621.19L766.968,1621.12L766.848,1621.04L766.729,1620.97L766.61,1620.89L766.492,1620.82L766.373,1620.74L766.255,1620.66L766.137,1620.59L766.02,1620.51L765.902,1620.43L765.785,1620.36L765.668,1620.28L765.551,1620.2L765.435,1620.12L765.319,1620.04L765.203,1619.96L765.087,1619.88L764.972,1619.8L764.857,1619.72L764.742,1619.64L764.627,1619.56L764.513,1619.48L764.399,1619.39L764.285,1619.31L764.171,1619.23L764.058,1619.15L763.945,1619.06L763.832,1618.98L763.719,1618.89L763.607,1618.81L763.495,1618.73L763.383,1618.64L763.272,1618.56L763.16,1618.47L763.049,1618.38L762.939,1618.3L762.828,1618.21L762.718,1618.12L762.608,1618.04L762.498,1617.95L762.389,1617.86L762.28,1617.77L762.171,1617.69L762.062,1617.6L761.954,1617.51L761.846,1617.42L761.738,1617.33L761.631,1617.24L761.524,1617.15L761.417,1617.06L761.31,1616.97L761.204,1616.88L761.097,1616.78L760.992,1616.69L760.886,1616.6L760.781,1616.51L760.676,1616.41L760.571,1616.32L760.466,1616.23L760.362,1616.13L760.258,1616.04L760.155,1615.94L760.052,1615.85L759.948,1615.75L759.846,1615.66L759.743,1615.56L759.641,1615.47L759.539,1615.37L759.438,1615.27L759.336,1615.18L759.235,1615.08L759.135,1614.98L759.034,1614.88L758.934,1614.79L758.834,1614.69L758.735,1614.59L758.635,1614.49L758.536,1614.39L758.438,1614.29L758.339,1614.19L758.241,1614.09L758.144,1613.99L758.046,1613.89L757.949,1613.79L757.852,1613.69L757.755,1613.59L757.659,1613.49L757.563,1613.38L757.467,1613.28L757.372,1613.18L757.277,1613.08L757.182,1612.97L757.088,1612.87L756.994,1612.76L756.9,1612.66L756.806,1612.56L756.713,1612.45L756.62,1612.35L756.528,1612.24L756.435,1612.13L756.343,1612.03L756.252,1611.92L756.16,1611.82L756.069,1611.71L755.979,1611.6L755.888,1611.5L755.798,1611.39L755.708,1611.28L755.619,1611.17L755.53,1611.06L755.441,1610.95L755.352,1610.85L755.264,1610.74L755.176,1610.63L755.089,1610.52L755.002,1610.41L754.915,1610.3L754.828,1610.19L754.742,1610.08L754.656,1609.97L754.57,1609.86L754.485,1609.74L754.4,1609.63L754.316,1609.52L754.231,1609.41L754.147,1609.29L754.064,1609.18L753.98,1609.07L753.897,1608.95L753.815,1608.84L753.733,1608.73L753.651,1608.61L753.569,1608.5L753.488,1608.38L753.407,1608.27L753.326,1608.15L753.246,1608.04L753.166,1607.92L753.086,1607.81L753.007,1607.69L752.928,1607.58L752.849,1607.46L752.771,1607.34L752.693,1607.22L752.616,1607.11L752.539,1606.99L752.462,1606.87L752.385,1606.75L752.309,1606.63L752.233,1606.52L752.158,1606.4L752.083,1606.28L752.008,1606.16L751.933,1606.04L751.859,1605.92L751.786,1605.8L751.712,1605.68L751.639,1605.56L751.567,1605.44L751.494,1605.32L751.422,1605.2L751.351,1605.07L751.279,1604.95L751.208,1604.83L751.138,1604.71L751.068,1604.59L750.998,1604.46L750.928,1604.34L750.859,1604.22L750.791,1604.09L750.722,1603.97L750.654,1603.85L750.587,1603.72L750.519,1603.6L750.452,1603.47L750.386,1603.35L750.32,1603.22L750.254,1603.1L750.188,1602.97L750.123,1602.85L750.059,1602.72L749.994,1602.6L749.93,1602.47L749.867,1602.34L749.803,1602.22L749.741,1602.09L749.678,1601.96L749.616,1601.84L749.554,1601.71L749.493,1601.58L749.432,1601.45L749.371,1601.32L749.311,1601.2L749.251,1601.07L749.192,1600.94L749.133,1600.81L749.074,1600.68L749.016,1600.55L748.958,1600.42L748.9,1600.29L748.843,1600.16L748.786,1600.03L748.73,1599.9L748.674,1599.77L748.618,1599.64L748.563,1599.51L748.508,1599.38L748.453,1599.25L748.399,1599.11L748.346,1598.98L748.292,1598.85L748.239,1598.72L748.187,1598.58L748.135,1598.45L748.083,1598.32L748.032,1598.19L747.981,1598.05L747.93,1597.92L747.88,1597.79L747.83,1597.65L747.781,1597.52L747.732,1597.38L747.683,1597.25L747.635,1597.11L747.588,1596.98L747.54,1596.84L747.493,1596.71L747.447,1596.57L747.4,1596.44L747.355,1596.3L747.309,1596.17L747.264,1596.03L747.22,1595.89L747.176,1595.76L747.132,1595.62L747.089,1595.48L747.046,1595.35L747.003,1595.21L746.961,1595.07L746.92,1594.93L746.878,1594.8L746.838,1594.66L746.797,1594.52L746.757,1594.38L746.718,1594.24L746.678,1594.11L746.64,1593.97L746.601,1593.83L746.563,1593.69L746.526,1593.55L746.489,1593.41L746.452,1593.27L746.416,1593.13L746.38,1592.99L746.345,1592.85L746.31,1592.71L746.275,1592.57L746.241,1592.43L746.207,1592.29L746.174,1592.15L746.141,1592.01L746.109,1591.86L746.077,1591.72L746.045,1591.58L746.014,1591.44L745.983,1591.3L745.953,1591.15L745.923,1591.01L745.894,1590.87L745.865,1590.73L745.836,1590.59L745.808,1590.44L745.78,1590.3L745.753,1590.16L745.726,1590.01L745.7,1589.87L745.674,1589.73L745.649,1589.58L745.624,1589.44L745.599,1589.29L745.575,1589.15L745.551,1589.01L745.528,1588.86L745.505,1588.72L745.483,1588.57L745.461,1588.42L745.439,1588.28L745.418,1588.13L745.397,1587.99L745.377,1587.84L745.358,1587.7L745.338,1587.55L745.32,1587.41L745.301,1587.26L745.283,1587.11L745.266,1586.97L745.249,1586.82L745.232,1586.67L745.216,1586.53L745.2,1586.38L745.185,1586.23L745.171,1586.09L745.156,1585.94L745.142,1585.79L745.129,1585.64L745.116,1585.5L745.104,1585.35L745.092,1585.2L745.08,1585.05L745.069,1584.9L745.059,1584.76L745.048,1584.61L745.039,1584.46L745.03,1584.31L745.021,1584.16L745.012,1584.01L745.005,1583.86L744.997,1583.71L744.99,1583.56L744.984,1583.41L744.978,1583.26L744.973,1583.11L744.968,1582.96L744.963,1582.81L744.959,1582.66L744.956,1582.51L744.952,1582.36L744.95,1582.21L744.948,1582.06L744.946,1581.91L744.945,1581.76L744.944,1581.61L744.944,1581.46L744.944,1485.86L744.944,1485.71L744.945,1485.56L744.946,1485.41L744.948,1485.26L744.95,1485.1L744.952,1484.95L744.956,1484.8L744.959,1484.65L744.963,1484.5L744.968,1484.35L744.973,1484.2L744.978,1484.05L744.984,1483.9L744.99,1483.75L744.997,1483.61L745.005,1483.46L745.012,1483.31L745.021,1483.16L745.03,1483.01L745.039,1482.86L745.048,1482.71L745.059,1482.56L745.069,1482.41L745.08,1482.27L745.092,1482.12L745.104,1481.97L745.116,1481.82L745.129,1481.67L745.142,1481.53L745.156,1481.38L745.171,1481.23L745.185,1481.08L745.2,1480.94L745.216,1480.79L745.232,1480.64L745.249,1480.5L745.266,1480.35L745.283,1480.2L745.301,1480.06L745.32,1479.91L745.338,1479.77L745.358,1479.62L745.377,1479.47L745.397,1479.33L745.418,1479.18L745.439,1479.04L745.461,1478.89L745.483,1478.75L745.505,1478.6L745.528,1478.46L745.551,1478.31L745.575,1478.17L745.599,1478.02L745.624,1477.88L745.649,1477.74L745.674,1477.59L745.7,1477.45L745.726,1477.31L745.753,1477.16L745.78,1477.02L745.808,1476.88L745.836,1476.73L745.865,1476.59L745.894,1476.45L745.923,1476.31L745.953,1476.16L745.983,1476.02L746.014,1475.88L746.045,1475.74L746.077,1475.6L746.109,1475.45L746.141,1475.31L746.174,1475.17L746.207,1475.03L746.241,1474.89L746.275,1474.75L746.31,1474.61L746.345,1474.47L746.38,1474.33L746.416,1474.19L746.452,1474.05L746.489,1473.91L746.526,1473.77L746.563,1473.63L746.601,1473.49L746.64,1473.35L746.678,1473.21L746.718,1473.07L746.757,1472.93L746.797,1472.8L746.838,1472.66L746.878,1472.52L746.92,1472.38L746.961,1472.25L747.003,1472.11L747.046,1471.97L747.089,1471.83L747.132,1471.7L747.176,1471.56L747.22,1471.42L747.264,1471.29L747.309,1471.15L747.355,1471.02L747.4,1470.88L747.447,1470.74L747.493,1470.61L747.54,1470.47L747.588,1470.34L747.635,1470.2L747.683,1470.07L747.732,1469.93L747.781,1469.8L747.83,1469.67L747.88,1469.53L747.93,1469.4L747.981,1469.27L748.032,1469.13L748.083,1469L748.135,1468.87L748.187,1468.73L748.239,1468.6L748.292,1468.47L748.346,1468.34L748.399,1468.2L748.453,1468.07L748.508,1467.94L748.563,1467.81L748.618,1467.68L748.674,1467.55L748.73,1467.42L748.786,1467.29L748.843,1467.16L748.9,1467.03L748.958,1466.9L749.016,1466.77L749.074,1466.64L749.133,1466.51L749.192,1466.38L749.251,1466.25L749.311,1466.12L749.371,1465.99L749.432,1465.87L749.493,1465.74L749.554,1465.61L749.616,1465.48L749.678,1465.35L749.741,1465.23L749.803,1465.1L749.867,1464.97L749.93,1464.85L749.994,1464.72L750.059,1464.6L750.123,1464.47L750.188,1464.34L750.254,1464.22L750.32,1464.09L750.386,1463.97L750.452,1463.84L750.519,1463.72L750.587,1463.6L750.654,1463.47L750.722,1463.35L750.791,1463.22L750.859,1463.1L750.928,1462.98L750.998,1462.85L751.068,1462.73L751.138,1462.61L751.208,1462.49L751.279,1462.37L751.351,1462.24L751.422,1462.12L751.494,1462L751.567,1461.88L751.639,1461.76L751.712,1461.64L751.786,1461.52L751.859,1461.4L751.933,1461.28L752.008,1461.16L752.083,1461.04L752.158,1460.92L752.233,1460.8L752.309,1460.68L752.385,1460.56L752.462,1460.45L752.539,1460.33L752.616,1460.21L752.693,1460.09L752.771,1459.98L752.849,1459.86L752.928,1459.74L753.007,1459.63L753.086,1459.51L753.166,1459.39L753.246,1459.28L753.326,1459.16L753.407,1459.05L753.488,1458.93L753.569,1458.82L753.651,1458.7L753.733,1458.59L753.815,1458.48L753.897,1458.36L753.98,1458.25L754.064,1458.14L754.147,1458.02L754.231,1457.91L754.316,1457.8L754.4,1457.69L754.485,1457.57L754.57,1457.46L754.656,1457.35L754.742,1457.24L754.828,1457.13L754.915,1457.02L755.002,1456.91L755.089,1456.8L755.176,1456.69L755.264,1456.58L755.352,1456.47L755.441,1456.36L755.53,1456.25L755.619,1456.14L755.708,1456.04L755.798,1455.93L755.888,1455.82L755.979,1455.71L756.069,1455.61L756.16,1455.5L756.252,1455.39L756.343,1455.29L756.435,1455.18L756.528,1455.08L756.62,1454.97L756.713,1454.87L756.806,1454.76L756.9,1454.66L756.994,1454.55L757.088,1454.45L757.182,1454.35L757.277,1454.24L757.372,1454.14L757.467,1454.04L757.563,1453.93L757.659,1453.83L757.755,1453.73L757.852,1453.63L757.949,1453.53L758.046,1453.43L758.144,1453.33L758.241,1453.23L758.339,1453.12L758.438,1453.03L758.536,1452.93L758.635,1452.83L758.735,1452.73L758.834,1452.63L758.934,1452.53L759.034,1452.43L759.135,1452.33L759.235,1452.24L759.336,1452.14L759.438,1452.04L759.539,1451.95L759.641,1451.85L759.743,1451.75L759.846,1451.66L759.948,1451.56L760.052,1451.47L760.155,1451.37L760.258,1451.28L760.362,1451.18L760.466,1451.09L760.571,1451L760.676,1450.9L760.781,1450.81L760.886,1450.72L760.992,1450.63L761.097,1450.53L761.204,1450.44L761.31,1450.35L761.417,1450.26L761.524,1450.17L761.631,1450.08L761.738,1449.99L761.846,1449.9L761.954,1449.81L762.062,1449.72L762.171,1449.63L762.28,1449.54L762.389,1449.45L762.498,1449.37L762.608,1449.28L762.718,1449.19L762.828,1449.11L762.939,1449.02L763.049,1448.93L763.16,1448.85L763.272,1448.76L763.383,1448.68L763.495,1448.59L763.607,1448.51L763.719,1448.42L763.832,1448.34L763.945,1448.26L764.058,1448.17L764.171,1448.09L764.285,1448.01L764.399,1447.92L764.513,1447.84L764.627,1447.76L764.742,1447.68L764.857,1447.6L764.972,1447.52L765.087,1447.44L765.203,1447.36L765.319,1447.28L765.435,1447.2L765.551,1447.12L765.668,1447.04L765.785,1446.96L765.902,1446.88L766.02,1446.81L766.137,1446.73L766.255,1446.65L766.373,1446.58L766.492,1446.5L766.61,1446.42L766.729,1446.35L766.848,1446.27L766.968,1446.2L767.087,1446.12L767.207,1446.05L767.327,1445.98L767.447,1445.9L767.568,1445.83L767.689,1445.76L767.81,1445.68L767.931,1445.61L768.052,1445.54L768.174,1445.47L768.296,1445.4L768.418,1445.33L768.541,1445.26L768.663,1445.19L768.786,1445.12L768.909,1445.05L769.033,1444.98L769.156,1444.91L769.28,1444.85L769.404,1444.78L769.528,1444.71L769.653,1444.64L769.777,1444.58L769.902,1444.51L770.027,1444.44L770.153,1444.38L770.278,1444.31L770.404,1444.25L770.53,1444.18L770.656,1444.12L770.783,1444.06L770.91,1443.99L771.036,1443.93L771.164,1443.87L771.291,1443.81L771.418,1443.75L771.546,1443.68L771.674,1443.62L771.802,1443.56L771.931,1443.5L772.059,1443.44L772.188,1443.38L772.317,1443.32L772.446,1443.27L772.576,1443.21L772.706,1443.15L772.835,1443.09L772.966,1443.03L773.096,1442.98L773.226,1442.92L773.357,1442.87L773.488,1442.81L773.619,1442.75L773.75,1442.7L773.882,1442.64L774.013,1442.59L774.145,1442.54L774.277,1442.48L774.41,1442.43L774.542,1442.38L774.675,1442.33L774.808,1442.27L774.941,1442.22L775.074,1442.17L775.208,1442.12L775.341,1442.07L775.475,1442.02L775.609,1441.97L775.744,1441.92L775.878,1441.87L776.013,1441.83L776.147,1441.78L776.282,1441.73L776.418,1441.68L776.553,1441.64L776.689,1441.59L776.824,1441.55L776.96,1441.5L777.096,1441.45L777.233,1441.41L777.369,1441.37L777.506,1441.32L777.643,1441.28L777.78,1441.24L777.917,1441.19L778.054,1441.15L778.192,1441.11L778.33,1441.07L778.468,1441.03L778.606,1440.99L778.744,1440.95L778.882,1440.91L779.021,1440.87L779.16,1440.83L779.299,1440.79L779.438,1440.75L779.577,1440.72L779.717,1440.68L779.857,1440.64L779.996,1440.61L780.136,1440.57L780.277,1440.54L780.417,1440.5L780.557,1440.47L780.698,1440.43L780.839,1440.4L780.98,1440.37L781.121,1440.33L781.262,1440.3L781.404,1440.27L781.545,1440.24L781.687,1440.2L781.829,1440.17L781.971,1440.14L782.114,1440.11L782.256,1440.09L782.399,1440.06L782.541,1440.03L782.684,1440L782.827,1439.97L782.971,1439.94L783.114,1439.92L783.258,1439.89L783.401,1439.87L783.545,1439.84L783.689,1439.81L783.833,1439.79L783.977,1439.77L784.122,1439.74L784.266,1439.72L784.411,1439.7L784.556,1439.67L784.701,1439.65L784.846,1439.63L784.991,1439.61L785.137,1439.59L785.283,1439.57L785.428,1439.55L785.574,1439.53L785.72,1439.51L785.866,1439.49L786.013,1439.47L786.159,1439.46L786.306,1439.44L786.452,1439.42L786.599,1439.41L786.746,1439.39L786.893,1439.38L787.04,1439.36L787.188,1439.35L787.335,1439.33L787.483,1439.32L787.631,1439.31L787.779,1439.3L787.927,1439.28L788.075,1439.27L788.223,1439.26L788.372,1439.25L788.52,1439.24L788.669,1439.23L788.818,1439.22L788.966,1439.21L789.116,1439.2L789.265,1439.2L789.414,1439.19L789.563,1439.18L789.713,1439.17L789.863,1439.17L790.012,1439.16L790.162,1439.16L790.312,1439.15L790.462,1439.15L790.613,1439.15L790.763,1439.14L790.913,1439.14L791.064,1439.14L791.215,1439.14L791.366,1439.14L791.517,1439.13L791.668,1439.13L887.268,1439.13L887.419,1439.13ZM791.673,1446.5L791.54,1446.5L791.412,1446.5L791.285,1446.51L791.158,1446.51L791.03,1446.51L790.903,1446.51L790.776,1446.51L790.649,1446.52L790.523,1446.52L790.396,1446.52L790.269,1446.53L790.143,1446.53L790.017,1446.54L789.89,1446.54L789.764,1446.55L789.638,1446.56L789.512,1446.56L789.387,1446.57L789.261,1446.58L789.135,1446.58L789.01,1446.59L788.885,1446.6L788.76,1446.61L788.635,1446.62L788.51,1446.63L788.385,1446.64L788.26,1446.65L788.136,1446.66L788.011,1446.67L787.887,1446.68L787.763,1446.69L787.639,1446.71L787.515,1446.72L787.391,1446.73L787.267,1446.75L787.144,1446.76L787.02,1446.78L786.897,1446.79L786.774,1446.81L786.651,1446.82L786.528,1446.84L786.405,1446.85L786.282,1446.87L786.159,1446.89L786.037,1446.9L785.915,1446.92L785.792,1446.94L785.67,1446.96L785.548,1446.98L785.427,1447L785.305,1447.02L785.183,1447.04L785.062,1447.06L784.941,1447.08L784.819,1447.1L784.698,1447.12L784.578,1447.14L784.457,1447.16L784.336,1447.18L784.216,1447.21L784.095,1447.23L783.975,1447.26L783.855,1447.28L783.735,1447.3L783.615,1447.33L783.495,1447.35L783.376,1447.38L783.256,1447.4L783.137,1447.43L783.018,1447.46L782.899,1447.49L782.78,1447.51L782.661,1447.54L782.543,1447.57L782.424,1447.6L782.306,1447.62L782.188,1447.65L782.07,1447.68L781.952,1447.71L781.834,1447.74L781.717,1447.77L781.599,1447.8L781.482,1447.84L781.365,1447.87L781.248,1447.9L781.131,1447.93L781.014,1447.96L780.898,1448L780.781,1448.03L780.665,1448.06L780.549,1448.1L780.433,1448.13L780.317,1448.17L780.201,1448.2L780.086,1448.24L779.97,1448.27L779.855,1448.31L779.74,1448.35L779.625,1448.38L779.51,1448.42L779.395,1448.46L779.281,1448.49L779.167,1448.53L779.053,1448.57L778.938,1448.61L778.825,1448.65L778.711,1448.69L778.597,1448.73L778.484,1448.77L778.371,1448.81L778.258,1448.85L778.145,1448.89L778.032,1448.93L777.919,1448.97L777.807,1449.02L777.695,1449.06L777.583,1449.1L777.471,1449.14L777.359,1449.19L777.247,1449.23L777.136,1449.28L777.024,1449.32L776.913,1449.37L776.802,1449.41L776.692,1449.46L776.581,1449.5L776.471,1449.55L776.36,1449.6L776.25,1449.64L776.14,1449.69L776.03,1449.74L775.921,1449.78L775.811,1449.83L775.702,1449.88L775.593,1449.93L775.484,1449.98L775.375,1450.03L775.267,1450.08L775.158,1450.13L775.05,1450.18L774.942,1450.23L774.834,1450.28L774.726,1450.33L774.619,1450.38L774.511,1450.43L774.404,1450.49L774.297,1450.54L774.19,1450.59L774.084,1450.65L773.977,1450.7L773.871,1450.75L773.765,1450.81L773.659,1450.86L773.553,1450.92L773.448,1450.97L773.342,1451.03L773.237,1451.08L773.132,1451.14L773.028,1451.19L772.923,1451.25L772.819,1451.31L772.714,1451.37L772.61,1451.42L772.506,1451.48L772.403,1451.54L772.299,1451.6L772.196,1451.66L772.093,1451.72L771.99,1451.78L771.887,1451.84L771.785,1451.89L771.682,1451.96L771.58,1452.02L771.478,1452.08L771.377,1452.14L771.275,1452.2L771.174,1452.26L771.073,1452.32L770.972,1452.39L770.871,1452.45L770.77,1452.51L770.67,1452.58L770.57,1452.64L770.47,1452.7L770.37,1452.77L770.271,1452.83L770.171,1452.9L770.072,1452.96L769.973,1453.03L769.875,1453.09L769.776,1453.16L769.678,1453.22L769.58,1453.29L769.482,1453.36L769.384,1453.42L769.287,1453.49L769.189,1453.56L769.092,1453.63L768.995,1453.7L768.899,1453.76L768.802,1453.83L768.706,1453.9L768.61,1453.97L768.514,1454.04L768.419,1454.11L768.324,1454.18L768.228,1454.25L768.133,1454.32L768.039,1454.39L767.944,1454.46L767.85,1454.54L767.756,1454.61L767.662,1454.68L767.569,1454.75L767.475,1454.83L767.382,1454.9L767.289,1454.97L767.196,1455.05L767.104,1455.12L767.012,1455.19L766.92,1455.27L766.828,1455.34L766.736,1455.42L766.645,1455.49L766.554,1455.57L766.463,1455.64L766.372,1455.72L766.282,1455.8L766.192,1455.87L766.102,1455.95L766.012,1456.03L765.923,1456.1L765.833,1456.18L765.744,1456.26L765.655,1456.34L765.567,1456.42L765.479,1456.49L765.39,1456.57L765.303,1456.65L765.215,1456.73L765.128,1456.81L765.04,1456.89L764.954,1456.97L764.867,1457.05L764.78,1457.13L764.694,1457.21L764.608,1457.3L764.523,1457.38L764.437,1457.46L764.352,1457.54L764.267,1457.62L764.182,1457.7L764.098,1457.79L764.014,1457.87L763.93,1457.95L763.846,1458.04L763.763,1458.12L763.679,1458.2L763.596,1458.29L763.514,1458.37L763.431,1458.46L763.349,1458.54L763.267,1458.63L763.185,1458.71L763.104,1458.8L763.023,1458.88L762.942,1458.97L762.861,1459.06L762.78,1459.14L762.7,1459.23L762.62,1459.32L762.541,1459.41L762.461,1459.49L762.382,1459.58L762.303,1459.67L762.225,1459.76L762.146,1459.85L762.068,1459.93L761.99,1460.02L761.913,1460.11L761.836,1460.2L761.759,1460.29L761.682,1460.38L761.605,1460.47L761.529,1460.56L761.453,1460.65L761.377,1460.75L761.302,1460.84L761.227,1460.93L761.152,1461.02L761.077,1461.11L761.003,1461.2L760.929,1461.3L760.855,1461.39L760.781,1461.48L760.708,1461.57L760.635,1461.67L760.562,1461.76L760.49,1461.85L760.418,1461.95L760.346,1462.04L760.274,1462.13L760.203,1462.23L760.132,1462.32L760.061,1462.42L759.991,1462.51L759.92,1462.61L759.851,1462.7L759.781,1462.8L759.712,1462.9L759.642,1462.99L759.574,1463.09L759.505,1463.19L759.437,1463.28L759.369,1463.38L759.301,1463.48L759.234,1463.58L759.167,1463.67L759.1,1463.77L759.033,1463.87L758.967,1463.97L758.901,1464.07L758.836,1464.16L758.77,1464.26L758.705,1464.36L758.641,1464.46L758.576,1464.56L758.512,1464.66L758.448,1464.76L758.384,1464.86L758.321,1464.96L758.258,1465.06L758.195,1465.16L758.133,1465.26L758.071,1465.37L758.009,1465.47L757.948,1465.57L757.886,1465.67L757.825,1465.77L757.765,1465.87L757.704,1465.98L757.644,1466.08L757.585,1466.18L757.525,1466.28L757.466,1466.39L757.407,1466.49L757.349,1466.59L757.291,1466.7L757.233,1466.8L757.175,1466.9L757.118,1467.01L757.061,1467.11L757.004,1467.22L756.948,1467.32L756.892,1467.43L756.836,1467.53L756.781,1467.64L756.726,1467.74L756.671,1467.85L756.617,1467.96L756.562,1468.06L756.508,1468.17L756.455,1468.28L756.402,1468.38L756.349,1468.49L756.296,1468.6L756.244,1468.7L756.192,1468.81L756.14,1468.92L756.089,1469.03L756.038,1469.13L755.987,1469.24L755.937,1469.35L755.887,1469.46L755.837,1469.57L755.788,1469.67L755.739,1469.78L755.69,1469.89L755.641,1470L755.593,1470.11L755.546,1470.22L755.498,1470.33L755.451,1470.44L755.404,1470.55L755.358,1470.66L755.312,1470.77L755.266,1470.88L755.22,1470.99L755.175,1471.1L755.13,1471.21L755.086,1471.33L755.041,1471.44L754.998,1471.55L754.954,1471.66L754.911,1471.77L754.868,1471.89L754.826,1472L754.783,1472.11L754.742,1472.22L754.7,1472.34L754.659,1472.45L754.618,1472.56L754.577,1472.67L754.537,1472.79L754.497,1472.9L754.458,1473.02L754.419,1473.13L754.38,1473.24L754.342,1473.36L754.303,1473.47L754.266,1473.59L754.228,1473.7L754.191,1473.82L754.154,1473.93L754.118,1474.05L754.082,1474.16L754.046,1474.28L754.011,1474.39L753.976,1474.51L753.941,1474.62L753.907,1474.74L753.873,1474.86L753.839,1474.97L753.806,1475.09L753.773,1475.2L753.74,1475.32L753.708,1475.44L753.676,1475.56L753.644,1475.67L753.613,1475.79L753.582,1475.91L753.552,1476.03L753.522,1476.14L753.492,1476.26L753.463,1476.38L753.434,1476.5L753.405,1476.62L753.377,1476.73L753.349,1476.85L753.321,1476.97L753.294,1477.09L753.267,1477.21L753.24,1477.33L753.214,1477.45L753.188,1477.57L753.163,1477.69L753.138,1477.81L753.113,1477.93L753.088,1478.05L753.064,1478.17L753.041,1478.29L753.018,1478.41L752.995,1478.53L752.972,1478.65L752.95,1478.77L752.928,1478.89L752.907,1479.01L752.886,1479.13L752.865,1479.25L752.844,1479.37L752.825,1479.5L752.805,1479.62L752.786,1479.74L752.767,1479.86L752.748,1479.98L752.73,1480.11L752.713,1480.23L752.695,1480.35L752.678,1480.47L752.662,1480.6L752.645,1480.72L752.63,1480.84L752.614,1480.96L752.599,1481.09L752.584,1481.21L752.57,1481.34L752.556,1481.46L752.542,1481.58L752.529,1481.71L752.516,1481.83L752.504,1481.95L752.492,1482.08L752.48,1482.2L752.469,1482.33L752.458,1482.45L752.448,1482.58L752.438,1482.7L752.428,1482.83L752.419,1482.95L752.41,1483.08L752.401,1483.2L752.393,1483.33L752.385,1483.45L752.378,1483.58L752.371,1483.7L752.364,1483.83L752.358,1483.95L752.352,1484.08L752.347,1484.21L752.342,1484.33L752.337,1484.46L752.333,1484.59L752.329,1484.71L752.326,1484.84L752.323,1484.97L752.32,1485.09L752.318,1485.22L752.316,1485.35L752.315,1485.48L752.314,1485.6L752.313,1485.73L752.313,1485.86L752.313,1581.45L752.313,1581.59L752.314,1581.71L752.315,1581.84L752.316,1581.97L752.318,1582.1L752.32,1582.22L752.323,1582.35L752.326,1582.48L752.329,1582.6L752.333,1582.73L752.337,1582.86L752.342,1582.98L752.347,1583.11L752.352,1583.24L752.358,1583.36L752.364,1583.49L752.371,1583.61L752.378,1583.74L752.385,1583.87L752.393,1583.99L752.401,1584.12L752.41,1584.24L752.419,1584.37L752.428,1584.49L752.438,1584.62L752.448,1584.74L752.458,1584.87L752.469,1584.99L752.48,1585.12L752.492,1585.24L752.504,1585.36L752.516,1585.49L752.529,1585.61L752.542,1585.74L752.556,1585.86L752.57,1585.98L752.584,1586.11L752.599,1586.23L752.614,1586.35L752.63,1586.48L752.645,1586.6L752.662,1586.72L752.678,1586.84L752.695,1586.97L752.713,1587.09L752.73,1587.21L752.748,1587.33L752.767,1587.46L752.786,1587.58L752.805,1587.7L752.825,1587.82L752.844,1587.94L752.865,1588.07L752.886,1588.19L752.907,1588.31L752.928,1588.43L752.95,1588.55L752.972,1588.67L752.995,1588.79L753.018,1588.91L753.041,1589.03L753.064,1589.15L753.088,1589.27L753.113,1589.39L753.138,1589.51L753.163,1589.63L753.188,1589.75L753.214,1589.87L753.24,1589.99L753.267,1590.11L753.294,1590.23L753.321,1590.35L753.349,1590.47L753.377,1590.58L753.405,1590.7L753.434,1590.82L753.463,1590.94L753.492,1591.06L753.522,1591.17L753.552,1591.29L753.582,1591.41L753.613,1591.53L753.645,1591.64L753.676,1591.76L753.708,1591.88L753.74,1592L753.773,1592.11L753.806,1592.23L753.839,1592.35L753.873,1592.46L753.907,1592.58L753.941,1592.69L753.976,1592.81L754.011,1592.92L754.046,1593.04L754.082,1593.16L754.118,1593.27L754.154,1593.39L754.191,1593.5L754.228,1593.62L754.266,1593.73L754.303,1593.85L754.342,1593.96L754.38,1594.07L754.419,1594.19L754.458,1594.3L754.497,1594.42L754.537,1594.53L754.577,1594.64L754.618,1594.76L754.659,1594.87L754.7,1594.98L754.742,1595.1L754.783,1595.21L754.826,1595.32L754.868,1595.43L754.911,1595.54L754.954,1595.66L754.998,1595.77L755.041,1595.88L755.086,1595.99L755.13,1596.1L755.175,1596.21L755.22,1596.32L755.266,1596.43L755.312,1596.55L755.358,1596.66L755.404,1596.77L755.451,1596.88L755.498,1596.99L755.546,1597.1L755.593,1597.21L755.641,1597.32L755.69,1597.42L755.739,1597.53L755.788,1597.64L755.837,1597.75L755.887,1597.86L755.937,1597.97L755.987,1598.08L756.038,1598.18L756.089,1598.29L756.14,1598.4L756.192,1598.51L756.244,1598.62L756.296,1598.72L756.349,1598.83L756.402,1598.94L756.455,1599.04L756.508,1599.15L756.562,1599.26L756.617,1599.36L756.671,1599.47L756.726,1599.57L756.781,1599.68L756.836,1599.78L756.892,1599.89L756.948,1599.99L757.004,1600.1L757.061,1600.2L757.118,1600.31L757.175,1600.41L757.233,1600.52L757.291,1600.62L757.349,1600.72L757.407,1600.83L757.466,1600.93L757.525,1601.03L757.585,1601.14L757.644,1601.24L757.704,1601.34L757.765,1601.44L757.825,1601.55L757.886,1601.65L757.947,1601.75L758.009,1601.85L758.071,1601.95L758.133,1602.05L758.195,1602.15L758.258,1602.26L758.321,1602.36L758.384,1602.46L758.448,1602.56L758.512,1602.66L758.576,1602.76L758.641,1602.86L758.705,1602.95L758.77,1603.05L758.836,1603.15L758.901,1603.25L758.967,1603.35L759.033,1603.45L759.1,1603.55L759.167,1603.64L759.234,1603.74L759.301,1603.84L759.369,1603.94L759.437,1604.03L759.505,1604.13L759.574,1604.23L759.642,1604.32L759.712,1604.42L759.781,1604.52L759.85,1604.61L759.92,1604.71L759.991,1604.8L760.061,1604.9L760.132,1604.99L760.203,1605.09L760.274,1605.18L760.346,1605.28L760.418,1605.37L760.49,1605.46L760.562,1605.56L760.635,1605.65L760.708,1605.74L760.781,1605.84L760.855,1605.93L760.929,1606.02L761.003,1606.12L761.077,1606.21L761.152,1606.3L761.227,1606.39L761.302,1606.48L761.377,1606.57L761.453,1606.66L761.529,1606.75L761.605,1606.85L761.682,1606.93L761.759,1607.03L761.836,1607.11L761.913,1607.2L761.991,1607.29L762.068,1607.38L762.146,1607.47L762.225,1607.56L762.303,1607.65L762.382,1607.74L762.461,1607.82L762.541,1607.91L762.62,1608L762.7,1608.09L762.78,1608.17L762.861,1608.26L762.942,1608.35L763.022,1608.43L763.104,1608.52L763.185,1608.6L763.267,1608.69L763.349,1608.77L763.431,1608.86L763.514,1608.94L763.596,1609.03L763.679,1609.11L763.762,1609.2L763.846,1609.28L763.93,1609.36L764.014,1609.45L764.098,1609.53L764.182,1609.61L764.267,1609.69L764.352,1609.78L764.437,1609.86L764.523,1609.94L764.608,1610.02L764.694,1610.1L764.78,1610.18L764.867,1610.27L764.954,1610.35L765.04,1610.43L765.128,1610.51L765.215,1610.59L765.303,1610.66L765.39,1610.74L765.478,1610.82L765.567,1610.9L765.656,1610.98L765.744,1611.06L765.833,1611.14L765.923,1611.21L766.012,1611.29L766.102,1611.37L766.192,1611.44L766.282,1611.52L766.372,1611.6L766.463,1611.67L766.554,1611.75L766.645,1611.83L766.736,1611.9L766.828,1611.98L766.92,1612.05L767.012,1612.12L767.104,1612.2L767.197,1612.27L767.289,1612.35L767.382,1612.42L767.475,1612.49L767.569,1612.56L767.662,1612.64L767.756,1612.71L767.85,1612.78L767.944,1612.85L768.039,1612.92L768.133,1612.99L768.228,1613.07L768.323,1613.14L768.419,1613.21L768.514,1613.28L768.61,1613.35L768.706,1613.41L768.802,1613.48L768.899,1613.55L768.995,1613.62L769.092,1613.69L769.189,1613.76L769.286,1613.83L769.384,1613.89L769.482,1613.96L769.579,1614.03L769.678,1614.09L769.776,1614.16L769.875,1614.23L769.973,1614.29L770.072,1614.36L770.171,1614.42L770.27,1614.49L770.37,1614.55L770.47,1614.62L770.57,1614.68L770.67,1614.74L770.77,1614.81L770.871,1614.87L770.972,1614.93L771.072,1614.99L771.174,1615.06L771.275,1615.12L771.377,1615.18L771.478,1615.24L771.58,1615.3L771.682,1615.36L771.785,1615.42L771.887,1615.48L771.99,1615.54L772.093,1615.6L772.196,1615.66L772.299,1615.72L772.403,1615.78L772.506,1615.84L772.61,1615.89L772.714,1615.95L772.818,1616.01L772.923,1616.07L773.027,1616.12L773.132,1616.18L773.237,1616.23L773.343,1616.29L773.448,1616.35L773.553,1616.4L773.659,1616.46L773.765,1616.51L773.871,1616.56L773.977,1616.62L774.084,1616.67L774.191,1616.73L774.297,1616.78L774.404,1616.83L774.511,1616.88L774.619,1616.93L774.727,1616.99L774.834,1617.04L774.942,1617.09L775.05,1617.14L775.158,1617.19L775.267,1617.24L775.375,1617.29L775.484,1617.34L775.593,1617.39L775.702,1617.44L775.811,1617.49L775.921,1617.53L776.03,1617.58L776.14,1617.63L776.25,1617.68L776.36,1617.72L776.471,1617.77L776.581,1617.82L776.692,1617.86L776.802,1617.91L776.913,1617.95L777.024,1618L777.136,1618.04L777.247,1618.09L777.359,1618.13L777.471,1618.17L777.583,1618.22L777.695,1618.26L777.807,1618.3L777.92,1618.34L778.032,1618.38L778.145,1618.43L778.257,1618.47L778.371,1618.51L778.484,1618.55L778.597,1618.59L778.711,1618.63L778.825,1618.67L778.939,1618.71L779.053,1618.75L779.166,1618.79L779.281,1618.82L779.395,1618.86L779.51,1618.9L779.625,1618.93L779.74,1618.97L779.855,1619.01L779.97,1619.05L780.086,1619.08L780.201,1619.12L780.317,1619.15L780.433,1619.19L780.549,1619.22L780.665,1619.25L780.781,1619.29L780.898,1619.32L781.014,1619.35L781.131,1619.39L781.248,1619.42L781.365,1619.45L781.482,1619.48L781.599,1619.51L781.717,1619.54L781.834,1619.58L781.952,1619.61L782.07,1619.63L782.188,1619.66L782.306,1619.69L782.425,1619.72L782.543,1619.75L782.661,1619.78L782.78,1619.81L782.899,1619.83L783.018,1619.86L783.137,1619.89L783.256,1619.91L783.376,1619.94L783.495,1619.96L783.615,1619.99L783.735,1620.01L783.855,1620.04L783.975,1620.06L784.095,1620.09L784.216,1620.11L784.336,1620.13L784.457,1620.15L784.577,1620.18L784.698,1620.2L784.819,1620.22L784.941,1620.24L785.062,1620.26L785.183,1620.28L785.305,1620.3L785.427,1620.32L785.548,1620.34L785.67,1620.36L785.793,1620.38L785.915,1620.4L786.037,1620.41L786.159,1620.43L786.282,1620.45L786.405,1620.47L786.528,1620.48L786.651,1620.5L786.774,1620.51L786.897,1620.53L787.02,1620.54L787.144,1620.56L787.267,1620.57L787.391,1620.58L787.515,1620.6L787.639,1620.61L787.763,1620.62L787.887,1620.63L788.011,1620.65L788.136,1620.66L788.26,1620.67L788.385,1620.68L788.51,1620.69L788.635,1620.7L788.76,1620.71L788.885,1620.72L789.01,1620.73L789.135,1620.73L789.261,1620.74L789.387,1620.75L789.512,1620.76L789.638,1620.76L789.764,1620.77L789.89,1620.77L790.017,1620.78L790.143,1620.79L790.269,1620.79L790.396,1620.79L790.523,1620.8L790.649,1620.8L790.776,1620.8L790.903,1620.81L791.03,1620.81L791.157,1620.81L791.285,1620.81L791.412,1620.81L791.54,1620.81L791.673,1620.81L887.262,1620.81L887.396,1620.81L887.523,1620.81L887.651,1620.81L887.778,1620.81L887.905,1620.81L888.032,1620.81L888.16,1620.8L888.287,1620.8L888.413,1620.8L888.54,1620.79L888.666,1620.79L888.793,1620.79L888.919,1620.78L889.045,1620.77L889.171,1620.77L889.297,1620.76L889.423,1620.76L889.549,1620.75L889.675,1620.74L889.8,1620.73L889.925,1620.73L890.051,1620.72L890.176,1620.71L890.301,1620.7L890.426,1620.69L890.551,1620.68L890.675,1620.67L890.8,1620.66L890.924,1620.65L891.049,1620.63L891.173,1620.62L891.297,1620.61L891.421,1620.6L891.545,1620.58L891.669,1620.57L891.792,1620.56L891.916,1620.54L892.039,1620.53L892.162,1620.51L892.285,1620.5L892.408,1620.48L892.531,1620.47L892.653,1620.45L892.776,1620.43L892.899,1620.41L893.021,1620.4L893.143,1620.38L893.265,1620.36L893.387,1620.34L893.509,1620.32L893.631,1620.3L893.752,1620.28L893.874,1620.26L893.995,1620.24L894.116,1620.22L894.237,1620.2L894.358,1620.18L894.479,1620.15L894.599,1620.13L894.72,1620.11L894.84,1620.09L894.961,1620.06L895.081,1620.04L895.201,1620.01L895.32,1619.99L895.44,1619.96L895.56,1619.94L895.679,1619.91L895.799,1619.89L895.918,1619.86L896.037,1619.83L896.155,1619.81L896.274,1619.78L896.393,1619.75L896.511,1619.72L896.629,1619.69L896.748,1619.66L896.866,1619.63L896.984,1619.61L897.101,1619.58L897.219,1619.54L897.336,1619.51L897.454,1619.48L897.571,1619.45L897.688,1619.42L897.805,1619.39L897.922,1619.35L898.038,1619.32L898.155,1619.29L898.271,1619.25L898.387,1619.22L898.503,1619.19L898.619,1619.15L898.735,1619.12L898.85,1619.08L898.965,1619.05L899.081,1619.01L899.196,1618.97L899.311,1618.93L899.425,1618.9L899.54,1618.86L899.655,1618.82L899.769,1618.79L899.883,1618.75L899.997,1618.71L900.111,1618.67L900.225,1618.63L900.338,1618.59L900.452,1618.55L900.565,1618.51L900.678,1618.47L900.791,1618.43L900.904,1618.38L901.016,1618.34L901.129,1618.3L901.241,1618.26L901.353,1618.22L901.465,1618.17L901.577,1618.13L901.688,1618.09L901.8,1618.04L901.911,1618L902.022,1617.95L902.133,1617.91L902.244,1617.86L902.355,1617.82L902.465,1617.77L902.575,1617.72L902.686,1617.68L902.795,1617.63L902.905,1617.58L903.015,1617.53L903.124,1617.49L903.234,1617.44L903.343,1617.39L903.452,1617.34L903.56,1617.29L903.669,1617.24L903.777,1617.19L903.885,1617.14L903.994,1617.09L904.102,1617.04L904.209,1616.99L904.317,1616.93L904.424,1616.88L904.531,1616.83L904.638,1616.78L904.745,1616.73L904.852,1616.67L904.958,1616.62L905.065,1616.56L905.17,1616.51L905.276,1616.46L905.382,1616.4L905.488,1616.35L905.593,1616.29L905.698,1616.23L905.803,1616.18L905.908,1616.12L906.013,1616.07L906.117,1616.01L906.221,1615.95L906.325,1615.89L906.429,1615.84L906.533,1615.78L906.636,1615.72L906.739,1615.66L906.843,1615.6L906.946,1615.54L907.048,1615.48L907.151,1615.42L907.253,1615.36L907.355,1615.3L907.457,1615.24L907.559,1615.18L907.661,1615.12L907.762,1615.06L907.863,1614.99L907.964,1614.93L908.065,1614.87L908.165,1614.81L908.266,1614.74L908.366,1614.68L908.466,1614.62L908.566,1614.55L908.665,1614.49L908.764,1614.42L908.863,1614.36L908.963,1614.29L909.061,1614.23L909.159,1614.16L909.258,1614.09L909.356,1614.03L909.454,1613.96L909.552,1613.89L909.649,1613.83L909.746,1613.76L909.844,1613.69L909.94,1613.62L910.037,1613.55L910.133,1613.48L910.229,1613.41L910.326,1613.35L910.421,1613.28L910.517,1613.21L910.612,1613.14L910.707,1613.07L910.802,1613L910.897,1612.92L910.991,1612.85L911.086,1612.78L911.18,1612.71L911.273,1612.64L911.367,1612.56L911.46,1612.49L911.554,1612.42L911.646,1612.35L911.739,1612.27L911.831,1612.2L911.924,1612.12L912.016,1612.05L912.108,1611.98L912.199,1611.9L912.291,1611.83L912.382,1611.75L912.472,1611.67L912.563,1611.6L912.654,1611.52L912.744,1611.44L912.834,1611.37L912.924,1611.29L913.013,1611.21L913.102,1611.14L913.191,1611.06L913.28,1610.98L913.369,1610.9L913.457,1610.82L913.545,1610.74L913.633,1610.66L913.721,1610.59L913.808,1610.51L913.895,1610.43L913.982,1610.35L914.069,1610.27L914.155,1610.18L914.241,1610.1L914.327,1610.02L914.413,1609.94L914.498,1609.86L914.584,1609.78L914.668,1609.69L914.753,1609.61L914.838,1609.53L914.922,1609.45L915.006,1609.36L915.09,1609.28L915.173,1609.2L915.256,1609.11L915.339,1609.03L915.422,1608.94L915.505,1608.86L915.587,1608.77L915.669,1608.69L915.75,1608.6L915.832,1608.52L915.913,1608.43L915.994,1608.35L916.074,1608.26L916.155,1608.17L916.235,1608.09L916.315,1608L916.395,1607.91L916.474,1607.82L916.553,1607.74L916.632,1607.65L916.711,1607.56L916.789,1607.47L916.867,1607.38L916.945,1607.29L917.023,1607.2L917.1,1607.11L917.177,1607.03L917.254,1606.93L917.33,1606.85L917.407,1606.75L917.483,1606.66L917.558,1606.57L917.634,1606.48L917.709,1606.39L917.784,1606.3L917.858,1606.21L917.933,1606.12L918.007,1606.02L918.081,1605.93L918.154,1605.84L918.227,1605.75L918.3,1605.65L918.373,1605.56L918.446,1605.46L918.518,1605.37L918.59,1605.28L918.661,1605.18L918.733,1605.09L918.804,1604.99L918.874,1604.9L918.945,1604.8L919.015,1604.71L919.085,1604.61L919.155,1604.52L919.224,1604.42L919.293,1604.32L919.362,1604.23L919.43,1604.13L919.499,1604.03L919.567,1603.94L919.634,1603.84L919.702,1603.74L919.769,1603.64L919.836,1603.55L919.902,1603.45L919.968,1603.35L920.034,1603.25L920.1,1603.15L920.165,1603.05L920.23,1602.95L920.295,1602.86L920.36,1602.76L920.424,1602.66L920.488,1602.56L920.551,1602.46L920.614,1602.36L920.678,1602.26L920.74,1602.15L920.803,1602.05L920.865,1601.95L920.927,1601.85L920.988,1601.75L921.049,1601.65L921.11,1601.55L921.171,1601.44L921.231,1601.34L921.291,1601.24L921.351,1601.14L921.41,1601.03L921.47,1600.93L921.528,1600.83L921.587,1600.72L921.645,1600.62L921.703,1600.52L921.76,1600.41L921.818,1600.31L921.875,1600.2L921.931,1600.1L921.988,1599.99L922.044,1599.89L922.099,1599.78L922.155,1599.68L922.21,1599.57L922.265,1599.47L922.319,1599.36L922.373,1599.26L922.427,1599.15L922.481,1599.04L922.534,1598.94L922.587,1598.83L922.639,1598.72L922.692,1598.62L922.744,1598.51L922.795,1598.4L922.847,1598.29L922.898,1598.18L922.948,1598.08L922.999,1597.97L923.049,1597.86L923.098,1597.75L923.148,1597.64L923.197,1597.53L923.246,1597.42L923.294,1597.32L923.342,1597.21L923.39,1597.1L923.438,1596.99L923.485,1596.88L923.532,1596.77L923.578,1596.66L923.624,1596.55L923.67,1596.43L923.715,1596.32L923.761,1596.21L923.805,1596.1L923.85,1595.99L923.894,1595.88L923.938,1595.77L923.982,1595.66L924.025,1595.54L924.067,1595.43L924.11,1595.32L924.152,1595.21L924.194,1595.09L924.236,1594.98L924.277,1594.87L924.318,1594.76L924.358,1594.64L924.398,1594.53L924.438,1594.42L924.478,1594.3L924.517,1594.19L924.556,1594.07L924.594,1593.96L924.632,1593.85L924.67,1593.73L924.707,1593.62L924.745,1593.5L924.781,1593.39L924.818,1593.27L924.854,1593.16L924.89,1593.04L924.925,1592.93L924.96,1592.81L924.995,1592.69L925.029,1592.58L925.063,1592.46L925.097,1592.35L925.13,1592.23L925.163,1592.11L925.195,1592L925.228,1591.88L925.26,1591.76L925.291,1591.64L925.322,1591.53L925.353,1591.41L925.384,1591.29L925.414,1591.17L925.443,1591.06L925.473,1590.94L925.502,1590.82L925.531,1590.7L925.559,1590.58L925.587,1590.47L925.615,1590.35L925.642,1590.23L925.669,1590.11L925.695,1589.99L925.722,1589.87L925.747,1589.75L925.773,1589.63L925.798,1589.51L925.823,1589.39L925.847,1589.27L925.871,1589.15L925.895,1589.03L925.918,1588.91L925.941,1588.79L925.964,1588.67L925.986,1588.55L926.008,1588.43L926.029,1588.31L926.05,1588.19L926.071,1588.06L926.091,1587.94L926.111,1587.82L926.131,1587.7L926.15,1587.58L926.169,1587.46L926.187,1587.33L926.205,1587.21L926.223,1587.09L926.24,1586.97L926.257,1586.84L926.274,1586.72L926.29,1586.6L926.306,1586.48L926.322,1586.35L926.337,1586.23L926.351,1586.11L926.366,1585.98L926.38,1585.86L926.393,1585.74L926.406,1585.61L926.419,1585.49L926.432,1585.36L926.444,1585.24L926.455,1585.12L926.467,1584.99L926.477,1584.87L926.488,1584.74L926.498,1584.62L926.508,1584.49L926.517,1584.37L926.526,1584.24L926.535,1584.12L926.543,1583.99L926.55,1583.87L926.558,1583.74L926.565,1583.61L926.571,1583.49L926.578,1583.36L926.583,1583.24L926.589,1583.11L926.594,1582.98L926.598,1582.86L926.603,1582.73L926.606,1582.6L926.61,1582.48L926.613,1582.35L926.616,1582.22L926.618,1582.1L926.62,1581.97L926.621,1581.84L926.622,1581.71L926.623,1581.59L926.623,1581.45L926.623,1485.86L926.623,1485.73L926.622,1485.6L926.621,1485.48L926.62,1485.35L926.618,1485.22L926.616,1485.09L926.613,1484.97L926.61,1484.84L926.606,1484.71L926.603,1484.59L926.598,1484.46L926.594,1484.33L926.589,1484.21L926.583,1484.08L926.578,1483.95L926.571,1483.83L926.565,1483.7L926.558,1483.58L926.55,1483.45L926.543,1483.33L926.535,1483.2L926.526,1483.08L926.517,1482.95L926.508,1482.83L926.498,1482.7L926.488,1482.58L926.477,1482.45L926.467,1482.33L926.455,1482.2L926.444,1482.08L926.432,1481.95L926.419,1481.83L926.406,1481.71L926.393,1481.58L926.38,1481.46L926.366,1481.34L926.351,1481.21L926.337,1481.09L926.322,1480.96L926.306,1480.84L926.29,1480.72L926.274,1480.6L926.257,1480.47L926.24,1480.35L926.223,1480.23L926.205,1480.11L926.187,1479.98L926.169,1479.86L926.15,1479.74L926.131,1479.62L926.111,1479.5L926.091,1479.37L926.071,1479.25L926.05,1479.13L926.029,1479.01L926.008,1478.89L925.986,1478.77L925.964,1478.65L925.941,1478.53L925.918,1478.41L925.895,1478.29L925.871,1478.17L925.847,1478.05L925.823,1477.93L925.798,1477.81L925.773,1477.69L925.747,1477.57L925.722,1477.45L925.695,1477.33L925.669,1477.21L925.642,1477.09L925.615,1476.97L925.587,1476.85L925.559,1476.73L925.531,1476.62L925.502,1476.5L925.473,1476.38L925.443,1476.26L925.414,1476.14L925.384,1476.03L925.353,1475.91L925.322,1475.79L925.291,1475.67L925.26,1475.56L925.228,1475.44L925.195,1475.32L925.163,1475.2L925.13,1475.09L925.097,1474.97L925.063,1474.86L925.029,1474.74L924.995,1474.62L924.96,1474.51L924.925,1474.39L924.89,1474.28L924.854,1474.16L924.818,1474.05L924.781,1473.93L924.745,1473.82L924.707,1473.7L924.67,1473.59L924.632,1473.47L924.594,1473.36L924.556,1473.24L924.517,1473.13L924.478,1473.02L924.438,1472.9L924.398,1472.79L924.358,1472.67L924.318,1472.56L924.277,1472.45L924.236,1472.34L924.194,1472.22L924.152,1472.11L924.11,1472L924.068,1471.89L924.025,1471.77L923.982,1471.66L923.938,1471.55L923.894,1471.44L923.85,1471.33L923.805,1471.21L923.761,1471.1L923.715,1470.99L923.67,1470.88L923.624,1470.77L923.578,1470.66L923.532,1470.55L923.485,1470.44L923.437,1470.33L923.39,1470.22L923.342,1470.11L923.294,1470L923.246,1469.89L923.197,1469.78L923.148,1469.67L923.098,1469.57L923.049,1469.46L922.999,1469.35L922.948,1469.24L922.898,1469.13L922.847,1469.03L922.795,1468.92L922.744,1468.81L922.692,1468.7L922.639,1468.6L922.587,1468.49L922.534,1468.38L922.481,1468.28L922.427,1468.17L922.373,1468.06L922.319,1467.96L922.265,1467.85L922.21,1467.74L922.155,1467.64L922.099,1467.53L922.044,1467.43L921.988,1467.32L921.931,1467.22L921.875,1467.11L921.818,1467.01L921.76,1466.9L921.703,1466.8L921.645,1466.7L921.587,1466.59L921.528,1466.49L921.469,1466.39L921.41,1466.28L921.351,1466.18L921.291,1466.08L921.231,1465.98L921.171,1465.87L921.11,1465.77L921.049,1465.67L920.988,1465.57L920.927,1465.47L920.865,1465.36L920.803,1465.26L920.74,1465.16L920.678,1465.06L920.614,1464.96L920.551,1464.86L920.488,1464.76L920.424,1464.66L920.36,1464.56L920.295,1464.46L920.23,1464.36L920.165,1464.26L920.1,1464.16L920.034,1464.07L919.968,1463.97L919.902,1463.87L919.836,1463.77L919.769,1463.67L919.702,1463.58L919.634,1463.48L919.567,1463.38L919.499,1463.28L919.43,1463.19L919.362,1463.09L919.293,1462.99L919.224,1462.9L919.155,1462.8L919.085,1462.7L919.015,1462.61L918.945,1462.51L918.874,1462.42L918.804,1462.32L918.733,1462.23L918.661,1462.13L918.59,1462.04L918.518,1461.95L918.446,1461.85L918.373,1461.76L918.3,1461.67L918.227,1461.57L918.154,1461.48L918.081,1461.39L918.007,1461.3L917.933,1461.2L917.858,1461.11L917.784,1461.02L917.709,1460.93L917.634,1460.84L917.558,1460.75L917.483,1460.65L917.406,1460.56L917.33,1460.47L917.254,1460.38L917.177,1460.29L917.1,1460.2L917.023,1460.11L916.945,1460.02L916.867,1459.93L916.789,1459.85L916.711,1459.76L916.632,1459.67L916.553,1459.58L916.474,1459.49L916.395,1459.41L916.315,1459.32L916.235,1459.23L916.155,1459.14L916.075,1459.06L915.994,1458.97L915.913,1458.88L915.832,1458.8L915.75,1458.71L915.669,1458.63L915.587,1458.54L915.505,1458.46L915.422,1458.37L915.339,1458.29L915.256,1458.2L915.173,1458.12L915.09,1458.04L915.006,1457.95L914.922,1457.87L914.838,1457.79L914.753,1457.7L914.668,1457.62L914.583,1457.54L914.498,1457.46L914.413,1457.38L914.327,1457.3L914.241,1457.21L914.155,1457.13L914.069,1457.05L913.982,1456.97L913.895,1456.89L913.808,1456.81L913.721,1456.73L913.633,1456.65L913.545,1456.57L913.457,1456.49L913.369,1456.42L913.28,1456.34L913.191,1456.26L913.102,1456.18L913.013,1456.1L912.924,1456.03L912.834,1455.95L912.744,1455.87L912.654,1455.8L912.563,1455.72L912.473,1455.64L912.382,1455.57L912.291,1455.49L912.199,1455.42L912.108,1455.34L912.016,1455.27L911.924,1455.19L911.832,1455.12L911.739,1455.05L911.646,1454.97L911.553,1454.9L911.46,1454.83L911.367,1454.75L911.274,1454.68L911.18,1454.61L911.086,1454.54L910.991,1454.46L910.897,1454.39L910.802,1454.32L910.707,1454.25L910.612,1454.18L910.517,1454.11L910.421,1454.04L910.326,1453.97L910.23,1453.9L910.133,1453.83L910.037,1453.76L909.94,1453.7L909.843,1453.63L909.746,1453.56L909.649,1453.49L909.552,1453.42L909.454,1453.36L909.356,1453.29L909.258,1453.22L909.16,1453.16L909.061,1453.09L908.962,1453.03L908.863,1452.96L908.764,1452.9L908.665,1452.83L908.565,1452.77L908.466,1452.7L908.366,1452.64L908.266,1452.58L908.165,1452.51L908.065,1452.45L907.964,1452.39L907.863,1452.32L907.762,1452.26L907.661,1452.2L907.559,1452.14L907.457,1452.08L907.355,1452.02L907.253,1451.96L907.151,1451.89L907.048,1451.84L906.946,1451.78L906.843,1451.72L906.74,1451.66L906.636,1451.6L906.533,1451.54L906.429,1451.48L906.325,1451.42L906.221,1451.37L906.117,1451.31L906.013,1451.25L905.908,1451.19L905.803,1451.14L905.698,1451.08L905.593,1451.03L905.488,1450.97L905.382,1450.92L905.276,1450.86L905.171,1450.81L905.064,1450.75L904.958,1450.7L904.852,1450.65L904.745,1450.59L904.638,1450.54L904.531,1450.49L904.424,1450.43L904.317,1450.38L904.209,1450.33L904.102,1450.28L903.994,1450.23L903.886,1450.18L903.777,1450.13L903.669,1450.08L903.56,1450.03L903.452,1449.98L903.343,1449.93L903.234,1449.88L903.124,1449.83L903.015,1449.78L902.905,1449.74L902.795,1449.69L902.686,1449.64L902.575,1449.6L902.465,1449.55L902.355,1449.5L902.244,1449.46L902.133,1449.41L902.022,1449.37L901.911,1449.32L901.8,1449.28L901.688,1449.23L901.577,1449.19L901.465,1449.14L901.353,1449.1L901.241,1449.06L901.129,1449.02L901.016,1448.97L900.904,1448.93L900.791,1448.89L900.678,1448.85L900.565,1448.81L900.452,1448.77L900.338,1448.73L900.225,1448.69L900.111,1448.65L899.997,1448.61L899.883,1448.57L899.769,1448.53L899.655,1448.49L899.54,1448.46L899.425,1448.42L899.311,1448.38L899.196,1448.35L899.081,1448.31L898.965,1448.27L898.85,1448.24L898.735,1448.2L898.619,1448.17L898.503,1448.13L898.387,1448.1L898.271,1448.06L898.155,1448.03L898.038,1448L897.922,1447.96L897.805,1447.93L897.688,1447.9L897.571,1447.87L897.454,1447.84L897.336,1447.8L897.219,1447.77L897.101,1447.74L896.984,1447.71L896.866,1447.68L896.748,1447.65L896.63,1447.62L896.511,1447.6L896.393,1447.57L896.274,1447.54L896.155,1447.51L896.037,1447.49L895.918,1447.46L895.798,1447.43L895.679,1447.4L895.56,1447.38L895.44,1447.35L895.32,1447.33L895.201,1447.3L895.081,1447.28L894.961,1447.26L894.84,1447.23L894.72,1447.21L894.6,1447.18L894.479,1447.16L894.358,1447.14L894.237,1447.12L894.116,1447.1L893.995,1447.08L893.874,1447.06L893.752,1447.04L893.631,1447.02L893.509,1447L893.387,1446.98L893.265,1446.96L893.143,1446.94L893.021,1446.92L892.899,1446.9L892.776,1446.89L892.654,1446.87L892.531,1446.85L892.408,1446.84L892.285,1446.82L892.162,1446.81L892.039,1446.79L891.916,1446.78L891.792,1446.76L891.668,1446.75L891.545,1446.73L891.421,1446.72L891.297,1446.71L891.173,1446.69L891.049,1446.68L890.924,1446.67L890.8,1446.66L890.675,1446.65L890.551,1446.64L890.426,1446.63L890.301,1446.62L890.176,1446.61L890.051,1446.6L889.925,1446.59L889.8,1446.58L889.675,1446.58L889.549,1446.57L889.423,1446.56L889.297,1446.56L889.171,1446.55L889.045,1446.54L888.919,1446.54L888.793,1446.53L888.666,1446.53L888.54,1446.52L888.413,1446.52L888.286,1446.52L888.159,1446.51L888.032,1446.51L887.905,1446.51L887.778,1446.51L887.651,1446.51L887.523,1446.5L887.396,1446.5L887.262,1446.5L791.673,1446.5Z" style="fill:rgb(21,36,43);"/>
            </g>
            <g>
                <g transform="matrix(1,0,0,1,-559.621,-78.0538)">
                    <path d="M795.013,1582.44L807.915,1551.09" style="fill:none;stroke:rgb(21,36,43);stroke-width:7.57px;"/>
                </g>
                <g transform="matrix(1,0,0,1,-559.621,-78.0538)">
                    <path d="M815.938,1533.11L839.114,1476.29L882.647,1582.44" style="fill:none;stroke:rgb(21,36,43);stroke-width:7.57px;"/>
                </g>
                <g transform="matrix(1,0,0,1,-562.91,-78.0515)">
                    <path d="M784.352,1551.08L828.062,1551.08" style="fill:none;stroke:rgb(255,0,64);stroke-width:7.57px;"/>
                </g>
                <g transform="matrix(1,0,0,1,-554.91,-96.0219)">
                    <path d="M784.352,1551.08L828.062,1551.08" style="fill:none;stroke:rgb(255,0,64);stroke-width:7.57px;"/>
                </g>
            </g>
        </g>
    </g>
</svg>
