<?xml version="1.0" encoding="UTF-8" standalone="no"?>
<!DOCTYPE svg PUBLIC "-//W3C//DTD SVG 1.1//EN" "http://www.w3.org/Graphics/SVG/1.1/DTD/svg11.dtd">
<svg width="100%" height="100%" viewBox="0 0 512 512" version="1.1" xmlns="http://www.w3.org/2000/svg" xmlns:xlink="http://www.w3.org/1999/xlink" xml:space="preserve" style="fill-rule:evenodd;clip-rule:evenodd;stroke-linecap:round;stroke-linejoin:round;stroke-miterlimit:1.5;">
    <g id="Outline" transform="matrix(1.44661,0,0,1.44661,562.043,830.317)">
        <rect x="-388.525" y="-573.976" width="353.919" height="353.919" style="fill:none;"/>
        <g transform="matrix(1.52099,0,0,1.52099,-628.398,-2609.45)">
            <g transform="matrix(1.02793,0,0,1.02793,-588.865,-121.9)">
                <path d="M887.419,1439.13L887.57,1439.14L887.721,1439.14L887.872,1439.14L888.022,1439.14L888.173,1439.14L888.323,1439.15L888.473,1439.15L888.623,1439.15L888.773,1439.16L888.923,1439.16L889.073,1439.17L889.223,1439.17L889.372,1439.18L889.522,1439.19L889.671,1439.2L889.82,1439.2L889.969,1439.21L890.118,1439.22L890.267,1439.23L890.416,1439.24L890.564,1439.25L890.712,1439.26L890.861,1439.27L891.009,1439.28L891.157,1439.3L891.305,1439.31L891.453,1439.32L891.6,1439.33L891.748,1439.35L891.895,1439.36L892.042,1439.38L892.19,1439.39L892.336,1439.41L892.483,1439.42L892.63,1439.44L892.777,1439.46L892.923,1439.47L893.069,1439.49L893.215,1439.51L893.361,1439.53L893.507,1439.55L893.653,1439.57L893.799,1439.59L893.944,1439.61L894.089,1439.63L894.235,1439.65L894.38,1439.67L894.524,1439.7L894.669,1439.72L894.814,1439.74L894.958,1439.77L895.102,1439.79L895.247,1439.81L895.391,1439.84L895.534,1439.87L895.678,1439.89L895.822,1439.92L895.965,1439.94L896.108,1439.97L896.251,1440L896.394,1440.03L896.537,1440.06L896.68,1440.09L896.822,1440.11L896.964,1440.14L897.106,1440.17L897.248,1440.2L897.39,1440.24L897.532,1440.27L897.673,1440.3L897.815,1440.33L897.956,1440.37L898.097,1440.4L898.238,1440.43L898.378,1440.47L898.519,1440.5L898.659,1440.54L898.799,1440.57L898.939,1440.61L899.079,1440.64L899.219,1440.68L899.358,1440.72L899.498,1440.75L899.637,1440.79L899.776,1440.83L899.914,1440.87L900.053,1440.91L900.192,1440.95L900.33,1440.99L900.468,1441.03L900.606,1441.07L900.744,1441.11L900.881,1441.15L901.019,1441.19L901.156,1441.24L901.293,1441.28L901.43,1441.32L901.566,1441.37L901.703,1441.41L901.839,1441.45L901.975,1441.5L902.111,1441.55L902.247,1441.59L902.383,1441.64L902.518,1441.68L902.653,1441.73L902.788,1441.78L902.923,1441.83L903.058,1441.87L903.192,1441.92L903.326,1441.97L903.46,1442.02L903.594,1442.07L903.728,1442.12L903.861,1442.17L903.995,1442.22L904.128,1442.27L904.261,1442.33L904.393,1442.38L904.526,1442.43L904.658,1442.48L904.79,1442.54L904.922,1442.59L905.054,1442.64L905.185,1442.7L905.317,1442.75L905.448,1442.81L905.579,1442.87L905.709,1442.92L905.84,1442.98L905.97,1443.03L906.1,1443.09L906.23,1443.15L906.36,1443.21L906.489,1443.27L906.618,1443.32L906.747,1443.38L906.876,1443.44L907.005,1443.5L907.133,1443.56L907.261,1443.62L907.389,1443.68L907.517,1443.75L907.645,1443.81L907.772,1443.87L907.899,1443.93L908.026,1443.99L908.153,1444.06L908.279,1444.12L908.405,1444.18L908.531,1444.25L908.657,1444.31L908.783,1444.38L908.908,1444.44L909.033,1444.51L909.158,1444.58L909.283,1444.64L909.407,1444.71L909.532,1444.78L909.656,1444.85L909.779,1444.91L909.903,1444.98L910.026,1445.05L910.149,1445.12L910.272,1445.19L910.395,1445.26L910.517,1445.33L910.64,1445.4L910.762,1445.47L910.883,1445.54L911.005,1445.61L911.126,1445.68L911.247,1445.76L911.368,1445.83L911.488,1445.9L911.609,1445.98L911.729,1446.05L911.849,1446.12L911.968,1446.2L912.087,1446.27L912.207,1446.35L912.325,1446.42L912.444,1446.5L912.562,1446.58L912.681,1446.65L912.798,1446.73L912.916,1446.81L913.033,1446.88L913.151,1446.96L913.267,1447.04L913.384,1447.12L913.501,1447.2L913.617,1447.28L913.733,1447.36L913.848,1447.44L913.964,1447.52L914.079,1447.6L914.194,1447.68L914.308,1447.76L914.423,1447.84L914.537,1447.92L914.651,1448.01L914.764,1448.09L914.878,1448.17L914.991,1448.26L915.104,1448.34L915.216,1448.42L915.328,1448.51L915.441,1448.59L915.552,1448.68L915.664,1448.76L915.775,1448.85L915.886,1448.93L915.997,1449.02L916.107,1449.11L916.218,1449.19L916.328,1449.28L916.437,1449.37L916.547,1449.45L916.656,1449.54L916.765,1449.63L916.873,1449.72L916.981,1449.81L917.09,1449.9L917.197,1449.99L917.305,1450.08L917.412,1450.17L917.519,1450.26L917.626,1450.35L917.732,1450.44L917.838,1450.53L917.944,1450.63L918.05,1450.72L918.155,1450.81L918.26,1450.9L918.365,1451L918.469,1451.09L918.573,1451.18L918.677,1451.28L918.781,1451.37L918.884,1451.47L918.987,1451.56L919.09,1451.66L919.192,1451.75L919.294,1451.85L919.396,1451.95L919.498,1452.04L919.599,1452.14L919.7,1452.24L919.801,1452.33L919.901,1452.43L920.002,1452.53L920.101,1452.63L920.201,1452.73L920.3,1452.83L920.399,1452.93L920.498,1453.03L920.596,1453.12L920.694,1453.23L920.792,1453.33L920.89,1453.43L920.987,1453.53L921.084,1453.63L921.18,1453.73L921.276,1453.83L921.372,1453.93L921.468,1454.04L921.563,1454.14L921.659,1454.24L921.753,1454.35L921.848,1454.45L921.942,1454.55L922.036,1454.66L922.129,1454.76L922.222,1454.87L922.315,1454.97L922.408,1455.08L922.5,1455.18L922.592,1455.29L922.684,1455.39L922.775,1455.5L922.866,1455.61L922.957,1455.71L923.047,1455.82L923.138,1455.93L923.227,1456.04L923.317,1456.14L923.406,1456.25L923.495,1456.36L923.583,1456.47L923.671,1456.58L923.759,1456.69L923.847,1456.8L923.934,1456.91L924.021,1457.02L924.107,1457.13L924.194,1457.24L924.28,1457.35L924.365,1457.46L924.451,1457.57L924.535,1457.69L924.62,1457.8L924.704,1457.91L924.788,1458.02L924.872,1458.14L924.955,1458.25L925.038,1458.36L925.121,1458.48L925.203,1458.59L925.285,1458.7L925.367,1458.82L925.448,1458.93L925.529,1459.05L925.61,1459.16L925.69,1459.28L925.77,1459.39L925.849,1459.51L925.929,1459.63L926.008,1459.74L926.086,1459.86L926.164,1459.98L926.242,1460.09L926.32,1460.21L926.397,1460.33L926.474,1460.45L926.55,1460.56L926.627,1460.68L926.702,1460.8L926.778,1460.92L926.853,1461.04L926.928,1461.16L927.002,1461.28L927.076,1461.4L927.15,1461.52L927.223,1461.64L927.296,1461.76L927.369,1461.88L927.441,1462L927.513,1462.12L927.585,1462.24L927.656,1462.37L927.727,1462.49L927.798,1462.61L927.868,1462.73L927.938,1462.85L928.007,1462.98L928.076,1463.1L928.145,1463.22L928.213,1463.35L928.281,1463.47L928.349,1463.6L928.416,1463.72L928.483,1463.84L928.55,1463.97L928.616,1464.09L928.682,1464.22L928.747,1464.34L928.812,1464.47L928.877,1464.6L928.941,1464.72L929.005,1464.85L929.069,1464.97L929.132,1465.1L929.195,1465.23L929.258,1465.35L929.32,1465.48L929.381,1465.61L929.443,1465.74L929.504,1465.87L929.564,1465.99L929.625,1466.12L929.684,1466.25L929.744,1466.38L929.803,1466.51L929.862,1466.64L929.92,1466.77L929.978,1466.9L930.036,1467.03L930.093,1467.16L930.149,1467.29L930.206,1467.42L930.262,1467.55L930.318,1467.68L930.373,1467.81L930.428,1467.94L930.482,1468.07L930.536,1468.2L930.59,1468.34L930.643,1468.47L930.696,1468.6L930.749,1468.73L930.801,1468.87L930.853,1469L930.904,1469.13L930.955,1469.27L931.005,1469.4L931.056,1469.53L931.105,1469.67L931.155,1469.8L931.204,1469.93L931.252,1470.07L931.3,1470.2L931.348,1470.34L931.395,1470.47L931.442,1470.61L931.489,1470.74L931.535,1470.88L931.581,1471.02L931.626,1471.15L931.671,1471.29L931.716,1471.42L931.76,1471.56L931.803,1471.7L931.847,1471.83L931.89,1471.97L931.932,1472.11L931.974,1472.25L932.016,1472.38L932.057,1472.52L932.098,1472.66L932.138,1472.8L932.178,1472.93L932.218,1473.07L932.257,1473.21L932.296,1473.35L932.334,1473.49L932.372,1473.63L932.41,1473.77L932.447,1473.91L932.483,1474.05L932.52,1474.19L932.556,1474.33L932.591,1474.47L932.626,1474.61L932.66,1474.75L932.695,1474.89L932.728,1475.03L932.762,1475.17L932.794,1475.31L932.827,1475.45L932.859,1475.6L932.89,1475.74L932.922,1475.88L932.952,1476.02L932.983,1476.16L933.012,1476.31L933.042,1476.45L933.071,1476.59L933.099,1476.73L933.127,1476.88L933.155,1477.02L933.182,1477.16L933.209,1477.31L933.236,1477.45L933.261,1477.59L933.287,1477.74L933.312,1477.88L933.337,1478.02L933.361,1478.17L933.384,1478.31L933.408,1478.46L933.431,1478.6L933.453,1478.75L933.475,1478.89L933.496,1479.04L933.518,1479.18L933.538,1479.33L933.558,1479.47L933.578,1479.62L933.597,1479.77L933.616,1479.91L933.634,1480.06L933.652,1480.2L933.67,1480.35L933.687,1480.5L933.703,1480.64L933.72,1480.79L933.735,1480.94L933.75,1481.08L933.765,1481.23L933.779,1481.38L933.793,1481.53L933.807,1481.67L933.819,1481.82L933.832,1481.97L933.844,1482.12L933.855,1482.27L933.866,1482.41L933.877,1482.56L933.887,1482.71L933.897,1482.86L933.906,1483.01L933.915,1483.16L933.923,1483.31L933.931,1483.46L933.938,1483.61L933.945,1483.75L933.952,1483.9L933.957,1484.05L933.963,1484.2L933.968,1484.35L933.972,1484.5L933.977,1484.65L933.98,1484.8L933.983,1484.95L933.986,1485.1L933.988,1485.26L933.99,1485.41L933.991,1485.56L933.992,1485.71L933.992,1485.86L933.992,1581.46L933.992,1581.61L933.991,1581.76L933.99,1581.91L933.988,1582.06L933.986,1582.21L933.983,1582.36L933.98,1582.51L933.977,1582.66L933.972,1582.81L933.968,1582.96L933.963,1583.11L933.957,1583.26L933.952,1583.41L933.945,1583.56L933.938,1583.71L933.931,1583.86L933.923,1584.01L933.915,1584.16L933.906,1584.31L933.897,1584.46L933.887,1584.61L933.877,1584.76L933.866,1584.9L933.855,1585.05L933.844,1585.2L933.832,1585.35L933.819,1585.5L933.807,1585.64L933.793,1585.79L933.779,1585.94L933.765,1586.09L933.75,1586.23L933.735,1586.38L933.72,1586.53L933.703,1586.67L933.687,1586.82L933.67,1586.97L933.652,1587.11L933.634,1587.26L933.616,1587.41L933.597,1587.55L933.578,1587.7L933.558,1587.84L933.538,1587.99L933.518,1588.13L933.496,1588.28L933.475,1588.42L933.453,1588.57L933.431,1588.72L933.408,1588.86L933.384,1589.01L933.361,1589.15L933.337,1589.29L933.312,1589.44L933.287,1589.58L933.261,1589.73L933.236,1589.87L933.209,1590.01L933.182,1590.16L933.155,1590.3L933.127,1590.44L933.099,1590.59L933.071,1590.73L933.042,1590.87L933.012,1591.01L932.983,1591.15L932.952,1591.3L932.922,1591.44L932.89,1591.58L932.859,1591.72L932.827,1591.86L932.794,1592.01L932.762,1592.15L932.728,1592.29L932.695,1592.43L932.66,1592.57L932.626,1592.71L932.591,1592.85L932.556,1592.99L932.52,1593.13L932.483,1593.27L932.447,1593.41L932.41,1593.55L932.372,1593.69L932.334,1593.83L932.296,1593.97L932.257,1594.11L932.218,1594.24L932.178,1594.38L932.138,1594.52L932.098,1594.66L932.057,1594.8L932.016,1594.93L931.974,1595.07L931.932,1595.21L931.89,1595.35L931.847,1595.48L931.803,1595.62L931.76,1595.76L931.716,1595.89L931.671,1596.03L931.626,1596.17L931.581,1596.3L931.535,1596.44L931.489,1596.57L931.442,1596.71L931.395,1596.84L931.348,1596.98L931.3,1597.11L931.252,1597.25L931.204,1597.38L931.155,1597.52L931.105,1597.65L931.056,1597.79L931.005,1597.92L930.955,1598.05L930.904,1598.19L930.853,1598.32L930.801,1598.45L930.749,1598.58L930.696,1598.72L930.643,1598.85L930.59,1598.98L930.536,1599.11L930.482,1599.25L930.428,1599.38L930.373,1599.51L930.318,1599.64L930.262,1599.77L930.206,1599.9L930.149,1600.03L930.093,1600.16L930.036,1600.29L929.978,1600.42L929.92,1600.55L929.862,1600.68L929.803,1600.81L929.744,1600.94L929.684,1601.07L929.625,1601.2L929.564,1601.32L929.504,1601.45L929.443,1601.58L929.381,1601.71L929.32,1601.84L929.258,1601.96L929.195,1602.09L929.132,1602.22L929.069,1602.34L929.005,1602.47L928.941,1602.6L928.877,1602.72L928.812,1602.85L928.747,1602.97L928.682,1603.1L928.616,1603.22L928.55,1603.35L928.483,1603.47L928.416,1603.6L928.349,1603.72L928.281,1603.85L928.213,1603.97L928.145,1604.09L928.076,1604.22L928.007,1604.34L927.938,1604.46L927.868,1604.59L927.798,1604.71L927.727,1604.83L927.656,1604.95L927.585,1605.07L927.513,1605.2L927.441,1605.32L927.369,1605.44L927.296,1605.56L927.223,1605.68L927.15,1605.8L927.076,1605.92L927.002,1606.04L926.928,1606.16L926.853,1606.28L926.778,1606.4L926.702,1606.52L926.627,1606.63L926.55,1606.75L926.474,1606.87L926.397,1606.99L926.32,1607.11L926.242,1607.22L926.164,1607.34L926.086,1607.46L926.008,1607.58L925.929,1607.69L925.849,1607.81L925.77,1607.92L925.69,1608.04L925.61,1608.15L925.529,1608.27L925.448,1608.38L925.367,1608.5L925.285,1608.61L925.203,1608.73L925.121,1608.84L925.038,1608.95L924.955,1609.07L924.872,1609.18L924.788,1609.29L924.704,1609.41L924.62,1609.52L924.535,1609.63L924.451,1609.74L924.365,1609.86L924.28,1609.97L924.194,1610.08L924.107,1610.19L924.021,1610.3L923.934,1610.41L923.847,1610.52L923.759,1610.63L923.671,1610.74L923.583,1610.85L923.495,1610.95L923.406,1611.06L923.317,1611.17L923.227,1611.28L923.138,1611.39L923.047,1611.5L922.957,1611.6L922.866,1611.71L922.775,1611.82L922.684,1611.92L922.592,1612.03L922.5,1612.13L922.408,1612.24L922.315,1612.35L922.222,1612.45L922.129,1612.56L922.036,1612.66L921.942,1612.76L921.848,1612.87L921.753,1612.97L921.659,1613.08L921.563,1613.18L921.468,1613.28L921.372,1613.38L921.276,1613.49L921.18,1613.59L921.084,1613.69L920.987,1613.79L920.89,1613.89L920.792,1613.99L920.694,1614.09L920.596,1614.19L920.498,1614.29L920.399,1614.39L920.3,1614.49L920.201,1614.59L920.101,1614.69L920.002,1614.79L919.901,1614.88L919.801,1614.98L919.7,1615.08L919.599,1615.18L919.498,1615.27L919.396,1615.37L919.294,1615.47L919.192,1615.56L919.09,1615.66L918.987,1615.75L918.884,1615.85L918.781,1615.94L918.677,1616.04L918.573,1616.13L918.469,1616.23L918.365,1616.32L918.26,1616.41L918.155,1616.51L918.05,1616.6L917.944,1616.69L917.838,1616.78L917.732,1616.88L917.626,1616.97L917.519,1617.06L917.412,1617.15L917.305,1617.24L917.197,1617.33L917.09,1617.42L916.981,1617.51L916.873,1617.6L916.765,1617.69L916.656,1617.77L916.547,1617.86L916.437,1617.95L916.328,1618.04L916.218,1618.12L916.107,1618.21L915.997,1618.3L915.886,1618.38L915.775,1618.47L915.664,1618.56L915.552,1618.64L915.441,1618.73L915.328,1618.81L915.216,1618.89L915.104,1618.98L914.991,1619.06L914.878,1619.15L914.764,1619.23L914.651,1619.31L914.537,1619.39L914.423,1619.48L914.308,1619.56L914.194,1619.64L914.079,1619.72L913.964,1619.8L913.848,1619.88L913.733,1619.96L913.617,1620.04L913.501,1620.12L913.384,1620.2L913.267,1620.28L913.151,1620.36L913.033,1620.43L912.916,1620.51L912.798,1620.59L912.681,1620.66L912.562,1620.74L912.444,1620.82L912.325,1620.89L912.207,1620.97L912.087,1621.04L911.968,1621.12L911.849,1621.19L911.729,1621.27L911.609,1621.34L911.488,1621.41L911.368,1621.49L911.247,1621.56L911.126,1621.63L911.005,1621.7L910.883,1621.78L910.762,1621.85L910.64,1621.92L910.517,1621.99L910.395,1622.06L910.272,1622.13L910.149,1622.2L910.026,1622.27L909.903,1622.34L909.779,1622.4L909.656,1622.47L909.532,1622.54L909.407,1622.61L909.283,1622.67L909.158,1622.74L909.033,1622.81L908.908,1622.87L908.783,1622.94L908.657,1623L908.531,1623.07L908.405,1623.13L908.279,1623.2L908.153,1623.26L908.026,1623.32L907.899,1623.39L907.772,1623.45L907.645,1623.51L907.517,1623.57L907.389,1623.63L907.261,1623.69L907.133,1623.76L907.005,1623.82L906.876,1623.88L906.747,1623.93L906.618,1623.99L906.489,1624.05L906.36,1624.11L906.23,1624.17L906.1,1624.23L905.97,1624.28L905.84,1624.34L905.709,1624.4L905.579,1624.45L905.448,1624.51L905.317,1624.56L905.185,1624.62L905.054,1624.67L904.922,1624.73L904.79,1624.78L904.658,1624.83L904.526,1624.89L904.393,1624.94L904.261,1624.99L904.128,1625.04L903.995,1625.1L903.861,1625.15L903.728,1625.2L903.594,1625.25L903.46,1625.3L903.326,1625.35L903.192,1625.39L903.058,1625.44L902.923,1625.49L902.788,1625.54L902.653,1625.59L902.518,1625.63L902.383,1625.68L902.247,1625.73L902.111,1625.77L901.975,1625.82L901.839,1625.86L901.703,1625.91L901.566,1625.95L901.43,1625.99L901.293,1626.04L901.156,1626.08L901.019,1626.12L900.881,1626.16L900.744,1626.21L900.606,1626.25L900.468,1626.29L900.33,1626.33L900.192,1626.37L900.053,1626.41L899.914,1626.45L899.776,1626.49L899.637,1626.53L899.498,1626.56L899.358,1626.6L899.219,1626.64L899.079,1626.67L898.939,1626.71L898.799,1626.75L898.659,1626.78L898.519,1626.82L898.378,1626.85L898.238,1626.88L898.097,1626.92L897.956,1626.95L897.815,1626.99L897.673,1627.02L897.532,1627.05L897.39,1627.08L897.248,1627.11L897.106,1627.14L896.964,1627.17L896.822,1627.2L896.68,1627.23L896.537,1627.26L896.394,1627.29L896.251,1627.32L896.108,1627.35L895.965,1627.37L895.822,1627.4L895.678,1627.43L895.534,1627.45L895.391,1627.48L895.247,1627.5L895.102,1627.53L894.958,1627.55L894.814,1627.58L894.669,1627.6L894.524,1627.62L894.38,1627.64L894.235,1627.67L894.089,1627.69L893.944,1627.71L893.799,1627.73L893.653,1627.75L893.507,1627.77L893.361,1627.79L893.215,1627.81L893.069,1627.83L892.923,1627.84L892.777,1627.86L892.63,1627.88L892.483,1627.89L892.336,1627.91L892.19,1627.93L892.042,1627.94L891.895,1627.96L891.748,1627.97L891.6,1627.98L891.453,1628L891.305,1628.01L891.157,1628.02L891.009,1628.04L890.861,1628.05L890.712,1628.06L890.564,1628.07L890.416,1628.08L890.267,1628.09L890.118,1628.1L889.969,1628.11L889.82,1628.11L889.671,1628.12L889.522,1628.13L889.372,1628.14L889.223,1628.14L889.073,1628.15L888.923,1628.15L888.773,1628.16L888.623,1628.16L888.473,1628.17L888.323,1628.17L888.173,1628.17L888.022,1628.18L887.872,1628.18L887.721,1628.18L887.57,1628.18L887.419,1628.18L887.268,1628.18L791.668,1628.18L791.517,1628.18L791.366,1628.18L791.215,1628.18L791.064,1628.18L790.913,1628.18L790.763,1628.17L790.613,1628.17L790.462,1628.17L790.312,1628.16L790.162,1628.16L790.012,1628.15L789.863,1628.15L789.713,1628.14L789.563,1628.14L789.414,1628.13L789.265,1628.12L789.116,1628.11L788.966,1628.11L788.818,1628.1L788.669,1628.09L788.52,1628.08L788.372,1628.07L788.223,1628.06L788.075,1628.05L787.927,1628.04L787.779,1628.02L787.631,1628.01L787.483,1628L787.335,1627.98L787.188,1627.97L787.04,1627.96L786.893,1627.94L786.746,1627.93L786.599,1627.91L786.452,1627.89L786.306,1627.88L786.159,1627.86L786.013,1627.84L785.866,1627.83L785.72,1627.81L785.574,1627.79L785.428,1627.77L785.283,1627.75L785.137,1627.73L784.991,1627.71L784.846,1627.69L784.701,1627.67L784.556,1627.64L784.411,1627.62L784.266,1627.6L784.122,1627.58L783.977,1627.55L783.833,1627.53L783.689,1627.5L783.545,1627.48L783.401,1627.45L783.258,1627.43L783.114,1627.4L782.971,1627.37L782.827,1627.35L782.684,1627.32L782.541,1627.29L782.399,1627.26L782.256,1627.23L782.114,1627.2L781.971,1627.17L781.829,1627.14L781.687,1627.11L781.545,1627.08L781.404,1627.05L781.262,1627.02L781.121,1626.99L780.98,1626.95L780.839,1626.92L780.698,1626.88L780.557,1626.85L780.417,1626.82L780.277,1626.78L780.136,1626.75L779.996,1626.71L779.857,1626.67L779.717,1626.64L779.577,1626.6L779.438,1626.56L779.299,1626.53L779.16,1626.49L779.021,1626.45L778.882,1626.41L778.744,1626.37L778.606,1626.33L778.468,1626.29L778.33,1626.25L778.192,1626.21L778.054,1626.16L777.917,1626.12L777.78,1626.08L777.643,1626.04L777.506,1625.99L777.369,1625.95L777.233,1625.91L777.096,1625.86L776.96,1625.82L776.824,1625.77L776.689,1625.73L776.553,1625.68L776.418,1625.63L776.282,1625.59L776.147,1625.54L776.013,1625.49L775.878,1625.44L775.744,1625.39L775.609,1625.35L775.475,1625.3L775.341,1625.25L775.208,1625.2L775.074,1625.15L774.941,1625.1L774.808,1625.04L774.675,1624.99L774.542,1624.94L774.41,1624.89L774.277,1624.83L774.145,1624.78L774.013,1624.73L773.882,1624.67L773.75,1624.62L773.619,1624.56L773.488,1624.51L773.357,1624.45L773.226,1624.4L773.096,1624.34L772.966,1624.28L772.835,1624.23L772.706,1624.17L772.576,1624.11L772.446,1624.05L772.317,1623.99L772.188,1623.93L772.059,1623.88L771.931,1623.82L771.802,1623.76L771.674,1623.69L771.546,1623.63L771.418,1623.57L771.291,1623.51L771.164,1623.45L771.036,1623.39L770.91,1623.32L770.783,1623.26L770.656,1623.2L770.53,1623.13L770.404,1623.07L770.278,1623L770.153,1622.94L770.027,1622.87L769.902,1622.81L769.777,1622.74L769.653,1622.67L769.528,1622.61L769.404,1622.54L769.28,1622.47L769.156,1622.4L769.033,1622.34L768.909,1622.27L768.786,1622.2L768.663,1622.13L768.541,1622.06L768.418,1621.99L768.296,1621.92L768.174,1621.85L768.052,1621.78L767.931,1621.7L767.81,1621.63L767.689,1621.56L767.568,1621.49L767.447,1621.41L767.327,1621.34L767.207,1621.27L767.087,1621.19L766.968,1621.12L766.848,1621.04L766.729,1620.97L766.61,1620.89L766.492,1620.82L766.373,1620.74L766.255,1620.66L766.137,1620.59L766.02,1620.51L765.902,1620.43L765.785,1620.36L765.668,1620.28L765.551,1620.2L765.435,1620.12L765.319,1620.04L765.203,1619.96L765.087,1619.88L764.972,1619.8L764.857,1619.72L764.742,1619.64L764.627,1619.56L764.513,1619.48L764.399,1619.39L764.285,1619.31L764.171,1619.23L764.058,1619.15L763.945,1619.06L763.832,1618.98L763.719,1618.89L763.607,1618.81L763.495,1618.73L763.383,1618.64L763.272,1618.56L763.16,1618.47L763.049,1618.38L762.939,1618.3L762.828,1618.21L762.718,1618.12L762.608,1618.04L762.498,1617.95L762.389,1617.86L762.28,1617.77L762.171,1617.69L762.062,1617.6L761.954,1617.51L761.846,1617.42L761.738,1617.33L761.631,1617.24L761.524,1617.15L761.417,1617.06L761.31,1616.97L761.204,1616.88L761.097,1616.78L760.992,1616.69L760.886,1616.6L760.781,1616.51L760.676,1616.41L760.571,1616.32L760.466,1616.23L760.362,1616.13L760.258,1616.04L760.155,1615.94L760.052,1615.85L759.948,1615.75L759.846,1615.66L759.743,1615.56L759.641,1615.47L759.539,1615.37L759.438,1615.27L759.336,1615.18L759.235,1615.08L759.135,1614.98L759.034,1614.88L758.934,1614.79L758.834,1614.69L758.735,1614.59L758.635,1614.49L758.536,1614.39L758.438,1614.29L758.339,1614.19L758.241,1614.09L758.144,1613.99L758.046,1613.89L757.949,1613.79L757.852,1613.69L757.755,1613.59L757.659,1613.49L757.563,1613.38L757.467,1613.28L757.372,1613.18L757.277,1613.08L757.182,1612.97L757.088,1612.87L756.994,1612.76L756.9,1612.66L756.806,1612.56L756.713,1612.45L756.62,1612.35L756.528,1612.24L756.435,1612.13L756.343,1612.03L756.252,1611.92L756.16,1611.82L756.069,1611.71L755.979,1611.6L755.888,1611.5L755.798,1611.39L755.708,1611.28L755.619,1611.17L755.53,1611.06L755.441,1610.95L755.352,1610.85L755.264,1610.74L755.176,1610.63L755.089,1610.52L755.002,1610.41L754.915,1610.3L754.828,1610.19L754.742,1610.08L754.656,1609.97L754.57,1609.86L754.485,1609.74L754.4,1609.63L754.316,1609.52L754.231,1609.41L754.147,1609.29L754.064,1609.18L753.98,1609.07L753.897,1608.95L753.815,1608.84L753.733,1608.73L753.651,1608.61L753.569,1608.5L753.488,1608.38L753.407,1608.27L753.326,1608.15L753.246,1608.04L753.166,1607.92L753.086,1607.81L753.007,1607.69L752.928,1607.58L752.849,1607.46L752.771,1607.34L752.693,1607.22L752.616,1607.11L752.539,1606.99L752.462,1606.87L752.385,1606.75L752.309,1606.63L752.233,1606.52L752.158,1606.4L752.083,1606.28L752.008,1606.16L751.933,1606.04L751.859,1605.92L751.786,1605.8L751.712,1605.68L751.639,1605.56L751.567,1605.44L751.494,1605.32L751.422,1605.2L751.351,1605.07L751.279,1604.95L751.208,1604.83L751.138,1604.71L751.068,1604.59L750.998,1604.46L750.928,1604.34L750.859,1604.22L750.791,1604.09L750.722,1603.97L750.654,1603.85L750.587,1603.72L750.519,1603.6L750.452,1603.47L750.386,1603.35L750.32,1603.22L750.254,1603.1L750.188,1602.97L750.123,1602.85L750.059,1602.72L749.994,1602.6L749.93,1602.47L749.867,1602.34L749.803,1602.22L749.741,1602.09L749.678,1601.96L749.616,1601.84L749.554,1601.71L749.493,1601.58L749.432,1601.45L749.371,1601.32L749.311,1601.2L749.251,1601.07L749.192,1600.94L749.133,1600.81L749.074,1600.68L749.016,1600.55L748.958,1600.42L748.9,1600.29L748.843,1600.16L748.786,1600.03L748.73,1599.9L748.674,1599.77L748.618,1599.64L748.563,1599.51L748.508,1599.38L748.453,1599.25L748.399,1599.11L748.346,1598.98L748.292,1598.85L748.239,1598.72L748.187,1598.58L748.135,1598.45L748.083,1598.32L748.032,1598.19L747.981,1598.05L747.93,1597.92L747.88,1597.79L747.83,1597.65L747.781,1597.52L747.732,1597.38L747.683,1597.25L747.635,1597.11L747.588,1596.98L747.54,1596.84L747.493,1596.71L747.447,1596.57L747.4,1596.44L747.355,1596.3L747.309,1596.17L747.264,1596.03L747.22,1595.89L747.176,1595.76L747.132,1595.62L747.089,1595.48L747.046,1595.35L747.003,1595.21L746.961,1595.07L746.92,1594.93L746.878,1594.8L746.838,1594.66L746.797,1594.52L746.757,1594.38L746.718,1594.24L746.678,1594.11L746.64,1593.97L746.601,1593.83L746.563,1593.69L746.526,1593.55L746.489,1593.41L746.452,1593.27L746.416,1593.13L746.38,1592.99L746.345,1592.85L746.31,1592.71L746.275,1592.57L746.241,1592.43L746.207,1592.29L746.174,1592.15L746.141,1592.01L746.109,1591.86L746.077,1591.72L746.045,1591.58L746.014,1591.44L745.983,1591.3L745.953,1591.15L745.923,1591.01L745.894,1590.87L745.865,1590.73L745.836,1590.59L745.808,1590.44L745.78,1590.3L745.753,1590.16L745.726,1590.01L745.7,1589.87L745.674,1589.73L745.649,1589.58L745.624,1589.44L745.599,1589.29L745.575,1589.15L745.551,1589.01L745.528,1588.86L745.505,1588.72L745.483,1588.57L745.461,1588.42L745.439,1588.28L745.418,1588.13L745.397,1587.99L745.377,1587.84L745.358,1587.7L745.338,1587.55L745.32,1587.41L745.301,1587.26L745.283,1587.11L745.266,1586.97L745.249,1586.82L745.232,1586.67L745.216,1586.53L745.2,1586.38L745.185,1586.23L745.171,1586.09L745.156,1585.94L745.142,1585.79L745.129,1585.64L745.116,1585.5L745.104,1585.35L745.092,1585.2L745.08,1585.05L745.069,1584.9L745.059,1584.76L745.048,1584.61L745.039,1584.46L745.03,1584.31L745.021,1584.16L745.012,1584.01L745.005,1583.86L744.997,1583.71L744.99,1583.56L744.984,1583.41L744.978,1583.26L744.973,1583.11L744.968,1582.96L744.963,1582.81L744.959,1582.66L744.956,1582.51L744.952,1582.36L744.95,1582.21L744.948,1582.06L744.946,1581.91L744.945,1581.76L744.944,1581.61L744.944,1581.46L744.944,1485.86L744.944,1485.71L744.945,1485.56L744.946,1485.41L744.948,1485.26L744.95,1485.1L744.952,1484.95L744.956,1484.8L744.959,1484.65L744.963,1484.5L744.968,1484.35L744.973,1484.2L744.978,1484.05L744.984,1483.9L744.99,1483.75L744.997,1483.61L745.005,1483.46L745.012,1483.31L745.021,1483.16L745.03,1483.01L745.039,1482.86L745.048,1482.71L745.059,1482.56L745.069,1482.41L745.08,1482.27L745.092,1482.12L745.104,1481.97L745.116,1481.82L745.129,1481.67L745.142,1481.53L745.156,1481.38L745.171,1481.23L745.185,1481.08L745.2,1480.94L745.216,1480.79L745.232,1480.64L745.249,1480.5L745.266,1480.35L745.283,1480.2L745.301,1480.06L745.32,1479.91L745.338,1479.77L745.358,1479.62L745.377,1479.47L745.397,1479.33L745.418,1479.18L745.439,1479.04L745.461,1478.89L745.483,1478.75L745.505,1478.6L745.528,1478.46L745.551,1478.31L745.575,1478.17L745.599,1478.02L745.624,1477.88L745.649,1477.74L745.674,1477.59L745.7,1477.45L745.726,1477.31L745.753,1477.16L745.78,1477.02L745.808,1476.88L745.836,1476.73L745.865,1476.59L745.894,1476.45L745.923,1476.31L745.953,1476.16L745.983,1476.02L746.014,1475.88L746.045,1475.74L746.077,1475.6L746.109,1475.45L746.141,1475.31L746.174,1475.17L746.207,1475.03L746.241,1474.89L746.275,1474.75L746.31,1474.61L746.345,1474.47L746.38,1474.33L746.416,1474.19L746.452,1474.05L746.489,1473.91L746.526,1473.77L746.563,1473.63L746.601,1473.49L746.64,1473.35L746.678,1473.21L746.718,1473.07L746.757,1472.93L746.797,1472.8L746.838,1472.66L746.878,1472.52L746.92,1472.38L746.961,1472.25L747.003,1472.11L747.046,1471.97L747.089,1471.83L747.132,1471.7L747.176,1471.56L747.22,1471.42L747.264,1471.29L747.309,1471.15L747.355,1471.02L747.4,1470.88L747.447,1470.74L747.493,1470.61L747.54,1470.47L747.588,1470.34L747.635,1470.2L747.683,1470.07L747.732,1469.93L747.781,1469.8L747.83,1469.67L747.88,1469.53L747.93,1469.4L747.981,1469.27L748.032,1469.13L748.083,1469L748.135,1468.87L748.187,1468.73L748.239,1468.6L748.292,1468.47L748.346,1468.34L748.399,1468.2L748.453,1468.07L748.508,1467.94L748.563,1467.81L748.618,1467.68L748.674,1467.55L748.73,1467.42L748.786,1467.29L748.843,1467.16L748.9,1467.03L748.958,1466.9L749.016,1466.77L749.074,1466.64L749.133,1466.51L749.192,1466.38L749.251,1466.25L749.311,1466.12L749.371,1465.99L749.432,1465.87L749.493,1465.74L749.554,1465.61L749.616,1465.48L749.678,1465.35L749.741,1465.23L749.803,1465.1L749.867,1464.97L749.93,1464.85L749.994,1464.72L750.059,1464.6L750.123,1464.47L750.188,1464.34L750.254,1464.22L750.32,1464.09L750.386,1463.97L750.452,1463.84L750.519,1463.72L750.587,1463.6L750.654,1463.47L750.722,1463.35L750.791,1463.22L750.859,1463.1L750.928,1462.98L750.998,1462.85L751.068,1462.73L751.138,1462.61L751.208,1462.49L751.279,1462.37L751.351,1462.24L751.422,1462.12L751.494,1462L751.567,1461.88L751.639,1461.76L751.712,1461.64L751.786,1461.52L751.859,1461.4L751.933,1461.28L752.008,1461.16L752.083,1461.04L752.158,1460.92L752.233,1460.8L752.309,1460.68L752.385,1460.56L752.462,1460.45L752.539,1460.33L752.616,1460.21L752.693,1460.09L752.771,1459.98L752.849,1459.86L752.928,1459.74L753.007,1459.63L753.086,1459.51L753.166,1459.39L753.246,1459.28L753.326,1459.16L753.407,1459.05L753.488,1458.93L753.569,1458.82L753.651,1458.7L753.733,1458.59L753.815,1458.48L753.897,1458.36L753.98,1458.25L754.064,1458.14L754.147,1458.02L754.231,1457.91L754.316,1457.8L754.4,1457.69L754.485,1457.57L754.57,1457.46L754.656,1457.35L754.742,1457.24L754.828,1457.13L754.915,1457.02L755.002,1456.91L755.089,1456.8L755.176,1456.69L755.264,1456.58L755.352,1456.47L755.441,1456.36L755.53,1456.25L755.619,1456.14L755.708,1456.04L755.798,1455.93L755.888,1455.82L755.979,1455.71L756.069,1455.61L756.16,1455.5L756.252,1455.39L756.343,1455.29L756.435,1455.18L756.528,1455.08L756.62,1454.97L756.713,1454.87L756.806,1454.76L756.9,1454.66L756.994,1454.55L757.088,1454.45L757.182,1454.35L757.277,1454.24L757.372,1454.14L757.467,1454.04L757.563,1453.93L757.659,1453.83L757.755,1453.73L757.852,1453.63L757.949,1453.53L758.046,1453.43L758.144,1453.33L758.241,1453.23L758.339,1453.12L758.438,1453.03L758.536,1452.93L758.635,1452.83L758.735,1452.73L758.834,1452.63L758.934,1452.53L759.034,1452.43L759.135,1452.33L759.235,1452.24L759.336,1452.14L759.438,1452.04L759.539,1451.95L759.641,1451.85L759.743,1451.75L759.846,1451.66L759.948,1451.56L760.052,1451.47L760.155,1451.37L760.258,1451.28L760.362,1451.18L760.466,1451.09L760.571,1451L760.676,1450.9L760.781,1450.81L760.886,1450.72L760.992,1450.63L761.097,1450.53L761.204,1450.44L761.31,1450.35L761.417,1450.26L761.524,1450.17L761.631,1450.08L761.738,1449.99L761.846,1449.9L761.954,1449.81L762.062,1449.72L762.171,1449.63L762.28,1449.54L762.389,1449.45L762.498,1449.37L762.608,1449.28L762.718,1449.19L762.828,1449.11L762.939,1449.02L763.049,1448.93L763.16,1448.85L763.272,1448.76L763.383,1448.68L763.495,1448.59L763.607,1448.51L763.719,1448.42L763.832,1448.34L763.945,1448.26L764.058,1448.17L764.171,1448.09L764.285,1448.01L764.399,1447.92L764.513,1447.84L764.627,1447.76L764.742,1447.68L764.857,1447.6L764.972,1447.52L765.087,1447.44L765.203,1447.36L765.319,1447.28L765.435,1447.2L765.551,1447.12L765.668,1447.04L765.785,1446.96L765.902,1446.88L766.02,1446.81L766.137,1446.73L766.255,1446.65L766.373,1446.58L766.492,1446.5L766.61,1446.42L766.729,1446.35L766.848,1446.27L766.968,1446.2L767.087,1446.12L767.207,1446.05L767.327,1445.98L767.447,1445.9L767.568,1445.83L767.689,1445.76L767.81,1445.68L767.931,1445.61L768.052,1445.54L768.174,1445.47L768.296,1445.4L768.418,1445.33L768.541,1445.26L768.663,1445.19L768.786,1445.12L768.909,1445.05L769.033,1444.98L769.156,1444.91L769.28,1444.85L769.404,1444.78L769.528,1444.71L769.653,1444.64L769.777,1444.58L769.902,1444.51L770.027,1444.44L770.153,1444.38L770.278,1444.31L770.404,1444.25L770.53,1444.18L770.656,1444.12L770.783,1444.06L770.91,1443.99L771.036,1443.93L771.164,1443.87L771.291,1443.81L771.418,1443.75L771.546,1443.68L771.674,1443.62L771.802,1443.56L771.931,1443.5L772.059,1443.44L772.188,1443.38L772.317,1443.32L772.446,1443.27L772.576,1443.21L772.706,1443.15L772.835,1443.09L772.966,1443.03L773.096,1442.98L773.226,1442.92L773.357,1442.87L773.488,1442.81L773.619,1442.75L773.75,1442.7L773.882,1442.64L774.013,1442.59L774.145,1442.54L774.277,1442.48L774.41,1442.43L774.542,1442.38L774.675,1442.33L774.808,1442.27L774.941,1442.22L775.074,1442.17L775.208,1442.12L775.341,1442.07L775.475,1442.02L775.609,1441.97L775.744,1441.92L775.878,1441.87L776.013,1441.83L776.147,1441.78L776.282,1441.73L776.418,1441.68L776.553,1441.64L776.689,1441.59L776.824,1441.55L776.96,1441.5L777.096,1441.45L777.233,1441.41L777.369,1441.37L777.506,1441.32L777.643,1441.28L777.78,1441.24L777.917,1441.19L778.054,1441.15L778.192,1441.11L778.33,1441.07L778.468,1441.03L778.606,1440.99L778.744,1440.95L778.882,1440.91L779.021,1440.87L779.16,1440.83L779.299,1440.79L779.438,1440.75L779.577,1440.72L779.717,1440.68L779.857,1440.64L779.996,1440.61L780.136,1440.57L780.277,1440.54L780.417,1440.5L780.557,1440.47L780.698,1440.43L780.839,1440.4L780.98,1440.37L781.121,1440.33L781.262,1440.3L781.404,1440.27L781.545,1440.24L781.687,1440.2L781.829,1440.17L781.971,1440.14L782.114,1440.11L782.256,1440.09L782.399,1440.06L782.541,1440.03L782.684,1440L782.827,1439.97L782.971,1439.94L783.114,1439.92L783.258,1439.89L783.401,1439.87L783.545,1439.84L783.689,1439.81L783.833,1439.79L783.977,1439.77L784.122,1439.74L784.266,1439.72L784.411,1439.7L784.556,1439.67L784.701,1439.65L784.846,1439.63L784.991,1439.61L785.137,1439.59L785.283,1439.57L785.428,1439.55L785.574,1439.53L785.72,1439.51L785.866,1439.49L786.013,1439.47L786.159,1439.46L786.306,1439.44L786.452,1439.42L786.599,1439.41L786.746,1439.39L786.893,1439.38L787.04,1439.36L787.188,1439.35L787.335,1439.33L787.483,1439.32L787.631,1439.31L787.779,1439.3L787.927,1439.28L788.075,1439.27L788.223,1439.26L788.372,1439.25L788.52,1439.24L788.669,1439.23L788.818,1439.22L788.966,1439.21L789.116,1439.2L789.265,1439.2L789.414,1439.19L789.563,1439.18L789.713,1439.17L789.863,1439.17L790.012,1439.16L790.162,1439.16L790.312,1439.15L790.462,1439.15L790.613,1439.15L790.763,1439.14L790.913,1439.14L791.064,1439.14L791.215,1439.14L791.366,1439.14L791.517,1439.13L791.668,1439.13L887.268,1439.13L887.419,1439.13ZM791.673,1446.11L791.539,1446.11L791.41,1446.11L791.281,1446.11L791.153,1446.11L791.024,1446.11L790.896,1446.11L790.767,1446.12L790.639,1446.12L790.511,1446.12L790.383,1446.13L790.255,1446.13L790.128,1446.14L790,1446.14L789.873,1446.15L789.745,1446.15L789.618,1446.16L789.491,1446.16L789.364,1446.17L789.237,1446.18L789.11,1446.19L788.984,1446.2L788.857,1446.2L788.731,1446.21L788.605,1446.22L788.478,1446.23L788.352,1446.24L788.226,1446.25L788.101,1446.26L787.975,1446.28L787.849,1446.29L787.724,1446.3L787.599,1446.31L787.473,1446.33L787.348,1446.34L787.223,1446.35L787.098,1446.37L786.974,1446.38L786.849,1446.39L786.725,1446.41L786.6,1446.43L786.476,1446.44L786.352,1446.46L786.228,1446.48L786.104,1446.49L785.981,1446.51L785.857,1446.53L785.734,1446.55L785.61,1446.57L785.487,1446.58L785.364,1446.6L785.241,1446.62L785.118,1446.64L784.996,1446.66L784.873,1446.68L784.751,1446.71L784.628,1446.73L784.506,1446.75L784.384,1446.77L784.262,1446.8L784.141,1446.82L784.019,1446.84L783.898,1446.87L783.776,1446.89L783.655,1446.91L783.534,1446.94L783.413,1446.96L783.292,1446.99L783.172,1447.02L783.051,1447.04L782.931,1447.07L782.811,1447.1L782.691,1447.12L782.571,1447.15L782.451,1447.18L782.331,1447.21L782.212,1447.24L782.092,1447.27L781.973,1447.3L781.854,1447.33L781.735,1447.36L781.616,1447.39L781.498,1447.42L781.379,1447.45L781.261,1447.48L781.143,1447.52L781.025,1447.55L780.907,1447.58L780.789,1447.62L780.671,1447.65L780.554,1447.68L780.436,1447.72L780.319,1447.75L780.202,1447.79L780.085,1447.82L779.969,1447.86L779.852,1447.89L779.736,1447.93L779.619,1447.97L779.503,1448L779.387,1448.04L779.272,1448.08L779.156,1448.12L779.04,1448.16L778.925,1448.19L778.81,1448.23L778.695,1448.27L778.58,1448.31L778.465,1448.35L778.351,1448.39L778.236,1448.43L778.122,1448.48L778.008,1448.52L777.894,1448.56L777.78,1448.6L777.667,1448.64L777.553,1448.69L777.44,1448.73L777.327,1448.78L777.214,1448.82L777.101,1448.86L776.989,1448.91L776.876,1448.95L776.764,1449L776.652,1449.04L776.54,1449.09L776.428,1449.14L776.317,1449.18L776.205,1449.23L776.094,1449.28L775.983,1449.32L775.872,1449.37L775.761,1449.42L775.651,1449.47L775.54,1449.52L775.43,1449.57L775.32,1449.62L775.21,1449.67L775.101,1449.72L774.991,1449.77L774.882,1449.82L774.773,1449.87L774.664,1449.92L774.555,1449.97L774.446,1450.03L774.338,1450.08L774.23,1450.13L774.122,1450.18L774.014,1450.24L773.906,1450.29L773.798,1450.35L773.691,1450.4L773.584,1450.45L773.477,1450.51L773.37,1450.56L773.263,1450.62L773.157,1450.68L773.051,1450.73L772.945,1450.79L772.839,1450.85L772.733,1450.9L772.628,1450.96L772.522,1451.02L772.417,1451.08L772.312,1451.13L772.208,1451.19L772.103,1451.25L771.999,1451.31L771.895,1451.37L771.791,1451.43L771.687,1451.49L771.584,1451.55L771.48,1451.61L771.377,1451.67L771.274,1451.74L771.171,1451.8L771.069,1451.86L770.966,1451.92L770.864,1451.99L770.762,1452.05L770.66,1452.11L770.559,1452.18L770.458,1452.24L770.356,1452.3L770.255,1452.37L770.155,1452.43L770.054,1452.5L769.954,1452.56L769.854,1452.63L769.754,1452.69L769.654,1452.76L769.555,1452.83L769.455,1452.89L769.356,1452.96L769.257,1453.03L769.159,1453.1L769.06,1453.17L768.962,1453.23L768.864,1453.3L768.766,1453.37L768.669,1453.44L768.571,1453.51L768.474,1453.58L768.377,1453.65L768.28,1453.72L768.184,1453.79L768.088,1453.86L767.991,1453.93L767.896,1454.01L767.8,1454.08L767.704,1454.15L767.609,1454.22L767.514,1454.29L767.42,1454.37L767.325,1454.44L767.231,1454.51L767.137,1454.59L767.043,1454.66L766.949,1454.74L766.856,1454.81L766.763,1454.88L766.67,1454.96L766.577,1455.04L766.484,1455.11L766.392,1455.19L766.3,1455.26L766.208,1455.34L766.117,1455.42L766.025,1455.49L765.934,1455.57L765.843,1455.65L765.753,1455.73L765.662,1455.8L765.572,1455.88L765.482,1455.96L765.393,1456.04L765.303,1456.12L765.214,1456.2L765.125,1456.28L765.036,1456.36L764.948,1456.44L764.86,1456.52L764.772,1456.6L764.684,1456.68L764.596,1456.76L764.509,1456.84L764.422,1456.92L764.335,1457.01L764.249,1457.09L764.162,1457.17L764.076,1457.25L763.99,1457.34L763.905,1457.42L763.82,1457.5L763.735,1457.59L763.65,1457.67L763.565,1457.76L763.481,1457.84L763.397,1457.92L763.313,1458.01L763.229,1458.1L763.146,1458.18L763.063,1458.27L762.98,1458.35L762.898,1458.44L762.815,1458.53L762.734,1458.61L762.652,1458.7L762.57,1458.79L762.489,1458.88L762.408,1458.96L762.327,1459.05L762.247,1459.14L762.167,1459.23L762.087,1459.32L762.007,1459.4L761.928,1459.49L761.849,1459.58L761.77,1459.67L761.691,1459.76L761.613,1459.85L761.535,1459.94L761.457,1460.03L761.379,1460.12L761.302,1460.22L761.225,1460.31L761.148,1460.4L761.072,1460.49L760.996,1460.58L760.92,1460.67L760.844,1460.77L760.769,1460.86L760.694,1460.95L760.619,1461.05L760.544,1461.14L760.47,1461.23L760.396,1461.33L760.322,1461.42L760.249,1461.52L760.176,1461.61L760.103,1461.7L760.03,1461.8L759.958,1461.89L759.886,1461.99L759.814,1462.09L759.742,1462.18L759.671,1462.28L759.6,1462.38L759.53,1462.47L759.459,1462.57L759.389,1462.66L759.319,1462.76L759.25,1462.86L759.181,1462.96L759.112,1463.06L759.043,1463.15L758.975,1463.25L758.907,1463.35L758.839,1463.45L758.772,1463.55L758.704,1463.65L758.637,1463.75L758.571,1463.85L758.505,1463.94L758.439,1464.05L758.373,1464.14L758.307,1464.25L758.242,1464.35L758.178,1464.45L758.113,1464.55L758.049,1464.65L757.985,1464.75L757.921,1464.85L757.858,1464.95L757.795,1465.06L757.732,1465.16L757.67,1465.26L757.607,1465.36L757.546,1465.46L757.484,1465.57L757.423,1465.67L757.362,1465.77L757.301,1465.88L757.241,1465.98L757.181,1466.09L757.121,1466.19L757.062,1466.29L757.003,1466.4L756.944,1466.5L756.886,1466.61L756.827,1466.71L756.77,1466.82L756.712,1466.92L756.655,1467.03L756.598,1467.14L756.541,1467.24L756.485,1467.35L756.429,1467.45L756.373,1467.56L756.318,1467.67L756.263,1467.78L756.208,1467.88L756.154,1467.99L756.1,1468.1L756.046,1468.2L755.993,1468.31L755.939,1468.42L755.887,1468.53L755.834,1468.64L755.782,1468.75L755.73,1468.86L755.679,1468.96L755.627,1469.07L755.577,1469.18L755.526,1469.29L755.476,1469.4L755.426,1469.51L755.376,1469.62L755.327,1469.73L755.278,1469.84L755.229,1469.95L755.181,1470.06L755.133,1470.17L755.086,1470.29L755.038,1470.4L754.991,1470.51L754.945,1470.62L754.898,1470.73L754.853,1470.84L754.807,1470.95L754.762,1471.07L754.717,1471.18L754.672,1471.29L754.628,1471.4L754.584,1471.52L754.54,1471.63L754.497,1471.74L754.454,1471.86L754.411,1471.97L754.369,1472.09L754.327,1472.2L754.285,1472.31L754.244,1472.43L754.203,1472.54L754.163,1472.66L754.122,1472.77L754.083,1472.89L754.043,1473L754.004,1473.12L753.965,1473.23L753.926,1473.35L753.888,1473.46L753.85,1473.58L753.813,1473.69L753.776,1473.81L753.739,1473.93L753.703,1474.04L753.666,1474.16L753.631,1474.28L753.595,1474.39L753.56,1474.51L753.526,1474.63L753.491,1474.75L753.457,1474.86L753.424,1474.98L753.39,1475.1L753.357,1475.21L753.325,1475.33L753.293,1475.45L753.261,1475.57L753.229,1475.69L753.198,1475.81L753.167,1475.93L753.137,1476.05L753.107,1476.16L753.077,1476.28L753.048,1476.4L753.019,1476.52L752.99,1476.64L752.962,1476.76L752.934,1476.88L752.906,1477L752.879,1477.12L752.852,1477.24L752.826,1477.36L752.8,1477.48L752.774,1477.6L752.749,1477.73L752.724,1477.85L752.699,1477.97L752.675,1478.09L752.651,1478.21L752.627,1478.33L752.604,1478.45L752.581,1478.58L752.559,1478.7L752.537,1478.82L752.515,1478.94L752.494,1479.06L752.473,1479.19L752.453,1479.31L752.432,1479.43L752.413,1479.56L752.393,1479.68L752.374,1479.8L752.356,1479.92L752.337,1480.05L752.319,1480.17L752.302,1480.3L752.285,1480.42L752.268,1480.54L752.251,1480.67L752.235,1480.79L752.22,1480.92L752.205,1481.04L752.19,1481.16L752.175,1481.29L752.161,1481.41L752.147,1481.54L752.134,1481.66L752.121,1481.79L752.109,1481.91L752.097,1482.04L752.085,1482.17L752.073,1482.29L752.062,1482.42L752.052,1482.54L752.042,1482.67L752.032,1482.8L752.022,1482.92L752.013,1483.05L752.005,1483.17L751.996,1483.3L751.989,1483.43L751.981,1483.56L751.974,1483.68L751.967,1483.81L751.961,1483.94L751.955,1484.06L751.95,1484.19L751.945,1484.32L751.94,1484.45L751.936,1484.57L751.932,1484.7L751.929,1484.83L751.926,1484.96L751.923,1485.09L751.921,1485.21L751.919,1485.34L751.917,1485.47L751.916,1485.6L751.916,1485.73L751.916,1485.86L751.916,1581.45L751.916,1581.59L751.916,1581.72L751.917,1581.85L751.919,1581.97L751.921,1582.1L751.923,1582.23L751.926,1582.36L751.929,1582.49L751.932,1582.62L751.936,1582.74L751.94,1582.87L751.945,1583L751.95,1583.13L751.955,1583.25L751.961,1583.38L751.967,1583.51L751.974,1583.63L751.981,1583.76L751.989,1583.89L751.996,1584.02L752.005,1584.14L752.013,1584.27L752.022,1584.4L752.032,1584.52L752.042,1584.65L752.052,1584.77L752.062,1584.9L752.073,1585.03L752.085,1585.15L752.097,1585.28L752.109,1585.4L752.121,1585.53L752.134,1585.65L752.147,1585.78L752.161,1585.9L752.175,1586.03L752.19,1586.15L752.205,1586.28L752.22,1586.4L752.235,1586.53L752.252,1586.65L752.268,1586.77L752.285,1586.9L752.302,1587.02L752.319,1587.15L752.337,1587.27L752.356,1587.39L752.374,1587.52L752.393,1587.64L752.413,1587.76L752.432,1587.88L752.453,1588.01L752.473,1588.13L752.494,1588.25L752.515,1588.38L752.537,1588.5L752.559,1588.62L752.581,1588.74L752.604,1588.86L752.627,1588.99L752.651,1589.11L752.675,1589.23L752.699,1589.35L752.724,1589.47L752.749,1589.59L752.774,1589.71L752.8,1589.83L752.826,1589.95L752.852,1590.08L752.879,1590.19L752.906,1590.32L752.934,1590.44L752.962,1590.56L752.99,1590.68L753.019,1590.8L753.048,1590.91L753.077,1591.03L753.107,1591.15L753.137,1591.27L753.167,1591.39L753.198,1591.51L753.229,1591.63L753.261,1591.75L753.293,1591.87L753.325,1591.98L753.357,1592.1L753.39,1592.22L753.424,1592.34L753.457,1592.45L753.491,1592.57L753.526,1592.69L753.56,1592.81L753.595,1592.92L753.631,1593.04L753.667,1593.16L753.703,1593.27L753.739,1593.39L753.776,1593.51L753.813,1593.62L753.85,1593.74L753.888,1593.86L753.926,1593.97L753.965,1594.09L754.004,1594.2L754.043,1594.32L754.083,1594.43L754.122,1594.55L754.163,1594.66L754.203,1594.78L754.244,1594.89L754.285,1595L754.327,1595.12L754.369,1595.23L754.411,1595.35L754.454,1595.46L754.497,1595.57L754.54,1595.69L754.584,1595.8L754.628,1595.91L754.672,1596.03L754.717,1596.14L754.762,1596.25L754.807,1596.36L754.853,1596.47L754.898,1596.59L754.945,1596.7L754.991,1596.81L755.038,1596.92L755.086,1597.03L755.133,1597.14L755.181,1597.25L755.23,1597.37L755.278,1597.48L755.327,1597.59L755.376,1597.7L755.426,1597.81L755.476,1597.92L755.526,1598.03L755.577,1598.13L755.627,1598.25L755.679,1598.35L755.73,1598.46L755.782,1598.57L755.834,1598.68L755.887,1598.79L755.939,1598.9L755.993,1599.01L756.046,1599.11L756.1,1599.22L756.154,1599.33L756.208,1599.43L756.263,1599.54L756.318,1599.65L756.373,1599.76L756.429,1599.86L756.485,1599.97L756.541,1600.08L756.598,1600.18L756.655,1600.29L756.712,1600.39L756.77,1600.5L756.827,1600.6L756.886,1600.71L756.944,1600.81L757.003,1600.92L757.062,1601.02L757.121,1601.13L757.181,1601.23L757.241,1601.34L757.301,1601.44L757.362,1601.54L757.423,1601.65L757.484,1601.75L757.546,1601.85L757.607,1601.95L757.67,1602.06L757.732,1602.16L757.795,1602.26L757.858,1602.36L757.921,1602.47L757.985,1602.57L758.049,1602.67L758.113,1602.77L758.178,1602.87L758.242,1602.97L758.307,1603.07L758.373,1603.17L758.439,1603.27L758.505,1603.37L758.571,1603.47L758.637,1603.57L758.704,1603.67L758.772,1603.77L758.839,1603.87L758.907,1603.97L758.975,1604.07L759.043,1604.16L759.112,1604.26L759.181,1604.36L759.25,1604.46L759.319,1604.56L759.389,1604.65L759.459,1604.75L759.53,1604.85L759.6,1604.94L759.671,1605.04L759.742,1605.13L759.814,1605.23L759.886,1605.33L759.958,1605.42L760.03,1605.52L760.103,1605.61L760.176,1605.71L760.249,1605.8L760.322,1605.9L760.396,1605.99L760.47,1606.08L760.544,1606.18L760.619,1606.27L760.694,1606.36L760.769,1606.46L760.844,1606.55L760.92,1606.64L760.996,1606.73L761.072,1606.83L761.148,1606.92L761.225,1607.01L761.302,1607.1L761.379,1607.19L761.457,1607.28L761.535,1607.37L761.613,1607.46L761.691,1607.55L761.77,1607.64L761.849,1607.73L761.928,1607.82L762.007,1607.91L762.087,1608L762.167,1608.09L762.247,1608.18L762.327,1608.27L762.408,1608.36L762.489,1608.44L762.57,1608.53L762.652,1608.62L762.733,1608.7L762.815,1608.79L762.898,1608.88L762.98,1608.96L763.063,1609.05L763.146,1609.14L763.229,1609.22L763.313,1609.31L763.397,1609.39L763.481,1609.48L763.565,1609.56L763.65,1609.65L763.735,1609.73L763.82,1609.81L763.905,1609.9L763.991,1609.98L764.076,1610.06L764.162,1610.15L764.249,1610.23L764.335,1610.31L764.422,1610.39L764.509,1610.48L764.596,1610.56L764.684,1610.64L764.772,1610.72L764.86,1610.8L764.948,1610.88L765.036,1610.96L765.125,1611.04L765.214,1611.12L765.303,1611.2L765.393,1611.28L765.482,1611.36L765.572,1611.43L765.663,1611.51L765.753,1611.59L765.843,1611.67L765.934,1611.75L766.025,1611.82L766.117,1611.9L766.208,1611.98L766.3,1612.06L766.392,1612.13L766.484,1612.21L766.577,1612.28L766.67,1612.36L766.763,1612.43L766.856,1612.51L766.949,1612.58L767.043,1612.66L767.136,1612.73L767.231,1612.8L767.325,1612.88L767.42,1612.95L767.514,1613.02L767.609,1613.1L767.705,1613.17L767.8,1613.24L767.895,1613.31L767.991,1613.38L768.087,1613.45L768.184,1613.53L768.28,1613.6L768.377,1613.67L768.474,1613.74L768.571,1613.81L768.669,1613.88L768.766,1613.95L768.864,1614.02L768.962,1614.08L769.06,1614.15L769.159,1614.22L769.257,1614.29L769.356,1614.36L769.455,1614.42L769.555,1614.49L769.654,1614.56L769.754,1614.62L769.854,1614.69L769.954,1614.75L770.054,1614.82L770.155,1614.88L770.255,1614.95L770.357,1615.01L770.458,1615.08L770.559,1615.14L770.661,1615.2L770.762,1615.27L770.864,1615.33L770.966,1615.39L771.069,1615.46L771.171,1615.52L771.274,1615.58L771.377,1615.64L771.48,1615.7L771.584,1615.77L771.687,1615.83L771.791,1615.88L771.895,1615.94L771.999,1616.01L772.103,1616.07L772.208,1616.12L772.312,1616.18L772.417,1616.24L772.522,1616.3L772.628,1616.36L772.733,1616.41L772.839,1616.47L772.945,1616.53L773.051,1616.59L773.157,1616.64L773.263,1616.7L773.37,1616.75L773.477,1616.81L773.584,1616.86L773.691,1616.92L773.798,1616.97L773.906,1617.03L774.014,1617.08L774.122,1617.13L774.23,1617.19L774.338,1617.24L774.446,1617.29L774.555,1617.35L774.664,1617.4L774.773,1617.45L774.882,1617.5L774.991,1617.55L775.101,1617.6L775.21,1617.65L775.32,1617.7L775.43,1617.75L775.541,1617.8L775.651,1617.85L775.761,1617.9L775.872,1617.94L775.983,1617.99L776.094,1618.04L776.206,1618.09L776.317,1618.13L776.428,1618.18L776.54,1618.23L776.652,1618.27L776.764,1618.32L776.876,1618.37L776.989,1618.41L777.101,1618.45L777.214,1618.5L777.327,1618.54L777.44,1618.59L777.553,1618.63L777.667,1618.67L777.781,1618.72L777.894,1618.76L778.008,1618.8L778.122,1618.84L778.237,1618.88L778.351,1618.92L778.465,1618.96L778.58,1619L778.695,1619.04L778.81,1619.08L778.925,1619.12L779.04,1619.16L779.156,1619.2L779.271,1619.24L779.387,1619.28L779.503,1619.31L779.619,1619.35L779.736,1619.39L779.852,1619.42L779.969,1619.46L780.085,1619.5L780.202,1619.53L780.319,1619.57L780.436,1619.6L780.554,1619.63L780.671,1619.67L780.789,1619.7L780.907,1619.74L781.024,1619.77L781.143,1619.8L781.261,1619.83L781.379,1619.87L781.498,1619.9L781.616,1619.93L781.735,1619.96L781.854,1619.99L781.973,1620.02L782.092,1620.05L782.212,1620.08L782.331,1620.11L782.451,1620.14L782.571,1620.16L782.691,1620.19L782.811,1620.22L782.931,1620.25L783.051,1620.27L783.172,1620.3L783.293,1620.33L783.413,1620.35L783.534,1620.38L783.655,1620.4L783.776,1620.43L783.898,1620.45L784.019,1620.48L784.141,1620.5L784.263,1620.52L784.385,1620.55L784.506,1620.57L784.628,1620.59L784.751,1620.61L784.873,1620.63L784.996,1620.65L785.118,1620.67L785.241,1620.69L785.364,1620.71L785.487,1620.73L785.61,1620.75L785.734,1620.77L785.857,1620.79L785.98,1620.81L786.104,1620.83L786.228,1620.84L786.352,1620.86L786.476,1620.88L786.6,1620.89L786.725,1620.91L786.849,1620.92L786.974,1620.94L787.098,1620.95L787.223,1620.97L787.348,1620.98L787.473,1620.99L787.598,1621.01L787.724,1621.02L787.849,1621.03L787.975,1621.04L788.101,1621.05L788.226,1621.06L788.352,1621.08L788.478,1621.09L788.605,1621.1L788.731,1621.1L788.857,1621.11L788.984,1621.12L789.11,1621.13L789.237,1621.14L789.364,1621.14L789.491,1621.15L789.618,1621.16L789.745,1621.16L789.873,1621.17L790,1621.18L790.128,1621.18L790.256,1621.19L790.383,1621.19L790.511,1621.19L790.639,1621.2L790.767,1621.2L790.896,1621.2L791.024,1621.21L791.152,1621.21L791.281,1621.21L791.41,1621.21L791.539,1621.21L791.673,1621.21L887.263,1621.21L887.397,1621.21L887.526,1621.21L887.655,1621.21L887.783,1621.21L887.912,1621.21L888.04,1621.2L888.168,1621.2L888.297,1621.2L888.424,1621.19L888.552,1621.19L888.68,1621.19L888.808,1621.18L888.935,1621.18L889.063,1621.17L889.19,1621.16L889.317,1621.16L889.445,1621.15L889.572,1621.14L889.699,1621.14L889.825,1621.13L889.952,1621.12L890.078,1621.11L890.205,1621.1L890.331,1621.1L890.457,1621.09L890.583,1621.08L890.709,1621.06L890.835,1621.05L890.961,1621.04L891.086,1621.03L891.212,1621.02L891.337,1621.01L891.462,1620.99L891.587,1620.98L891.713,1620.97L891.837,1620.95L891.962,1620.94L892.087,1620.92L892.211,1620.91L892.335,1620.89L892.459,1620.88L892.584,1620.86L892.707,1620.84L892.831,1620.83L892.955,1620.81L893.078,1620.79L893.202,1620.77L893.326,1620.75L893.449,1620.73L893.571,1620.71L893.694,1620.69L893.817,1620.67L893.94,1620.65L894.063,1620.63L894.185,1620.61L894.307,1620.59L894.429,1620.57L894.551,1620.55L894.673,1620.52L894.795,1620.5L894.917,1620.48L895.038,1620.45L895.159,1620.43L895.281,1620.4L895.401,1620.38L895.522,1620.35L895.643,1620.33L895.764,1620.3L895.884,1620.27L896.005,1620.25L896.125,1620.22L896.245,1620.19L896.365,1620.16L896.485,1620.14L896.604,1620.11L896.724,1620.08L896.843,1620.05L896.963,1620.02L897.082,1619.99L897.2,1619.96L897.319,1619.93L897.438,1619.9L897.557,1619.87L897.675,1619.83L897.793,1619.8L897.911,1619.77L898.029,1619.74L898.147,1619.7L898.265,1619.67L898.382,1619.63L898.499,1619.6L898.616,1619.57L898.733,1619.53L898.85,1619.5L898.967,1619.46L899.083,1619.42L899.2,1619.39L899.316,1619.35L899.432,1619.31L899.548,1619.28L899.664,1619.24L899.78,1619.2L899.895,1619.16L900.01,1619.12L900.126,1619.08L900.241,1619.04L900.356,1619L900.47,1618.96L900.585,1618.92L900.699,1618.88L900.814,1618.84L900.928,1618.8L901.041,1618.76L901.155,1618.72L901.269,1618.67L901.382,1618.63L901.495,1618.59L901.608,1618.54L901.721,1618.5L901.834,1618.45L901.947,1618.41L902.059,1618.37L902.172,1618.32L902.284,1618.27L902.395,1618.23L902.507,1618.18L902.619,1618.13L902.73,1618.09L902.841,1618.04L902.953,1617.99L903.063,1617.94L903.174,1617.9L903.285,1617.85L903.395,1617.8L903.505,1617.75L903.615,1617.7L903.725,1617.65L903.835,1617.6L903.944,1617.55L904.054,1617.5L904.163,1617.45L904.272,1617.4L904.38,1617.35L904.489,1617.29L904.598,1617.24L904.706,1617.19L904.814,1617.13L904.922,1617.08L905.03,1617.03L905.137,1616.97L905.245,1616.92L905.352,1616.86L905.459,1616.81L905.566,1616.75L905.672,1616.7L905.778,1616.64L905.885,1616.59L905.991,1616.53L906.097,1616.47L906.202,1616.41L906.308,1616.36L906.413,1616.3L906.518,1616.24L906.623,1616.18L906.728,1616.12L906.832,1616.07L906.936,1616.01L907.041,1615.94L907.145,1615.88L907.248,1615.83L907.352,1615.77L907.455,1615.7L907.559,1615.64L907.662,1615.58L907.764,1615.52L907.867,1615.46L907.969,1615.39L908.072,1615.33L908.173,1615.27L908.275,1615.2L908.377,1615.14L908.478,1615.08L908.579,1615.01L908.68,1614.95L908.781,1614.88L908.882,1614.82L908.982,1614.75L909.082,1614.69L909.182,1614.62L909.281,1614.56L909.381,1614.49L909.48,1614.42L909.58,1614.36L909.678,1614.29L909.777,1614.22L909.875,1614.15L909.973,1614.08L910.072,1614.02L910.17,1613.95L910.267,1613.88L910.364,1613.81L910.462,1613.74L910.559,1613.67L910.655,1613.6L910.752,1613.53L910.848,1613.45L910.944,1613.38L911.04,1613.31L911.136,1613.24L911.231,1613.17L911.326,1613.1L911.421,1613.02L911.516,1612.95L911.61,1612.88L911.705,1612.8L911.799,1612.73L911.893,1612.66L911.986,1612.58L912.08,1612.51L912.173,1612.43L912.266,1612.36L912.359,1612.28L912.451,1612.21L912.544,1612.13L912.635,1612.06L912.727,1611.98L912.819,1611.9L912.91,1611.82L913.001,1611.75L913.092,1611.67L913.183,1611.59L913.273,1611.51L913.363,1611.43L913.453,1611.36L913.543,1611.28L913.632,1611.2L913.722,1611.12L913.811,1611.04L913.899,1610.96L913.988,1610.88L914.076,1610.8L914.164,1610.72L914.252,1610.64L914.34,1610.56L914.427,1610.48L914.514,1610.39L914.6,1610.31L914.687,1610.23L914.773,1610.15L914.859,1610.06L914.945,1609.98L915.031,1609.9L915.116,1609.81L915.201,1609.73L915.286,1609.65L915.37,1609.56L915.455,1609.48L915.539,1609.39L915.623,1609.31L915.706,1609.22L915.79,1609.14L915.872,1609.05L915.955,1608.96L916.038,1608.88L916.12,1608.79L916.202,1608.7L916.284,1608.62L916.365,1608.53L916.447,1608.44L916.528,1608.36L916.608,1608.27L916.689,1608.18L916.769,1608.09L916.849,1608L916.928,1607.91L917.008,1607.82L917.087,1607.73L917.166,1607.64L917.244,1607.55L917.323,1607.46L917.401,1607.37L917.479,1607.28L917.556,1607.19L917.634,1607.1L917.711,1607.01L917.787,1606.92L917.864,1606.83L917.94,1606.73L918.016,1606.64L918.092,1606.55L918.167,1606.46L918.242,1606.36L918.317,1606.27L918.392,1606.18L918.466,1606.08L918.54,1605.99L918.613,1605.9L918.687,1605.8L918.76,1605.71L918.833,1605.61L918.906,1605.52L918.978,1605.42L919.05,1605.33L919.122,1605.23L919.193,1605.13L919.264,1605.04L919.335,1604.94L919.406,1604.85L919.476,1604.75L919.546,1604.65L919.616,1604.56L919.686,1604.46L919.755,1604.36L919.824,1604.26L919.893,1604.16L919.961,1604.07L920.029,1603.97L920.096,1603.87L920.164,1603.77L920.231,1603.67L920.298,1603.57L920.365,1603.47L920.431,1603.37L920.497,1603.27L920.563,1603.17L920.628,1603.07L920.693,1602.97L920.758,1602.87L920.823,1602.77L920.887,1602.67L920.951,1602.57L921.015,1602.47L921.078,1602.36L921.141,1602.26L921.203,1602.16L921.266,1602.06L921.328,1601.95L921.39,1601.85L921.451,1601.75L921.513,1601.65L921.574,1601.54L921.634,1601.44L921.694,1601.34L921.755,1601.23L921.814,1601.13L921.874,1601.02L921.933,1600.92L921.991,1600.81L922.05,1600.71L922.108,1600.6L922.166,1600.5L922.224,1600.39L922.281,1600.29L922.338,1600.18L922.394,1600.08L922.451,1599.97L922.507,1599.86L922.562,1599.76L922.618,1599.65L922.673,1599.54L922.727,1599.43L922.782,1599.33L922.836,1599.22L922.89,1599.11L922.943,1599.01L922.996,1598.9L923.049,1598.79L923.101,1598.68L923.154,1598.57L923.205,1598.46L923.257,1598.35L923.308,1598.24L923.359,1598.13L923.41,1598.03L923.46,1597.92L923.51,1597.81L923.559,1597.7L923.609,1597.59L923.658,1597.48L923.706,1597.37L923.754,1597.25L923.802,1597.14L923.85,1597.03L923.897,1596.92L923.944,1596.81L923.991,1596.7L924.037,1596.59L924.083,1596.47L924.129,1596.36L924.174,1596.25L924.219,1596.14L924.264,1596.03L924.308,1595.91L924.352,1595.8L924.396,1595.69L924.439,1595.57L924.482,1595.46L924.524,1595.35L924.567,1595.23L924.609,1595.12L924.65,1595L924.691,1594.89L924.732,1594.78L924.773,1594.66L924.813,1594.55L924.853,1594.43L924.893,1594.32L924.932,1594.2L924.971,1594.09L925.009,1593.97L925.047,1593.86L925.085,1593.74L925.123,1593.62L925.16,1593.51L925.197,1593.39L925.233,1593.27L925.269,1593.16L925.305,1593.04L925.34,1592.92L925.375,1592.81L925.41,1592.69L925.444,1592.57L925.478,1592.45L925.512,1592.34L925.545,1592.22L925.578,1592.1L925.611,1591.98L925.643,1591.87L925.675,1591.75L925.706,1591.63L925.738,1591.51L925.768,1591.39L925.799,1591.27L925.829,1591.15L925.858,1591.03L925.888,1590.91L925.917,1590.8L925.945,1590.68L925.974,1590.56L926.002,1590.44L926.029,1590.32L926.056,1590.19L926.083,1590.08L926.11,1589.95L926.136,1589.83L926.162,1589.71L926.187,1589.59L926.212,1589.47L926.236,1589.35L926.261,1589.23L926.285,1589.11L926.308,1588.99L926.331,1588.86L926.354,1588.74L926.376,1588.62L926.399,1588.5L926.42,1588.38L926.442,1588.25L926.462,1588.13L926.483,1588.01L926.503,1587.88L926.523,1587.76L926.542,1587.64L926.561,1587.52L926.58,1587.39L926.598,1587.27L926.616,1587.15L926.634,1587.02L926.651,1586.9L926.668,1586.77L926.684,1586.65L926.7,1586.53L926.716,1586.4L926.731,1586.28L926.746,1586.15L926.76,1586.03L926.774,1585.9L926.788,1585.78L926.801,1585.65L926.814,1585.53L926.827,1585.4L926.839,1585.28L926.851,1585.15L926.862,1585.03L926.873,1584.9L926.884,1584.77L926.894,1584.65L926.904,1584.52L926.913,1584.4L926.922,1584.27L926.931,1584.14L926.939,1584.02L926.947,1583.89L926.954,1583.76L926.961,1583.63L926.968,1583.51L926.974,1583.38L926.98,1583.25L926.986,1583.13L926.991,1583L926.995,1582.87L927,1582.74L927.004,1582.62L927.007,1582.49L927.01,1582.36L927.013,1582.23L927.015,1582.1L927.017,1581.97L927.018,1581.85L927.019,1581.72L927.02,1581.59L927.02,1581.45L927.02,1485.86L927.02,1485.73L927.019,1485.6L927.018,1485.47L927.017,1485.34L927.015,1485.21L927.013,1485.09L927.01,1484.96L927.007,1484.83L927.004,1484.7L927,1484.57L926.995,1484.45L926.991,1484.32L926.986,1484.19L926.98,1484.06L926.974,1483.94L926.968,1483.81L926.961,1483.68L926.954,1483.56L926.947,1483.43L926.939,1483.3L926.931,1483.17L926.922,1483.05L926.913,1482.92L926.904,1482.8L926.894,1482.67L926.884,1482.54L926.873,1482.42L926.862,1482.29L926.851,1482.17L926.839,1482.04L926.827,1481.91L926.814,1481.79L926.801,1481.66L926.788,1481.54L926.774,1481.41L926.76,1481.29L926.746,1481.16L926.731,1481.04L926.716,1480.92L926.7,1480.79L926.684,1480.67L926.668,1480.54L926.651,1480.42L926.634,1480.3L926.616,1480.17L926.598,1480.05L926.58,1479.92L926.561,1479.8L926.542,1479.68L926.523,1479.56L926.503,1479.43L926.483,1479.31L926.462,1479.19L926.442,1479.06L926.42,1478.94L926.399,1478.82L926.377,1478.7L926.354,1478.58L926.331,1478.45L926.308,1478.33L926.285,1478.21L926.261,1478.09L926.236,1477.97L926.212,1477.85L926.187,1477.73L926.162,1477.6L926.136,1477.48L926.11,1477.36L926.083,1477.24L926.056,1477.12L926.029,1477L926.002,1476.88L925.974,1476.76L925.945,1476.64L925.917,1476.52L925.888,1476.4L925.858,1476.28L925.829,1476.16L925.799,1476.05L925.768,1475.93L925.738,1475.81L925.706,1475.69L925.675,1475.57L925.643,1475.45L925.611,1475.33L925.578,1475.21L925.545,1475.1L925.512,1474.98L925.478,1474.86L925.444,1474.75L925.41,1474.63L925.375,1474.51L925.34,1474.39L925.305,1474.28L925.269,1474.16L925.233,1474.04L925.197,1473.93L925.16,1473.81L925.123,1473.69L925.085,1473.58L925.047,1473.46L925.009,1473.35L924.971,1473.23L924.932,1473.12L924.893,1473L924.853,1472.89L924.813,1472.77L924.773,1472.66L924.732,1472.54L924.691,1472.43L924.65,1472.31L924.608,1472.2L924.567,1472.09L924.524,1471.97L924.482,1471.86L924.439,1471.74L924.396,1471.63L924.352,1471.52L924.308,1471.4L924.264,1471.29L924.219,1471.18L924.174,1471.07L924.129,1470.95L924.083,1470.84L924.037,1470.73L923.991,1470.62L923.944,1470.51L923.897,1470.4L923.85,1470.29L923.802,1470.17L923.754,1470.06L923.706,1469.95L923.658,1469.84L923.609,1469.73L923.559,1469.62L923.51,1469.51L923.46,1469.4L923.41,1469.29L923.359,1469.18L923.308,1469.07L923.257,1468.96L923.205,1468.86L923.154,1468.75L923.101,1468.64L923.049,1468.53L922.996,1468.42L922.943,1468.31L922.89,1468.2L922.836,1468.1L922.782,1467.99L922.727,1467.88L922.673,1467.78L922.618,1467.67L922.562,1467.56L922.507,1467.45L922.451,1467.35L922.394,1467.24L922.338,1467.14L922.281,1467.03L922.224,1466.92L922.166,1466.82L922.108,1466.71L922.05,1466.61L921.991,1466.5L921.933,1466.4L921.874,1466.29L921.814,1466.19L921.755,1466.09L921.694,1465.98L921.634,1465.88L921.574,1465.77L921.513,1465.67L921.452,1465.57L921.39,1465.46L921.328,1465.36L921.266,1465.26L921.204,1465.16L921.141,1465.06L921.078,1464.95L921.015,1464.85L920.951,1464.75L920.887,1464.65L920.823,1464.55L920.758,1464.45L920.693,1464.35L920.628,1464.25L920.563,1464.14L920.497,1464.05L920.431,1463.94L920.365,1463.85L920.298,1463.75L920.231,1463.65L920.164,1463.55L920.097,1463.45L920.029,1463.35L919.961,1463.25L919.892,1463.15L919.824,1463.06L919.755,1462.96L919.686,1462.86L919.616,1462.76L919.547,1462.66L919.476,1462.57L919.406,1462.47L919.335,1462.38L919.264,1462.28L919.193,1462.18L919.122,1462.09L919.05,1461.99L918.978,1461.89L918.905,1461.8L918.833,1461.7L918.76,1461.61L918.687,1461.52L918.613,1461.42L918.54,1461.33L918.466,1461.23L918.392,1461.14L918.317,1461.05L918.242,1460.95L918.167,1460.86L918.092,1460.77L918.016,1460.67L917.94,1460.58L917.864,1460.49L917.787,1460.4L917.711,1460.31L917.634,1460.22L917.556,1460.12L917.479,1460.03L917.401,1459.94L917.323,1459.85L917.244,1459.76L917.166,1459.67L917.087,1459.58L917.008,1459.49L916.928,1459.4L916.849,1459.32L916.769,1459.23L916.689,1459.14L916.608,1459.05L916.528,1458.96L916.447,1458.88L916.365,1458.79L916.284,1458.7L916.202,1458.61L916.12,1458.53L916.038,1458.44L915.955,1458.35L915.872,1458.27L915.79,1458.18L915.706,1458.1L915.623,1458.01L915.539,1457.92L915.455,1457.84L915.37,1457.76L915.286,1457.67L915.201,1457.59L915.116,1457.5L915.031,1457.42L914.945,1457.34L914.859,1457.25L914.773,1457.17L914.687,1457.09L914.6,1457.01L914.514,1456.92L914.427,1456.84L914.34,1456.76L914.252,1456.68L914.164,1456.6L914.076,1456.52L913.988,1456.44L913.899,1456.36L913.811,1456.28L913.722,1456.2L913.633,1456.12L913.543,1456.04L913.453,1455.96L913.363,1455.88L913.273,1455.8L913.183,1455.73L913.092,1455.65L913.001,1455.57L912.91,1455.49L912.819,1455.42L912.727,1455.34L912.636,1455.26L912.543,1455.19L912.451,1455.11L912.359,1455.04L912.266,1454.96L912.173,1454.88L912.08,1454.81L911.986,1454.74L911.893,1454.66L911.799,1454.59L911.705,1454.51L911.611,1454.44L911.516,1454.37L911.421,1454.29L911.326,1454.22L911.231,1454.15L911.136,1454.08L911.04,1454.01L910.944,1453.93L910.848,1453.86L910.752,1453.79L910.655,1453.72L910.559,1453.65L910.462,1453.58L910.364,1453.51L910.267,1453.44L910.169,1453.37L910.072,1453.3L909.974,1453.23L909.875,1453.17L909.777,1453.1L909.678,1453.03L909.579,1452.96L909.48,1452.89L909.381,1452.83L909.281,1452.76L909.182,1452.7L909.082,1452.63L908.982,1452.56L908.881,1452.5L908.781,1452.43L908.68,1452.37L908.579,1452.3L908.478,1452.24L908.377,1452.18L908.275,1452.11L908.173,1452.05L908.071,1451.99L907.969,1451.92L907.867,1451.86L907.764,1451.8L907.662,1451.74L907.559,1451.67L907.455,1451.61L907.352,1451.55L907.248,1451.49L907.145,1451.43L907.041,1451.37L906.937,1451.31L906.832,1451.25L906.728,1451.19L906.623,1451.13L906.518,1451.08L906.413,1451.02L906.308,1450.96L906.202,1450.9L906.097,1450.85L905.991,1450.79L905.885,1450.73L905.779,1450.68L905.672,1450.62L905.565,1450.56L905.459,1450.51L905.352,1450.45L905.245,1450.4L905.137,1450.35L905.03,1450.29L904.922,1450.24L904.814,1450.18L904.706,1450.13L904.598,1450.08L904.489,1450.03L904.381,1449.97L904.272,1449.92L904.163,1449.87L904.054,1449.82L903.944,1449.77L903.835,1449.72L903.725,1449.67L903.615,1449.62L903.505,1449.57L903.395,1449.52L903.285,1449.47L903.174,1449.42L903.063,1449.37L902.952,1449.32L902.841,1449.28L902.73,1449.23L902.619,1449.18L902.507,1449.14L902.395,1449.09L902.283,1449.04L902.171,1449L902.059,1448.95L901.947,1448.91L901.834,1448.86L901.721,1448.82L901.608,1448.78L901.495,1448.73L901.382,1448.69L901.269,1448.64L901.155,1448.6L901.041,1448.56L900.927,1448.52L900.813,1448.48L900.699,1448.43L900.585,1448.39L900.47,1448.35L900.356,1448.31L900.241,1448.27L900.126,1448.23L900.01,1448.19L899.895,1448.16L899.78,1448.12L899.664,1448.08L899.548,1448.04L899.432,1448L899.316,1447.97L899.2,1447.93L899.084,1447.89L898.967,1447.86L898.85,1447.82L898.733,1447.79L898.616,1447.75L898.499,1447.72L898.382,1447.68L898.264,1447.65L898.147,1447.62L898.029,1447.58L897.911,1447.55L897.793,1447.52L897.675,1447.48L897.556,1447.45L897.438,1447.42L897.319,1447.39L897.2,1447.36L897.082,1447.33L896.962,1447.3L896.843,1447.27L896.724,1447.24L896.604,1447.21L896.485,1447.18L896.365,1447.15L896.245,1447.12L896.125,1447.1L896.005,1447.07L895.884,1447.04L895.764,1447.02L895.643,1446.99L895.522,1446.96L895.401,1446.94L895.28,1446.91L895.159,1446.89L895.038,1446.87L894.916,1446.84L894.795,1446.82L894.673,1446.8L894.551,1446.77L894.429,1446.75L894.307,1446.73L894.185,1446.71L894.062,1446.68L893.94,1446.66L893.817,1446.64L893.695,1446.62L893.572,1446.6L893.448,1446.58L893.325,1446.57L893.202,1446.55L893.079,1446.53L892.955,1446.51L892.831,1446.49L892.707,1446.48L892.584,1446.46L892.46,1446.44L892.335,1446.43L892.211,1446.41L892.086,1446.4L891.962,1446.38L891.837,1446.37L891.712,1446.35L891.587,1446.34L891.462,1446.33L891.337,1446.31L891.212,1446.3L891.086,1446.29L890.961,1446.28L890.835,1446.26L890.709,1446.25L890.583,1446.24L890.457,1446.23L890.331,1446.22L890.205,1446.21L890.078,1446.2L889.952,1446.2L889.825,1446.19L889.698,1446.18L889.572,1446.17L889.445,1446.16L889.317,1446.16L889.19,1446.15L889.063,1446.15L888.935,1446.14L888.808,1446.14L888.68,1446.13L888.552,1446.13L888.424,1446.12L888.296,1446.12L888.168,1446.12L888.04,1446.11L887.912,1446.11L887.783,1446.11L887.654,1446.11L887.526,1446.11L887.397,1446.11L887.263,1446.11L791.673,1446.11Z" style="fill:rgb(35,31,32);"/>
            </g>
            <g transform="matrix(1,0,0,1,-557.803,-78.0538)">
                <path d="M795.013,1582.44L807.915,1551.09" style="fill:none;stroke:rgb(35,31,32);stroke-width:7.17px;"/>
            </g>
            <g transform="matrix(1,0,0,1,-557.803,-78.0538)">
                <path d="M815.938,1533.11L839.114,1476.29L882.647,1582.44" style="fill:none;stroke:rgb(35,31,32);stroke-width:7.17px;"/>
            </g>
            <g transform="matrix(1,0,0,1,-561.092,-78.0538)">
                <path d="M784.352,1551.08L828.062,1551.08" style="fill:none;stroke:rgb(82,82,82);stroke-width:7.17px;"/>
            </g>
            <g transform="matrix(1,0,0,1,-553.092,-96.0538)">
                <path d="M784.352,1551.08L828.062,1551.08" style="fill:none;stroke:rgb(82,82,82);stroke-width:7.17px;"/>
            </g>
        </g>
    </g>
</svg>
