<?xml version="1.0" encoding="UTF-8" standalone="no"?>
<!DOCTYPE svg PUBLIC "-//W3C//DTD SVG 1.1//EN" "http://www.w3.org/Graphics/SVG/1.1/DTD/svg11.dtd">
<svg width="100%" height="100%" viewBox="0 0 135 135" version="1.1" xmlns="http://www.w3.org/2000/svg" xmlns:xlink="http://www.w3.org/1999/xlink" xml:space="preserve" xmlns:serif="http://www.serif.com/" style="fill-rule:evenodd;clip-rule:evenodd;stroke-linejoin:round;stroke-miterlimit:1.41421;">
    <g transform="matrix(1,0,0,1,-102.542,-276.786)">
        <g transform="matrix(1.44661,0,0,1.44661,562.043,831.12)">
            <g transform="matrix(0.691274,0,0,0.691274,-388.525,-1341.84)">
                <path d="M204.265,1386.84C205.54,1386.85 206.814,1386.92 208.08,1387.08C210.475,1387.37 212.838,1387.92 215.113,1388.72C219.796,1390.37 224.085,1393.08 227.596,1396.6C231.106,1400.11 233.82,1404.39 235.471,1409.08C236.273,1411.35 236.824,1413.71 237.113,1416.11C237.267,1417.38 237.343,1418.65 237.355,1419.93C237.427,1442.79 237.427,1465.64 237.355,1488.5C237.343,1489.78 237.267,1491.05 237.113,1492.32C236.824,1494.71 236.273,1497.08 235.471,1499.35C233.82,1504.03 231.106,1508.32 227.596,1511.83C224.085,1515.35 219.796,1518.06 215.113,1519.71C212.838,1520.51 210.475,1521.06 208.08,1521.35C206.814,1521.51 205.54,1521.58 204.265,1521.59C181.406,1521.67 158.546,1521.67 135.687,1521.59C134.412,1521.58 133.138,1521.51 131.871,1521.35C129.477,1521.06 127.114,1520.51 124.839,1519.71C120.156,1518.06 115.867,1515.35 112.356,1511.83C108.846,1508.32 106.132,1504.03 104.481,1499.35C103.679,1497.08 103.128,1494.71 102.838,1492.32C102.685,1491.05 102.609,1489.78 102.597,1488.5C102.525,1465.64 102.525,1442.79 102.597,1419.93C102.609,1418.65 102.685,1417.38 102.838,1416.11C103.128,1413.71 103.679,1411.35 104.481,1409.08C106.132,1404.39 108.846,1400.11 112.356,1396.6C115.867,1393.08 120.156,1390.37 124.839,1388.72C127.114,1387.92 129.477,1387.37 131.871,1387.08C133.138,1386.92 134.412,1386.85 135.687,1386.84C158.546,1386.76 181.406,1386.76 204.265,1386.84ZM135.918,1397.25C135.032,1397.25 134.147,1397.3 133.266,1397.4C131.528,1397.6 129.815,1398 128.169,1398.59C124.393,1399.95 121.006,1402.32 118.416,1405.38C116.658,1407.46 115.273,1409.85 114.352,1412.41C113.777,1414.01 113.384,1415.67 113.18,1417.36C113.074,1418.23 113.022,1419.11 113.014,1419.99C112.941,1442.86 112.797,1465.72 113.015,1488.59C113.029,1489.46 113.087,1490.34 113.198,1491.21C113.406,1492.85 113.793,1494.46 114.352,1496.02C115.647,1499.62 117.863,1502.87 120.726,1505.41C122.899,1507.34 125.437,1508.86 128.172,1509.84C129.771,1510.41 131.434,1510.81 133.121,1511.01C133.995,1511.12 134.874,1511.17 135.754,1511.18C158.619,1511.26 181.485,1511.39 204.349,1511.17C205.179,1511.16 206.007,1511.11 206.831,1511.01C208.518,1510.81 210.181,1510.41 211.78,1509.84C214.515,1508.86 217.053,1507.34 219.226,1505.41C222.089,1502.87 224.305,1499.62 225.6,1496.02C226.175,1494.42 226.568,1492.76 226.772,1491.07C226.878,1490.19 226.93,1489.32 226.938,1488.44C227.011,1465.57 227.155,1442.71 226.937,1419.84C226.924,1419.01 226.872,1418.18 226.772,1417.36C226.568,1415.67 226.175,1414.01 225.6,1412.41C224.679,1409.85 223.294,1407.46 221.536,1405.38C218.976,1402.35 215.637,1400 211.913,1398.64C210.364,1398.07 208.754,1397.67 207.119,1397.45C206.199,1397.33 205.274,1397.27 204.347,1397.25C181.538,1397.03 158.727,1397.25 135.918,1397.25ZM155.028,1473.69L147.979,1490.73C147.871,1490.98 147.755,1491.22 147.614,1491.45C147.298,1491.97 146.892,1492.43 146.418,1492.81C145.998,1493.14 145.524,1493.41 145.021,1493.6C144.58,1493.77 144.117,1493.88 143.648,1493.92C142.91,1493.99 142.159,1493.9 141.459,1493.66C140.694,1493.39 139.996,1492.95 139.432,1492.37C139.009,1491.93 138.664,1491.42 138.416,1490.87C138.14,1490.26 137.984,1489.59 137.961,1488.92C137.943,1488.38 138.008,1487.84 138.155,1487.32C138.211,1487.12 138.28,1486.93 138.354,1486.75L143.755,1473.69L134.242,1473.69C134.159,1473.69 134.077,1473.69 133.994,1473.69C133.829,1473.68 133.664,1473.66 133.501,1473.64C133.01,1473.57 132.529,1473.43 132.078,1473.22C131.477,1472.95 130.929,1472.56 130.472,1472.08C130.016,1471.6 129.653,1471.03 129.407,1470.42C129.222,1469.96 129.104,1469.47 129.057,1468.98C128.986,1468.24 129.077,1467.48 129.32,1466.78C129.564,1466.08 129.959,1465.43 130.472,1464.89C130.815,1464.53 131.208,1464.22 131.638,1463.97C132.211,1463.64 132.846,1463.42 133.501,1463.33C133.664,1463.3 133.829,1463.29 133.994,1463.28L164.801,1463.28C164.883,1463.29 164.966,1463.29 165.048,1463.3C165.213,1463.31 165.376,1463.34 165.539,1463.37C166.026,1463.46 166.499,1463.63 166.94,1463.85C167.528,1464.16 168.056,1464.57 168.489,1465.07C168.922,1465.57 169.259,1466.15 169.475,1466.78C169.637,1467.25 169.732,1467.74 169.756,1468.24C169.791,1468.98 169.665,1469.73 169.388,1470.42C169.112,1471.11 168.686,1471.74 168.147,1472.25C167.788,1472.6 167.38,1472.88 166.94,1473.11C166.425,1473.38 165.867,1473.56 165.294,1473.64C165.131,1473.66 164.966,1473.68 164.801,1473.69C164.719,1473.69 164.636,1473.69 164.553,1473.69L155.028,1473.69ZM172.069,1457.86L141.758,1457.86C141.676,1457.85 141.593,1457.85 141.511,1457.85C141.345,1457.84 141.181,1457.83 141.017,1457.8C140.526,1457.73 140.046,1457.59 139.595,1457.38C138.993,1457.11 138.445,1456.72 137.989,1456.24C137.532,1455.76 137.169,1455.2 136.923,1454.58C136.646,1453.89 136.52,1453.14 136.556,1452.4C136.591,1451.66 136.788,1450.92 137.129,1450.26C137.356,1449.82 137.647,1449.41 137.989,1449.05C138.331,1448.69 138.725,1448.38 139.154,1448.14C139.727,1447.81 140.362,1447.59 141.017,1447.49C141.181,1447.47 141.345,1447.45 141.511,1447.44L154.919,1447.44L168.928,1413.16C168.981,1413.04 169.029,1412.92 169.087,1412.81C169.258,1412.46 169.468,1412.14 169.711,1411.84C170.443,1410.94 171.471,1410.31 172.601,1410.05C172.851,1409.99 173.105,1409.95 173.361,1409.94C173.489,1409.93 173.618,1409.93 173.746,1409.92C173.874,1409.93 174.002,1409.93 174.13,1409.93C174.258,1409.95 174.386,1409.96 174.513,1409.98C174.767,1410.02 175.018,1410.07 175.263,1410.15C176.247,1410.44 177.133,1411.04 177.783,1411.84C178.027,1412.13 178.237,1412.46 178.409,1412.8C178.466,1412.92 178.515,1413.04 178.568,1413.15L208.756,1486.76C208.801,1486.88 208.85,1487 208.891,1487.13C208.971,1487.37 209.033,1487.63 209.075,1487.88C209.225,1488.78 209.134,1489.71 208.814,1490.57C208.586,1491.17 208.244,1491.74 207.809,1492.22C207.461,1492.61 207.056,1492.94 206.61,1493.21C205.603,1493.81 204.402,1494.06 203.24,1493.9C202.725,1493.83 202.221,1493.68 201.749,1493.46C201.278,1493.25 200.84,1492.96 200.453,1492.61C200.067,1492.26 199.734,1491.86 199.467,1491.41C199.289,1491.11 199.262,1491.03 199.119,1490.71L173.758,1428.88L166.172,1447.44L172.317,1447.44C172.4,1447.45 172.482,1447.45 172.565,1447.46C172.729,1447.48 172.893,1447.5 173.055,1447.53C173.623,1447.64 174.173,1447.85 174.674,1448.14C175.318,1448.51 175.88,1449.02 176.312,1449.63C176.744,1450.23 177.043,1450.93 177.184,1451.66C177.278,1452.15 177.301,1452.65 177.254,1453.14C177.207,1453.64 177.089,1454.12 176.905,1454.58C176.659,1455.2 176.295,1455.76 175.839,1456.24C175.382,1456.72 174.835,1457.11 174.233,1457.38C173.782,1457.59 173.302,1457.73 172.811,1457.8C172.647,1457.83 172.482,1457.84 172.317,1457.85C172.235,1457.85 172.153,1457.85 172.069,1457.86Z"/>
            </g>
        </g>
    </g>
</svg>
