<?xml version="1.0" encoding="UTF-8" standalone="no"?>
<!DOCTYPE svg PUBLIC "-//W3C//DTD SVG 1.1//EN" "http://www.w3.org/Graphics/SVG/1.1/DTD/svg11.dtd">
<svg width="100%" height="100%" viewBox="0 0 135 135" version="1.1" xmlns="http://www.w3.org/2000/svg" xmlns:xlink="http://www.w3.org/1999/xlink" xml:space="preserve" xmlns:serif="http://www.serif.com/" style="fill-rule:evenodd;clip-rule:evenodd;stroke-linecap:round;stroke-linejoin:round;stroke-miterlimit:1.5;">
    <g transform="matrix(1,0,0,1,-102.674,-101.837)">
        <g transform="matrix(1.44661,0,0,1.44661,562.043,831.12)">
            <g transform="matrix(0.479369,0,0,0.479369,-402.342,-1154.84)">
                <g transform="matrix(1.02793,0,0,1.02793,-588.865,-121.9)">
                    <path d="M887.57,1439.14L888.173,1439.14L889.073,1439.17L889.372,1439.18L889.671,1439.2L889.969,1439.21L890.267,1439.23L890.861,1439.27L891.157,1439.3L891.453,1439.32L891.748,1439.35L892.63,1439.44L892.923,1439.47L893.799,1439.59L894.089,1439.63L894.38,1439.67L894.958,1439.77L895.247,1439.81L895.534,1439.87L895.822,1439.92L896.108,1439.97L896.68,1440.09L896.964,1440.14L897.248,1440.2L897.532,1440.27L897.815,1440.33L898.097,1440.4L898.659,1440.54L899.219,1440.68L899.498,1440.75L899.776,1440.83L900.33,1440.99L900.606,1441.07L900.881,1441.15L901.156,1441.24L901.43,1441.32L901.703,1441.41L902.247,1441.59L902.518,1441.68L902.788,1441.78L903.058,1441.87L903.594,1442.07L904.128,1442.27L904.393,1442.38L904.658,1442.48L904.922,1442.59L905.448,1442.81L905.97,1443.03L906.23,1443.15L906.489,1443.27L906.747,1443.38L907.005,1443.5L907.261,1443.62L907.517,1443.75L907.772,1443.87L908.026,1443.99L908.279,1444.12L908.783,1444.38L909.283,1444.64L909.532,1444.78L909.779,1444.91L910.026,1445.05L910.272,1445.19L910.762,1445.47L911.005,1445.61L911.247,1445.76L911.488,1445.9L911.729,1446.05L912.207,1446.35L912.681,1446.65L912.916,1446.81L913.151,1446.96L913.617,1447.28L914.079,1447.6L914.537,1447.92L914.991,1448.26L915.216,1448.42L915.441,1448.59L915.664,1448.76L915.886,1448.93L916.107,1449.11L916.328,1449.28L916.547,1449.45L916.765,1449.63L917.197,1449.99L917.412,1450.17L917.626,1450.35L917.838,1450.53L918.05,1450.72L918.26,1450.9L918.469,1451.09L918.677,1451.28L918.884,1451.47L919.09,1451.66L919.498,1452.04L919.7,1452.24L919.901,1452.43L920.101,1452.63L920.3,1452.83L920.498,1453.03L920.89,1453.43L921.084,1453.63L921.276,1453.83L921.468,1454.04L921.659,1454.24L921.848,1454.45L922.036,1454.66L922.408,1455.08L922.592,1455.29L922.775,1455.5L922.957,1455.71L923.138,1455.93L923.317,1456.14L923.495,1456.36L923.847,1456.8L924.021,1457.02L924.194,1457.24L924.365,1457.46L924.535,1457.69L924.704,1457.91L924.872,1458.14L925.038,1458.36L925.203,1458.59L925.367,1458.82L925.529,1459.05L925.69,1459.28L926.008,1459.74L926.164,1459.98L926.32,1460.21L926.474,1460.45L926.627,1460.68L926.778,1460.92L926.928,1461.16L927.076,1461.4L927.223,1461.64L927.369,1461.88L927.513,1462.12L927.656,1462.37L927.798,1462.61L927.938,1462.85L928.076,1463.1L928.213,1463.35L928.349,1463.6L928.483,1463.84L928.616,1464.09L928.747,1464.34L928.877,1464.6L929.005,1464.85L929.132,1465.1L929.258,1465.35L929.504,1465.87L929.625,1466.12L929.744,1466.38L929.862,1466.64L929.978,1466.9L930.093,1467.16L930.206,1467.42L930.318,1467.68L930.428,1467.94L930.536,1468.2L930.643,1468.47L930.749,1468.73L930.853,1469L930.955,1469.27L931.056,1469.53L931.155,1469.8L931.252,1470.07L931.348,1470.34L931.442,1470.61L931.535,1470.88L931.626,1471.15L931.716,1471.42L931.803,1471.7L931.89,1471.97L931.974,1472.25L932.057,1472.52L932.138,1472.8L932.218,1473.07L932.296,1473.35L932.372,1473.63L932.447,1473.91L932.52,1474.19L932.591,1474.47L932.66,1474.75L932.728,1475.03L932.794,1475.31L932.859,1475.6L932.922,1475.88L932.983,1476.16L933.042,1476.45L933.099,1476.73L933.155,1477.02L933.209,1477.31L933.261,1477.59L933.312,1477.88L933.361,1478.17L933.408,1478.46L933.453,1478.75L933.496,1479.04L933.538,1479.33L933.578,1479.62L933.616,1479.91L933.652,1480.2L933.687,1480.5L933.72,1480.79L933.75,1481.08L933.779,1481.38L933.807,1481.67L933.832,1481.97L933.855,1482.27L933.877,1482.56L933.897,1482.86L933.915,1483.16L933.931,1483.46L933.945,1483.75L933.957,1484.05L933.968,1484.35L933.977,1484.65L933.983,1484.95L933.988,1485.26L933.991,1485.56L933.992,1485.86L933.992,1581.46L933.991,1581.76L933.988,1582.06L933.983,1582.36L933.977,1582.66L933.968,1582.96L933.957,1583.26L933.945,1583.56L933.931,1583.86L933.915,1584.16L933.897,1584.46L933.877,1584.76L933.855,1585.05L933.832,1585.35L933.807,1585.64L933.779,1585.94L933.75,1586.23L933.72,1586.53L933.687,1586.82L933.652,1587.11L933.616,1587.41L933.578,1587.7L933.538,1587.99L933.496,1588.28L933.453,1588.57L933.408,1588.86L933.361,1589.15L933.312,1589.44L933.261,1589.73L933.209,1590.01L933.155,1590.3L933.099,1590.59L933.042,1590.87L932.983,1591.15L932.922,1591.44L932.859,1591.72L932.794,1592.01L932.728,1592.29L932.66,1592.57L932.591,1592.85L932.52,1593.13L932.447,1593.41L932.372,1593.69L932.296,1593.97L932.218,1594.24L932.138,1594.52L932.057,1594.8L931.974,1595.07L931.89,1595.35L931.803,1595.62L931.716,1595.89L931.626,1596.17L931.535,1596.44L931.442,1596.71L931.348,1596.98L931.252,1597.25L931.155,1597.52L931.056,1597.79L930.955,1598.05L930.853,1598.32L930.749,1598.58L930.643,1598.85L930.536,1599.11L930.428,1599.38L930.318,1599.64L930.206,1599.9L930.093,1600.16L929.978,1600.42L929.862,1600.68L929.744,1600.94L929.625,1601.2L929.504,1601.45L929.381,1601.71L929.258,1601.96L929.132,1602.22L929.005,1602.47L928.877,1602.72L928.747,1602.97L928.616,1603.22L928.483,1603.47L928.349,1603.72L928.213,1603.97L928.076,1604.22L927.938,1604.46L927.798,1604.71L927.656,1604.95L927.513,1605.2L927.369,1605.44L927.223,1605.68L927.076,1605.92L926.928,1606.16L926.778,1606.4L926.627,1606.63L926.474,1606.87L926.32,1607.11L926.164,1607.34L926.008,1607.58L925.849,1607.81L925.69,1608.04L925.529,1608.27L925.367,1608.5L925.203,1608.73L925.038,1608.95L924.872,1609.18L924.704,1609.41L924.535,1609.63L924.365,1609.86L924.194,1610.08L924.021,1610.3L923.847,1610.52L923.671,1610.74L923.495,1610.95L923.317,1611.17L923.138,1611.39L922.957,1611.6L922.775,1611.82L922.592,1612.03L922.408,1612.24L922.222,1612.45L922.036,1612.66L921.848,1612.87L921.659,1613.08L921.468,1613.28L921.276,1613.49L921.084,1613.69L920.89,1613.89L920.694,1614.09L920.498,1614.29L920.3,1614.49L920.101,1614.69L919.901,1614.88L919.7,1615.08L919.498,1615.27L919.294,1615.47L919.09,1615.66L918.884,1615.85L918.677,1616.04L918.469,1616.23L918.26,1616.41L918.05,1616.6L917.838,1616.78L917.626,1616.97L917.412,1617.15L917.197,1617.33L916.981,1617.51L916.765,1617.69L916.547,1617.86L916.328,1618.04L916.107,1618.21L915.886,1618.38L915.664,1618.56L915.441,1618.73L915.216,1618.89L914.991,1619.06L914.764,1619.23L914.537,1619.39L914.308,1619.56L914.079,1619.72L913.848,1619.88L913.617,1620.04L913.384,1620.2L913.151,1620.36L912.916,1620.51L912.681,1620.66L912.444,1620.82L912.207,1620.97L911.968,1621.12L911.729,1621.27L911.488,1621.41L911.247,1621.56L911.005,1621.7L910.762,1621.85L910.517,1621.99L910.272,1622.13L910.026,1622.27L909.779,1622.4L909.532,1622.54L909.283,1622.67L909.033,1622.81L908.783,1622.94L908.531,1623.07L908.279,1623.2L908.026,1623.32L907.772,1623.45L907.517,1623.57L907.261,1623.69L907.005,1623.82L906.747,1623.93L906.489,1624.05L906.23,1624.17L905.97,1624.28L905.709,1624.4L905.448,1624.51L905.185,1624.62L904.922,1624.73L904.658,1624.83L904.393,1624.94L904.128,1625.04L903.861,1625.15L903.594,1625.25L903.326,1625.35L903.058,1625.44L902.788,1625.54L902.518,1625.63L902.247,1625.73L901.975,1625.82L901.703,1625.91L901.43,1625.99L901.156,1626.08L900.881,1626.16L900.606,1626.25L900.33,1626.33L900.053,1626.41L899.776,1626.49L899.498,1626.56L899.219,1626.64L898.939,1626.71L898.659,1626.78L898.378,1626.85L898.097,1626.92L897.815,1626.99L897.532,1627.05L897.248,1627.11L896.964,1627.17L896.68,1627.23L896.394,1627.29L896.108,1627.35L895.822,1627.4L895.534,1627.45L895.247,1627.5L894.958,1627.55L894.669,1627.6L894.38,1627.64L894.089,1627.69L893.799,1627.73L893.507,1627.77L893.215,1627.81L892.923,1627.84L892.63,1627.88L892.336,1627.91L892.042,1627.94L891.748,1627.97L891.453,1628L891.157,1628.02L890.861,1628.05L890.564,1628.07L890.267,1628.09L889.969,1628.11L889.671,1628.12L889.372,1628.14L889.073,1628.15L888.773,1628.16L888.473,1628.17L888.173,1628.17L887.872,1628.18L887.57,1628.18L887.268,1628.18L791.668,1628.18L791.366,1628.18L791.064,1628.18L790.763,1628.17L790.462,1628.17L790.162,1628.16L789.863,1628.15L789.563,1628.14L789.265,1628.12L788.966,1628.11L788.669,1628.09L788.372,1628.07L788.075,1628.05L787.779,1628.02L787.483,1628L787.188,1627.97L786.893,1627.94L786.599,1627.91L786.306,1627.88L786.013,1627.84L785.72,1627.81L785.428,1627.77L785.137,1627.73L784.846,1627.69L784.556,1627.64L784.266,1627.6L783.977,1627.55L783.689,1627.5L783.401,1627.45L783.114,1627.4L782.827,1627.35L782.541,1627.29L782.256,1627.23L781.971,1627.17L781.687,1627.11L781.404,1627.05L781.121,1626.99L780.839,1626.92L780.557,1626.85L780.277,1626.78L779.996,1626.71L779.717,1626.64L779.438,1626.56L779.16,1626.49L778.882,1626.41L778.606,1626.33L778.33,1626.25L778.054,1626.16L777.78,1626.08L777.506,1625.99L777.233,1625.91L776.96,1625.82L776.689,1625.73L776.418,1625.63L776.147,1625.54L775.878,1625.44L775.609,1625.35L775.341,1625.25L775.074,1625.15L774.808,1625.04L774.542,1624.94L774.277,1624.83L774.013,1624.73L773.75,1624.62L773.488,1624.51L773.226,1624.4L772.966,1624.28L772.706,1624.17L772.446,1624.05L772.188,1623.93L771.931,1623.82L771.674,1623.69L771.418,1623.57L771.164,1623.45L770.91,1623.32L770.656,1623.2L770.404,1623.07L770.153,1622.94L769.902,1622.81L769.653,1622.67L769.404,1622.54L769.156,1622.4L768.909,1622.27L768.663,1622.13L768.418,1621.99L768.174,1621.85L767.931,1621.7L767.689,1621.56L767.447,1621.41L767.207,1621.27L766.968,1621.12L766.729,1620.97L766.492,1620.82L766.255,1620.66L766.02,1620.51L765.785,1620.36L765.551,1620.2L765.319,1620.04L765.087,1619.88L764.857,1619.72L764.627,1619.56L764.399,1619.39L764.171,1619.23L763.945,1619.06L763.719,1618.89L763.495,1618.73L763.272,1618.56L763.049,1618.38L762.828,1618.21L762.608,1618.04L762.389,1617.86L762.171,1617.69L761.954,1617.51L761.738,1617.33L761.524,1617.15L761.31,1616.97L761.097,1616.78L760.886,1616.6L760.676,1616.41L760.466,1616.23L760.258,1616.04L760.052,1615.85L759.846,1615.66L759.641,1615.47L759.438,1615.27L759.235,1615.08L759.034,1614.88L758.834,1614.69L758.635,1614.49L758.438,1614.29L758.241,1614.09L758.046,1613.89L757.852,1613.69L757.659,1613.49L757.467,1613.28L757.277,1613.08L757.088,1612.87L756.9,1612.66L756.713,1612.45L756.528,1612.24L756.343,1612.03L756.16,1611.82L755.979,1611.6L755.798,1611.39L755.619,1611.17L755.441,1610.95L755.264,1610.74L755.089,1610.52L754.915,1610.3L754.742,1610.08L754.57,1609.86L754.4,1609.63L754.231,1609.41L754.064,1609.18L753.897,1608.95L753.733,1608.73L753.569,1608.5L753.407,1608.27L753.246,1608.04L753.086,1607.81L752.928,1607.58L752.771,1607.34L752.616,1607.11L752.462,1606.87L752.309,1606.63L752.158,1606.4L752.008,1606.16L751.859,1605.92L751.712,1605.68L751.567,1605.44L751.422,1605.2L751.279,1604.95L751.138,1604.71L750.998,1604.46L750.859,1604.22L750.722,1603.97L750.587,1603.72L750.452,1603.47L750.32,1603.22L750.188,1602.97L750.059,1602.72L749.93,1602.47L749.803,1602.22L749.678,1601.96L749.554,1601.71L749.432,1601.45L749.311,1601.2L749.192,1600.94L749.074,1600.68L748.958,1600.42L748.843,1600.16L748.73,1599.9L748.618,1599.64L748.508,1599.38L748.399,1599.11L748.292,1598.85L748.187,1598.58L748.083,1598.32L747.981,1598.05L747.88,1597.79L747.781,1597.52L747.683,1597.25L747.588,1596.98L747.493,1596.71L747.4,1596.44L747.309,1596.17L747.22,1595.89L747.132,1595.62L747.046,1595.35L746.961,1595.07L746.878,1594.8L746.797,1594.52L746.718,1594.24L746.64,1593.97L746.563,1593.69L746.489,1593.41L746.416,1593.13L746.345,1592.85L746.275,1592.57L746.207,1592.29L746.141,1592.01L746.077,1591.72L746.014,1591.44L745.953,1591.15L745.894,1590.87L745.836,1590.59L745.78,1590.3L745.726,1590.01L745.674,1589.73L745.624,1589.44L745.575,1589.15L745.528,1588.86L745.483,1588.57L745.439,1588.28L745.397,1587.99L745.358,1587.7L745.32,1587.41L745.283,1587.11L745.249,1586.82L745.216,1586.53L745.185,1586.23L745.156,1585.94L745.129,1585.64L745.104,1585.35L745.08,1585.05L745.059,1584.76L745.039,1584.46L745.021,1584.16L745.005,1583.86L744.99,1583.56L744.978,1583.26L744.968,1582.96L744.959,1582.66L744.952,1582.36L744.948,1582.06L744.945,1581.76L744.944,1581.46L744.944,1485.86L744.945,1485.56L744.948,1485.26L744.952,1484.95L744.959,1484.65L744.968,1484.35L744.978,1484.05L744.99,1483.75L745.005,1483.46L745.021,1483.16L745.039,1482.86L745.059,1482.56L745.08,1482.27L745.104,1481.97L745.129,1481.67L745.156,1481.38L745.185,1481.08L745.216,1480.79L745.249,1480.5L745.283,1480.2L745.32,1479.91L745.358,1479.62L745.397,1479.33L745.439,1479.04L745.483,1478.75L745.528,1478.46L745.575,1478.17L745.624,1477.88L745.674,1477.59L745.726,1477.31L745.78,1477.02L745.836,1476.73L745.894,1476.45L745.953,1476.16L746.014,1475.88L746.077,1475.6L746.141,1475.31L746.207,1475.03L746.275,1474.75L746.345,1474.47L746.416,1474.19L746.489,1473.91L746.563,1473.63L746.64,1473.35L746.718,1473.07L746.797,1472.8L746.878,1472.52L746.961,1472.25L747.046,1471.97L747.132,1471.7L747.22,1471.42L747.309,1471.15L747.4,1470.88L747.493,1470.61L747.588,1470.34L747.683,1470.07L747.781,1469.8L747.88,1469.53L747.981,1469.27L748.083,1469L748.187,1468.73L748.292,1468.47L748.399,1468.2L748.508,1467.94L748.618,1467.68L748.73,1467.42L748.843,1467.16L748.958,1466.9L749.074,1466.64L749.192,1466.38L749.311,1466.12L749.432,1465.87L749.554,1465.61L749.678,1465.35L749.803,1465.1L749.93,1464.85L750.059,1464.6L750.188,1464.34L750.32,1464.09L750.452,1463.84L750.587,1463.6L750.722,1463.35L750.859,1463.1L750.998,1462.85L751.138,1462.61L751.279,1462.37L751.422,1462.12L751.567,1461.88L751.712,1461.64L751.859,1461.4L752.008,1461.16L752.158,1460.92L752.309,1460.68L752.462,1460.45L752.616,1460.21L752.771,1459.98L752.928,1459.74L753.086,1459.51L753.246,1459.28L753.407,1459.05L753.569,1458.82L753.733,1458.59L753.897,1458.36L754.064,1458.14L754.231,1457.91L754.4,1457.69L754.57,1457.46L754.742,1457.24L754.915,1457.02L755.089,1456.8L755.264,1456.58L755.441,1456.36L755.619,1456.14L755.798,1455.93L755.979,1455.71L756.16,1455.5L756.343,1455.29L756.528,1455.08L756.713,1454.87L756.9,1454.66L757.088,1454.45L757.277,1454.24L757.467,1454.04L757.659,1453.83L757.852,1453.63L758.046,1453.43L758.241,1453.23L758.438,1453.03L758.635,1452.83L758.834,1452.63L759.034,1452.43L759.235,1452.24L759.438,1452.04L759.641,1451.85L759.846,1451.66L760.052,1451.47L760.258,1451.28L760.466,1451.09L760.676,1450.9L760.886,1450.72L761.097,1450.53L761.31,1450.35L761.524,1450.17L761.738,1449.99L761.954,1449.81L762.171,1449.63L762.389,1449.45L762.608,1449.28L762.828,1449.11L763.049,1448.93L763.272,1448.76L763.495,1448.59L763.719,1448.42L763.945,1448.26L764.171,1448.09L764.399,1447.92L764.627,1447.76L764.857,1447.6L765.087,1447.44L765.319,1447.28L765.551,1447.12L765.785,1446.96L766.02,1446.81L766.255,1446.65L766.492,1446.5L766.729,1446.35L766.968,1446.2L767.207,1446.05L767.447,1445.9L767.689,1445.76L767.931,1445.61L768.174,1445.47L768.418,1445.33L768.663,1445.19L768.909,1445.05L769.156,1444.91L769.404,1444.78L769.653,1444.64L769.902,1444.51L770.153,1444.38L770.404,1444.25L770.656,1444.12L770.91,1443.99L771.164,1443.87L771.418,1443.75L771.674,1443.62L771.931,1443.5L772.188,1443.38L772.446,1443.27L772.706,1443.15L772.966,1443.03L773.226,1442.92L773.488,1442.81L773.75,1442.7L774.013,1442.59L774.277,1442.48L774.542,1442.38L774.808,1442.27L775.074,1442.17L775.341,1442.07L775.609,1441.97L775.878,1441.87L776.147,1441.78L776.418,1441.68L776.689,1441.59L776.96,1441.5L777.233,1441.41L777.506,1441.32L777.78,1441.24L778.054,1441.15L778.33,1441.07L778.606,1440.99L778.882,1440.91L779.16,1440.83L779.438,1440.75L779.717,1440.68L779.996,1440.61L780.277,1440.54L780.557,1440.47L780.839,1440.4L781.121,1440.33L781.404,1440.27L781.687,1440.2L781.971,1440.14L782.256,1440.09L782.541,1440.03L782.827,1439.97L783.114,1439.92L783.401,1439.87L783.689,1439.81L783.977,1439.77L784.266,1439.72L784.556,1439.67L784.846,1439.63L785.137,1439.59L785.428,1439.55L785.72,1439.51L786.013,1439.47L786.306,1439.44L786.599,1439.41L786.893,1439.38L787.188,1439.35L787.483,1439.32L787.779,1439.3L788.075,1439.27L788.372,1439.25L788.669,1439.23L788.966,1439.21L789.265,1439.2L789.563,1439.18L789.863,1439.17L790.162,1439.16L790.462,1439.15L790.763,1439.14L791.366,1439.14L791.668,1439.13L887.268,1439.13L887.57,1439.14ZM791.689,1453.75L791.459,1453.75L791.25,1453.75L791.039,1453.75L790.832,1453.76L790.626,1453.76L790.417,1453.77L790.213,1453.78L790.009,1453.79L789.798,1453.8L789.592,1453.81L789.39,1453.83L789.186,1453.84L788.982,1453.86L788.778,1453.88L788.572,1453.89L788.37,1453.91L788.169,1453.94L787.969,1453.96L787.766,1453.98L787.563,1454.01L787.365,1454.03L787.164,1454.06L786.967,1454.09L786.768,1454.12L786.565,1454.15L786.367,1454.18L786.173,1454.21L785.976,1454.25L785.773,1454.29L785.578,1454.32L785.387,1454.36L785.19,1454.4L784.993,1454.44L784.797,1454.48L784.606,1454.53L784.411,1454.57L784.218,1454.62L784.025,1454.66L783.833,1454.71L783.641,1454.76L783.447,1454.81L783.261,1454.86L783.068,1454.91L782.876,1454.96L782.692,1455.02L782.501,1455.07L782.308,1455.13L782.123,1455.19L781.938,1455.25L781.747,1455.31L781.561,1455.37L781.378,1455.43L781.19,1455.5L781.006,1455.56L780.822,1455.63L780.636,1455.69L780.454,1455.76L780.273,1455.83L780.089,1455.9L779.906,1455.97L779.724,1456.04L779.542,1456.12L779.365,1456.19L779.185,1456.27L779.003,1456.34L778.825,1456.42L778.65,1456.5L778.47,1456.58L778.291,1456.66L778.116,1456.74L777.942,1456.82L777.765,1456.91L777.589,1456.99L777.418,1457.08L777.243,1457.17L777.067,1457.26L776.894,1457.34L776.726,1457.43L776.555,1457.52L776.382,1457.62L776.213,1457.71L776.044,1457.8L775.874,1457.9L775.704,1458L775.535,1458.09L775.37,1458.19L775.206,1458.29L775.039,1458.39L774.871,1458.49L774.707,1458.59L774.546,1458.7L774.383,1458.8L774.218,1458.91L774.054,1459.01L773.894,1459.12L773.735,1459.23L773.573,1459.34L773.416,1459.44L773.256,1459.56L773.098,1459.67L772.94,1459.78L772.783,1459.89L772.63,1460.01L772.472,1460.12L772.318,1460.24L772.165,1460.36L772.01,1460.48L771.859,1460.59L771.709,1460.71L771.556,1460.84L771.406,1460.96L771.255,1461.08L771.106,1461.2L770.96,1461.33L770.813,1461.45L770.666,1461.58L770.521,1461.7L770.374,1461.84L770.231,1461.96L770.088,1462.09L769.946,1462.22L769.803,1462.35L769.661,1462.49L769.522,1462.62L769.382,1462.75L769.243,1462.89L769.105,1463.02L768.968,1463.16L768.832,1463.3L768.697,1463.43L768.562,1463.57L768.429,1463.71L768.295,1463.85L768.162,1464L768.032,1464.14L767.902,1464.28L767.772,1464.42L767.643,1464.57L767.516,1464.71L767.389,1464.86L767.261,1465L767.136,1465.15L767.012,1465.3L766.889,1465.45L766.767,1465.6L766.644,1465.75L766.524,1465.9L766.404,1466.05L766.285,1466.2L766.166,1466.36L766.049,1466.51L765.932,1466.66L765.817,1466.82L765.703,1466.97L765.59,1467.13L765.476,1467.29L765.365,1467.45L765.255,1467.61L765.144,1467.77L765.036,1467.92L764.928,1468.09L764.82,1468.25L764.715,1468.41L764.611,1468.57L764.505,1468.74L764.402,1468.9L764.3,1469.06L764.199,1469.23L764.1,1469.39L764,1469.56L763.901,1469.73L763.804,1469.9L763.709,1470.06L763.613,1470.23L763.519,1470.4L763.426,1470.57L763.334,1470.74L763.243,1470.91L763.152,1471.09L763.064,1471.26L762.976,1471.43L762.888,1471.61L762.802,1471.78L762.718,1471.95L762.634,1472.13L762.55,1472.31L762.469,1472.48L762.388,1472.66L762.308,1472.84L762.23,1473.02L762.152,1473.19L762.075,1473.38L762,1473.55L761.926,1473.74L761.852,1473.92L761.78,1474.1L761.709,1474.28L761.639,1474.46L761.57,1474.64L761.502,1474.83L761.435,1475.01L761.369,1475.2L761.305,1475.38L761.241,1475.57L761.179,1475.75L761.118,1475.94L761.058,1476.13L760.999,1476.31L760.941,1476.5L760.884,1476.69L760.828,1476.88L760.774,1477.07L760.72,1477.26L760.668,1477.45L760.617,1477.64L760.567,1477.83L760.519,1478.02L760.471,1478.21L760.424,1478.41L760.379,1478.6L760.335,1478.8L760.292,1478.99L760.25,1479.18L760.21,1479.38L760.17,1479.58L760.132,1479.77L760.095,1479.97L760.059,1480.16L760.024,1480.36L759.991,1480.56L759.959,1480.76L759.928,1480.96L759.898,1481.16L759.869,1481.36L759.842,1481.56L759.816,1481.76L759.791,1481.96L759.767,1482.16L759.745,1482.36L759.723,1482.56L759.704,1482.77L759.685,1482.97L759.667,1483.17L759.651,1483.38L759.636,1483.58L759.623,1483.79L759.61,1483.99L759.599,1484.2L759.589,1484.4L759.581,1484.61L759.574,1484.82L759.568,1485.02L759.563,1485.23L759.56,1485.44L759.558,1485.65L759.557,1485.88L759.557,1581.44L759.558,1581.67L759.56,1581.88L759.563,1582.09L759.568,1582.29L759.574,1582.5L759.581,1582.71L759.589,1582.91L759.599,1583.12L759.61,1583.33L759.623,1583.53L759.636,1583.74L759.651,1583.94L759.667,1584.15L759.685,1584.35L759.704,1584.55L759.723,1584.76L759.767,1585.16L759.791,1585.36L759.816,1585.56L759.842,1585.76L759.869,1585.96L759.898,1586.16L759.928,1586.36L759.959,1586.56L759.991,1586.76L760.025,1586.96L760.059,1587.15L760.095,1587.35L760.132,1587.55L760.21,1587.94L760.25,1588.13L760.292,1588.33L760.335,1588.52L760.379,1588.72L760.471,1589.1L760.518,1589.29L760.567,1589.49L760.617,1589.68L760.668,1589.87L760.774,1590.25L760.828,1590.44L760.884,1590.63L760.941,1590.82L760.998,1591L761.118,1591.38L761.179,1591.56L761.241,1591.75L761.305,1591.94L761.369,1592.12L761.435,1592.31L761.502,1592.49L761.57,1592.67L761.639,1592.86L761.708,1593.04L761.78,1593.22L761.926,1593.58L762,1593.76L762.152,1594.12L762.229,1594.3L762.309,1594.48L762.388,1594.66L762.468,1594.83L762.634,1595.19L762.717,1595.36L762.803,1595.54L762.888,1595.71L762.975,1595.88L763.063,1596.06L763.152,1596.23L763.334,1596.57L763.426,1596.75L763.52,1596.91L763.613,1597.08L763.708,1597.25L763.804,1597.42L764,1597.76L764.099,1597.92L764.199,1598.09L764.3,1598.25L764.403,1598.42L764.506,1598.58L764.609,1598.75L764.927,1599.23L765.036,1599.39L765.144,1599.55L765.253,1599.71L765.365,1599.87L765.478,1600.03L765.59,1600.19L765.702,1600.34L765.817,1600.5L765.934,1600.65L766.05,1600.81L766.166,1600.96L766.283,1601.11L766.403,1601.27L766.524,1601.42L766.644,1601.57L766.767,1601.72L766.889,1601.87L767.012,1602.02L767.138,1602.17L767.263,1602.32L767.387,1602.46L767.515,1602.61L767.643,1602.75L767.772,1602.89L767.902,1603.04L768.032,1603.18L768.163,1603.32L768.427,1603.6L768.562,1603.75L768.697,1603.88L768.832,1604.02L768.968,1604.16L769.107,1604.3L769.245,1604.43L769.38,1604.56L769.52,1604.7L769.663,1604.83L769.803,1604.96L769.944,1605.09L770.088,1605.23L770.231,1605.35L770.374,1605.48L770.521,1605.61L770.666,1605.74L770.813,1605.87L770.96,1605.99L771.108,1606.12L771.258,1606.24L771.554,1606.48L771.706,1606.6L771.859,1606.72L772.013,1606.84L772.165,1606.96L772.318,1607.08L772.472,1607.19L772.627,1607.31L772.783,1607.42L772.94,1607.54L773.1,1607.65L773.256,1607.76L773.413,1607.87L773.573,1607.98L773.897,1608.2L774.057,1608.31L774.218,1608.41L774.38,1608.52L774.543,1608.62L774.709,1608.73L774.874,1608.83L775.036,1608.93L775.37,1609.13L775.538,1609.23L775.707,1609.32L775.874,1609.42L776.041,1609.51L776.213,1609.61L776.382,1609.7L776.552,1609.79L776.726,1609.88L776.897,1609.97L777.07,1610.06L777.24,1610.15L777.414,1610.24L777.593,1610.33L777.765,1610.41L777.939,1610.49L778.116,1610.58L778.294,1610.66L778.47,1610.74L778.647,1610.82L778.825,1610.9L779.003,1610.97L779.185,1611.05L779.365,1611.13L779.546,1611.2L779.724,1611.27L779.906,1611.35L780.089,1611.42L780.269,1611.49L780.454,1611.56L780.636,1611.62L780.822,1611.69L781.006,1611.76L781.19,1611.82L781.378,1611.89L781.564,1611.95L781.747,1612.01L782.123,1612.13L782.312,1612.19L782.501,1612.24L782.688,1612.3L782.88,1612.35L783.068,1612.41L783.257,1612.46L783.451,1612.51L783.641,1612.56L784.025,1612.66L784.218,1612.7L784.411,1612.75L784.606,1612.79L784.797,1612.83L784.993,1612.88L785.19,1612.92L785.384,1612.96L785.582,1613L785.777,1613.03L785.973,1613.07L786.367,1613.13L786.569,1613.17L786.768,1613.2L786.964,1613.23L787.164,1613.26L787.365,1613.29L787.567,1613.31L787.766,1613.34L787.965,1613.36L788.169,1613.38L788.374,1613.4L788.576,1613.42L788.775,1613.44L788.978,1613.46L789.186,1613.48L789.39,1613.49L789.596,1613.5L789.802,1613.52L790.005,1613.53L790.209,1613.54L790.417,1613.55L790.626,1613.55L790.832,1613.56L791.043,1613.56L791.25,1613.57L887.685,1613.57L887.893,1613.56L888.103,1613.56L888.309,1613.55L888.518,1613.55L888.727,1613.54L888.931,1613.53L889.134,1613.52L889.34,1613.5L889.545,1613.49L889.75,1613.48L889.958,1613.46L890.161,1613.44L890.36,1613.42L890.562,1613.4L890.766,1613.38L890.97,1613.36L891.17,1613.34L891.369,1613.31L891.571,1613.29L891.772,1613.26L891.972,1613.23L892.168,1613.2L892.367,1613.17L892.569,1613.13L892.766,1613.1L892.963,1613.07L893.159,1613.03L893.354,1613L893.552,1612.96L893.746,1612.92L893.942,1612.88L894.138,1612.83L894.33,1612.79L894.524,1612.75L894.718,1612.7L894.911,1612.66L895.103,1612.61L895.294,1612.56L895.485,1612.51L895.678,1612.46L895.868,1612.41L896.056,1612.35L896.247,1612.3L896.434,1612.24L896.624,1612.19L896.813,1612.13L897.001,1612.07L897.188,1612.01L897.371,1611.95L897.557,1611.89L897.746,1611.82L897.93,1611.76L898.114,1611.69L898.3,1611.62L898.482,1611.56L898.666,1611.49L898.847,1611.42L899.03,1611.35L899.212,1611.27L899.39,1611.2L899.571,1611.13L899.751,1611.05L899.933,1610.97L900.111,1610.9L900.289,1610.82L900.465,1610.74L900.641,1610.66L900.819,1610.58L900.997,1610.49L901.17,1610.41L901.343,1610.33L901.521,1610.24L901.695,1610.15L901.866,1610.06L902.038,1609.98L902.21,1609.88L902.384,1609.79L902.554,1609.7L902.723,1609.61L902.894,1609.51L903.062,1609.42L903.229,1609.32L903.398,1609.23L903.566,1609.13L903.733,1609.03L903.899,1608.93L904.062,1608.83L904.226,1608.73L904.393,1608.62L904.555,1608.52L904.718,1608.41L904.879,1608.31L905.039,1608.2L905.201,1608.09L905.363,1607.98L905.523,1607.87L905.679,1607.76L905.835,1607.65L905.996,1607.54L906.152,1607.42L906.308,1607.31L906.463,1607.19L906.617,1607.08L906.77,1606.96L906.923,1606.84L907.076,1606.72L907.229,1606.6L907.381,1606.48L907.53,1606.36L907.678,1606.24L907.827,1606.12L907.975,1605.99L908.123,1605.87L908.269,1605.74L908.414,1605.61L908.561,1605.48L908.705,1605.35L908.847,1605.23L908.992,1605.09L909.132,1604.96L909.272,1604.83L909.415,1604.7L909.555,1604.56L909.69,1604.43L909.829,1604.3L909.968,1604.16L910.104,1604.02L910.239,1603.88L910.373,1603.75L910.508,1603.6L910.641,1603.46L910.772,1603.32L910.904,1603.18L911.033,1603.04L911.164,1602.89L911.293,1602.75L911.421,1602.61L911.548,1602.46L911.673,1602.32L911.798,1602.17L911.924,1602.02L912.047,1601.87L912.169,1601.72L912.292,1601.57L912.412,1601.42L912.533,1601.27L912.652,1601.11L912.769,1600.96L912.886,1600.81L913.002,1600.65L913.119,1600.5L913.233,1600.34L913.346,1600.19L913.458,1600.03L913.57,1599.87L913.682,1599.71L913.792,1599.55L913.9,1599.39L914.008,1599.23L914.115,1599.07L914.221,1598.91L914.326,1598.75L914.429,1598.58L914.533,1598.42L914.636,1598.25L914.737,1598.09L914.836,1597.92L914.935,1597.76L915.033,1597.59L915.131,1597.42L915.228,1597.25L915.323,1597.08L915.416,1596.92L915.51,1596.74L915.602,1596.57L915.693,1596.4L915.783,1596.23L915.872,1596.06L915.96,1595.88L916.047,1595.71L916.133,1595.54L916.218,1595.36L916.302,1595.19L916.385,1595.01L916.467,1594.83L916.548,1594.66L916.627,1594.48L916.707,1594.3L916.783,1594.12L916.86,1593.94L916.936,1593.76L917.01,1593.58L917.083,1593.4L917.156,1593.22L917.227,1593.04L917.297,1592.86L917.366,1592.67L917.434,1592.49L917.5,1592.31L917.566,1592.12L917.631,1591.94L917.694,1591.75L917.757,1591.56L917.818,1591.38L917.878,1591.19L917.937,1591L917.995,1590.81L918.052,1590.63L918.107,1590.44L918.162,1590.25L918.215,1590.06L918.267,1589.87L918.318,1589.68L918.368,1589.49L918.417,1589.29L918.465,1589.1L918.511,1588.91L918.556,1588.72L918.6,1588.52L918.643,1588.33L918.685,1588.13L918.726,1587.94L918.765,1587.74L918.803,1587.55L918.841,1587.35L918.877,1587.15L918.911,1586.96L918.944,1586.76L918.977,1586.56L919.008,1586.36L919.038,1586.16L919.066,1585.96L919.094,1585.76L919.12,1585.56L919.145,1585.36L919.168,1585.16L919.191,1584.96L919.212,1584.75L919.232,1584.55L919.251,1584.35L919.268,1584.15L919.284,1583.94L919.299,1583.74L919.313,1583.53L919.325,1583.33L919.336,1583.12L919.346,1582.91L919.355,1582.71L919.362,1582.5L919.368,1582.29L919.373,1582.09L919.376,1581.88L919.378,1581.67L919.379,1581.44L919.379,1485.88L919.378,1485.65L919.376,1485.44L919.373,1485.23L919.368,1485.02L919.362,1484.82L919.355,1484.61L919.346,1484.4L919.336,1484.2L919.325,1483.99L919.313,1483.79L919.299,1483.58L919.284,1483.38L919.268,1483.17L919.251,1482.97L919.232,1482.77L919.212,1482.56L919.191,1482.36L919.168,1482.16L919.145,1481.96L919.12,1481.76L919.094,1481.56L919.066,1481.36L919.038,1481.16L919.008,1480.96L918.977,1480.76L918.944,1480.56L918.911,1480.36L918.877,1480.16L918.841,1479.97L918.803,1479.77L918.765,1479.58L918.726,1479.38L918.685,1479.18L918.644,1478.99L918.6,1478.8L918.556,1478.6L918.511,1478.41L918.465,1478.22L918.417,1478.02L918.368,1477.83L918.318,1477.64L918.267,1477.45L918.215,1477.26L918.162,1477.07L918.107,1476.88L918.052,1476.69L917.995,1476.5L917.937,1476.31L917.878,1476.13L917.818,1475.94L917.757,1475.75L917.694,1475.57L917.631,1475.38L917.566,1475.2L917.501,1475.01L917.434,1474.83L917.366,1474.64L917.297,1474.46L917.227,1474.28L917.156,1474.1L917.083,1473.92L917.01,1473.73L916.936,1473.56L916.86,1473.38L916.783,1473.19L916.706,1473.02L916.628,1472.84L916.548,1472.66L916.467,1472.48L916.386,1472.31L916.302,1472.13L916.218,1471.95L916.134,1471.78L916.048,1471.61L915.959,1471.43L915.872,1471.26L915.783,1471.09L915.693,1470.91L915.602,1470.74L915.51,1470.57L915.417,1470.4L915.323,1470.23L915.227,1470.07L915.131,1469.9L915.034,1469.73L914.935,1469.56L914.835,1469.39L914.737,1469.23L914.636,1469.07L914.534,1468.9L914.43,1468.74L914.325,1468.57L914.221,1468.41L914.116,1468.25L914.007,1468.08L913.9,1467.92L913.792,1467.77L913.681,1467.61L913.57,1467.45L913.46,1467.29L913.346,1467.13L913.232,1466.97L913.119,1466.82L913.003,1466.66L912.887,1466.51L912.769,1466.36L912.651,1466.2L912.531,1466.05L912.412,1465.9L912.292,1465.75L912.169,1465.6L912.047,1465.45L911.924,1465.3L911.8,1465.15L911.674,1465L911.546,1464.86L911.419,1464.71L911.293,1464.57L911.164,1464.42L911.033,1464.28L910.904,1464.14L910.774,1464L910.641,1463.85L910.506,1463.71L910.373,1463.57L910.239,1463.43L910.104,1463.3L909.968,1463.16L909.831,1463.02L909.692,1462.89L909.553,1462.75L909.413,1462.62L909.274,1462.49L909.132,1462.35L908.99,1462.22L908.847,1462.09L908.705,1461.96L908.561,1461.84L908.414,1461.7L908.269,1461.58L908.123,1461.45L907.975,1461.33L907.829,1461.2L907.681,1461.08L907.53,1460.96L907.379,1460.84L907.227,1460.71L907.076,1460.59L906.925,1460.48L906.77,1460.36L906.617,1460.24L906.463,1460.12L906.306,1460.01L906.152,1459.89L905.996,1459.78L905.838,1459.67L905.679,1459.56L905.52,1459.44L905.363,1459.34L905.201,1459.23L905.042,1459.12L904.881,1459.01L904.718,1458.91L904.552,1458.8L904.39,1458.69L904.229,1458.59L904.065,1458.49L903.896,1458.39L903.73,1458.29L903.566,1458.19L903.4,1458.09L903.232,1458L903.062,1457.9L902.892,1457.8L902.723,1457.71L902.554,1457.62L902.381,1457.52L902.21,1457.43L902.041,1457.34L901.869,1457.26L901.692,1457.17L901.518,1457.08L901.346,1456.99L901.17,1456.91L900.994,1456.82L900.819,1456.74L900.644,1456.66L900.465,1456.58L900.286,1456.5L900.111,1456.42L899.933,1456.34L899.751,1456.27L899.571,1456.19L899.393,1456.12L899.212,1456.04L899.03,1455.97L898.847,1455.9L898.663,1455.83L898.482,1455.76L898.3,1455.69L898.114,1455.63L897.93,1455.56L897.746,1455.5L897.557,1455.43L897.375,1455.37L897.188,1455.31L896.997,1455.25L896.813,1455.19L896.627,1455.13L896.434,1455.07L896.244,1455.02L896.059,1454.96L895.868,1454.91L895.675,1454.86L895.488,1454.81L895.294,1454.76L895.103,1454.71L894.911,1454.66L894.718,1454.62L894.524,1454.57L894.33,1454.53L894.138,1454.48L893.942,1454.44L893.746,1454.4L893.548,1454.36L893.358,1454.32L893.162,1454.29L892.959,1454.25L892.762,1454.21L892.569,1454.18L892.37,1454.15L892.168,1454.12L891.968,1454.09L891.772,1454.06L891.571,1454.03L891.372,1454.01L891.17,1453.98L890.967,1453.96L890.766,1453.94L890.565,1453.91L890.363,1453.89L890.157,1453.88L889.954,1453.86L889.75,1453.84L889.545,1453.83L889.344,1453.81L889.137,1453.8L888.927,1453.79L888.723,1453.78L888.518,1453.77L888.309,1453.76L888.103,1453.76L887.896,1453.75L887.685,1453.75L887.477,1453.75L887.247,1453.75L791.689,1453.75Z" style="fill:rgb(21,36,43);"/>
                </g>
                <g>
                    <g transform="matrix(1,0,0,1,-559.621,-78.0538)">
                        <path d="M795.013,1582.44L806.879,1553.76" style="fill:none;stroke:rgb(21,36,43);stroke-width:15.02px;"/>
                    </g>
                    <g transform="matrix(1,0,0,1,-559.621,-78.0538)">
                        <path d="M817.211,1529.89L839.114,1476.29L882.647,1582.44" style="fill:none;stroke:rgb(21,36,43);stroke-width:15.02px;"/>
                    </g>
                    <g transform="matrix(1,0,0,1,-561.83,-75.905)">
                        <path d="M784.352,1551.08L828.062,1551.08" style="fill:none;stroke:rgb(255,0,64);stroke-width:15.02px;"/>
                    </g>
                    <g transform="matrix(1,0,0,1,-550.991,-98.741)">
                        <path d="M784.352,1551.08L828.062,1551.08" style="fill:none;stroke:rgb(255,0,64);stroke-width:15.02px;"/>
                    </g>
                </g>
            </g>
        </g>
    </g>
</svg>
