<svg viewBox="0 0 513 513" version="1.1" xmlns="http://www.w3.org/2000/svg" xml:space="preserve" style="fill-rule:evenodd;clip-rule:evenodd;stroke-linejoin:round;stroke-miterlimit:1.41421;">
    <g transform="matrix(1,0,0,1,-545,-555)">
        <g transform="matrix(1.44661,0,0,1.44661,1107.62,1385.72)" fill="#ed124b">
            <rect x="-388.525" y="-573.976" width="353.919" height="353.919" style="fill:none;"/>
            <g transform="matrix(0.691274,0,0,0.691274,-765.667,-573.976)">
                <path d="M909.676,42.202C968.002,42.202 1015.35,89.554 1015.35,147.879L1015.35,364.102C1015.35,422.427 968.001,469.779 909.676,469.779L693.453,469.779C635.129,469.779 587.776,422.427 587.776,364.102L587.776,147.879C587.776,89.554 635.128,42.202 693.453,42.202L909.676,42.202ZM781.982,304.874C782.168,304.868 782.354,304.868 782.539,304.856C782.91,304.831 783.278,304.781 783.642,304.707C784.735,304.485 785.779,304.042 786.699,303.411C787.464,302.886 788.14,302.232 788.691,301.484C789.132,300.886 789.492,300.229 789.759,299.536C790.093,298.67 790.28,297.748 790.311,296.82C790.348,295.705 790.159,294.586 789.759,293.546C789.492,292.853 789.132,292.196 788.691,291.598C788.03,290.7 787.188,289.939 786.229,289.371C785.43,288.898 784.552,288.56 783.642,288.375C783.157,288.276 783.031,288.276 782.539,288.226C782.353,288.22 782.168,288.214 781.982,288.208L685.808,288.208C685.622,288.214 685.437,288.214 685.251,288.226C684.881,288.251 684.512,288.301 684.148,288.375C683.056,288.597 682.011,289.04 681.092,289.671C680.326,290.196 679.65,290.85 679.099,291.598C678.658,292.196 678.298,292.853 678.031,293.546C677.764,294.239 677.591,294.968 677.516,295.707C677.405,296.816 677.518,297.945 677.849,299.01C678.179,300.075 678.724,301.07 679.444,301.921C680.164,302.773 681.055,303.476 682.049,303.979C682.878,304.398 683.777,304.676 684.697,304.8C685.188,304.866 685.314,304.858 685.808,304.874L732.449,304.874L708.795,362.357C708.739,362.505 708.678,362.652 708.627,362.802C708.523,363.102 708.436,363.408 708.367,363.717C708.091,364.958 708.103,366.257 708.403,367.492C708.627,368.418 709.011,369.303 709.534,370.099C710.144,371.029 710.94,371.833 711.863,372.451C712.522,372.893 713.244,373.239 714.001,373.477C714.758,373.716 715.549,373.845 716.342,373.86C717.294,373.878 718.249,373.732 719.151,373.429C720.205,373.075 721.185,372.51 722.018,371.774C722.732,371.144 723.336,370.391 723.796,369.557C724.001,369.186 724.036,369.085 724.208,368.699L750.472,304.874L781.982,304.874ZM774.942,248.668L813.558,153.991L901.612,368.69C901.736,368.953 901.847,369.223 901.985,369.479C902.537,370.504 903.304,371.409 904.226,372.122C905.147,372.834 906.217,373.348 907.348,373.624C908.48,373.9 909.666,373.935 910.812,373.727C911.671,373.571 912.504,373.279 913.273,372.865C914.041,372.451 914.743,371.916 915.347,371.285C915.95,370.654 916.452,369.928 916.831,369.142C917.59,367.564 917.834,365.76 917.521,364.038C917.382,363.273 917.288,363.096 917.032,362.366L821.247,128.816C820.923,128.129 820.867,127.94 820.439,127.308C819.476,125.885 818.074,124.78 816.465,124.176C815.75,123.908 815.554,123.897 814.81,123.743C814.526,123.714 814.242,123.685 813.958,123.655C813.197,123.656 813.003,123.627 812.249,123.745C811.402,123.878 810.577,124.141 809.81,124.525C808.787,125.036 807.874,125.759 807.141,126.637C806.774,127.076 806.454,127.551 806.185,128.056C806.051,128.307 805.942,128.572 805.821,128.831L756.942,248.668L703.41,248.668C702.916,248.684 702.79,248.676 702.299,248.742C701.379,248.866 700.481,249.145 699.652,249.564C698.657,250.066 697.766,250.77 697.046,251.621C696.447,252.33 695.967,253.14 695.634,254.006C695.233,255.046 695.044,256.166 695.081,257.28C695.119,258.394 695.382,259.498 695.851,260.509C696.164,261.183 696.567,261.814 697.046,262.381C697.526,262.949 698.081,263.451 698.694,263.872C699.613,264.502 700.658,264.946 701.75,265.168C702.114,265.242 702.483,265.291 702.853,265.316C703.039,265.328 703.225,265.328 703.41,265.335L799.584,265.335C799.771,265.328 799.956,265.328 800.141,265.316C800.512,265.291 800.88,265.242 801.244,265.168C802.337,264.946 803.382,264.502 804.301,263.872C805.066,263.346 805.742,262.692 806.293,261.944C806.734,261.346 807.094,260.689 807.361,259.996C807.695,259.13 807.882,258.208 807.913,257.28C807.95,256.166 807.762,255.046 807.361,254.006C807.094,253.313 806.734,252.656 806.293,252.058C805.632,251.161 804.79,250.399 803.831,249.831C803.032,249.358 802.154,249.02 801.244,248.835C800.759,248.736 800.633,248.736 800.141,248.686L799.584,248.668L774.942,248.668Z"/>
            </g>
        </g>
    </g>
</svg>
