<?xml version="1.0" encoding="UTF-8" standalone="no"?>
<!DOCTYPE svg PUBLIC "-//W3C//DTD SVG 1.1//EN" "http://www.w3.org/Graphics/SVG/1.1/DTD/svg11.dtd">
<svg width="100%" height="100%" viewBox="0 0 513 512" version="1.1" xmlns="http://www.w3.org/2000/svg" xmlns:xlink="http://www.w3.org/1999/xlink" xml:space="preserve" style="fill-rule:evenodd;clip-rule:evenodd;stroke-linejoin:round;stroke-miterlimit:1.41421;">
    <g transform="matrix(1,0,0,1,-545,0)">
        <g id="Fill" transform="matrix(1.44661,0,0,1.44661,1107.62,830.317)">
            <rect x="-388.525" y="-573.976" width="353.919" height="353.919" style="fill:none;"/>
            <g transform="matrix(0.691274,0,0,0.691274,-765.667,-573.976)">
                <g>
                    <path d="M909.676,42.202C968.002,42.202 1015.35,89.554 1015.35,147.879L1015.35,364.102C1015.35,422.427 968.001,469.779 909.676,469.779L693.453,469.779C635.129,469.779 587.776,422.427 587.776,364.102L587.776,147.879C587.776,89.554 635.128,42.202 693.453,42.202L909.676,42.202ZM780.52,247.556L817.561,156.743L904.648,369.085C904.778,369.363 904.895,369.647 905.038,369.918C905.614,371.003 906.403,371.972 907.349,372.754C908.059,373.341 908.855,373.822 909.704,374.177C911.121,374.77 912.679,375.006 914.208,374.861C915.431,374.745 916.627,374.386 917.712,373.811C918.526,373.38 919.275,372.829 919.928,372.18C920.799,371.315 921.497,370.279 921.971,369.146C922.683,367.444 922.877,365.542 922.523,363.731C922.366,362.927 922.268,362.74 921.996,361.971L826.211,128.421C826.08,128.142 825.963,127.857 825.819,127.585C825.53,127.04 825.188,126.525 824.798,126.048C823.627,124.613 822.032,123.545 820.26,123.007C819.473,122.768 819.261,122.768 818.451,122.648C818.143,122.633 817.836,122.618 817.528,122.603C816.71,122.644 816.499,122.625 815.693,122.786C814.484,123.029 813.327,123.512 812.304,124.2C811.537,124.716 810.848,125.345 810.265,126.062C809.876,126.54 809.535,127.056 809.247,127.601C809.103,127.873 808.987,128.159 808.857,128.438L760.271,247.556L707.41,247.556C706.887,247.572 706.755,247.564 706.235,247.63C705.261,247.753 704.307,248.03 703.418,248.448C702.352,248.95 701.383,249.654 700.576,250.513C700.038,251.086 699.573,251.726 699.195,252.415C698.532,253.62 698.14,254.969 698.054,256.342C697.98,257.519 698.13,258.707 698.494,259.828C698.797,260.762 699.248,261.647 699.826,262.442C700.403,263.236 701.105,263.938 701.9,264.516C703.013,265.324 704.302,265.882 705.653,266.14C706.039,266.214 706.429,266.263 706.821,266.288C707.017,266.3 707.214,266.3 707.41,266.306L765.399,266.306C765.491,266.317 765.583,266.327 765.675,266.336C766.343,266.398 767.017,266.388 767.684,266.306L803.584,266.306C804.108,266.29 804.24,266.298 804.759,266.232C805.734,266.109 806.688,265.832 807.576,265.414C808.643,264.912 809.612,264.208 810.419,263.349C811.091,262.633 811.649,261.811 812.067,260.923C812.569,259.856 812.867,258.696 812.941,257.52C813.003,256.54 812.909,255.551 812.665,254.6C812.421,253.648 812.026,252.737 811.5,251.908C810.974,251.079 810.317,250.333 809.56,249.707C808.5,248.831 807.248,248.193 805.916,247.851C805.535,247.753 805.149,247.679 804.759,247.63C804.565,247.605 804.369,247.593 804.173,247.575L803.584,247.556L780.52,247.556ZM785.982,305.911C786.179,305.905 786.375,305.905 786.571,305.892C786.963,305.868 787.353,305.819 787.739,305.745C789.09,305.487 790.38,304.929 791.493,304.121C792.287,303.543 792.99,302.841 793.567,302.046C794.26,301.093 794.77,300.009 795.063,298.867C795.307,297.916 795.4,296.927 795.339,295.947C795.277,294.967 795.06,293.998 794.699,293.085C794.337,292.172 793.832,291.317 793.206,290.56C792.454,289.652 791.532,288.888 790.499,288.321C789.638,287.848 788.704,287.511 787.739,287.327C787.224,287.229 787.092,287.229 786.571,287.179C786.375,287.173 786.178,287.167 785.982,287.161L689.808,287.161C689.285,287.177 689.153,287.169 688.633,287.235C687.659,287.358 686.705,287.635 685.816,288.053C684.75,288.555 683.781,289.259 682.974,290.118C682.302,290.834 681.743,291.656 681.325,292.544C680.907,293.433 680.63,294.387 680.507,295.361C680.334,296.726 680.467,298.125 680.892,299.433C681.256,300.554 681.833,301.604 682.584,302.512C683.085,303.117 683.662,303.659 684.297,304.121C685.41,304.929 686.7,305.487 688.051,305.745C688.437,305.819 688.827,305.868 689.219,305.892C689.415,305.905 689.612,305.905 689.808,305.911L734.896,305.911L711.832,361.96C711.772,362.119 711.707,362.275 711.651,362.435C711.54,362.755 711.445,363.08 711.369,363.41C711.101,364.565 711.055,365.769 711.233,366.941C711.412,368.113 711.815,369.248 712.415,370.271C713.1,371.44 714.04,372.455 715.154,373.228C715.849,373.711 716.609,374.099 717.408,374.378C718.367,374.713 719.38,374.891 720.396,374.902C721.582,374.916 722.767,374.702 723.874,374.276C724.98,373.849 726.002,373.212 726.872,372.406C727.617,371.716 728.249,370.904 728.735,370.012C728.951,369.615 728.988,369.508 729.171,369.096L755.172,305.911L785.982,305.911Z" style="fill:rgb(35,31,32);"/>
                </g>
            </g>
        </g>
    </g>
</svg>
